<?xml version="1.0" standalone="no"?>
<!DOCTYPE svg PUBLIC "-//W3C//DTD SVG 20010904//EN"
 "http://www.w3.org/TR/2001/REC-SVG-20010904/DTD/svg10.dtd">
<svg version="1.0" xmlns="http://www.w3.org/2000/svg"
 width="254.000000pt" height="143.000000pt" viewBox="0 0 254.000000 143.000000"
 preserveAspectRatio="xMidYMid meet">

<g transform="translate(0.000000,143.000000) scale(0.100000,-0.100000)"
fill="#000000" stroke="none">
<path d="M1448 1288 c-31 -42 -42 -65 -35 -70 9 -5 5 -35 -15 -110 -23 -89
-25 -105 -13 -128 16 -29 11 -37 56 111 27 92 34 106 50 102 17 -5 19 1 18 53
-1 33 -4 69 -8 82 -5 21 -10 18 -53 -40z"/>
<path d="M1295 1078 c-2 -7 -14 -42 -25 -78 -12 -36 -25 -69 -30 -74 -5 -5
-20 13 -33 40 l-25 49 -11 -27 c-14 -37 -71 -234 -71 -244 1 -8 19 33 69 151
7 17 12 13 35 -32 24 -48 46 -69 46 -43 0 20 42 121 48 115 4 -4 16 -33 27
-66 11 -33 25 -61 30 -61 5 0 16 18 24 39 13 38 12 43 -24 136 -37 97 -51 120
-60 95z"/>
<path d="M1626 874 c302 -26 510 -86 582 -169 105 -119 37 -245 -203 -375 -66
-35 -158 -80 -205 -98 -80 -32 -346 -101 -400 -103 -16 -1 -19 -3 -8 -6 69
-18 571 123 738 207 149 75 265 169 290 235 26 70 1 141 -67 188 -143 99 -341
138 -688 136 l-190 -1 151 -14z"/>
<path d="M915 858 c-473 -115 -771 -276 -816 -441 -30 -112 82 -212 297 -266
169 -42 287 -54 489 -48 246 7 319 23 105 23 -159 -1 -263 11 -429 46 -120 25
-188 55 -245 108 -57 53 -73 102 -55 169 36 130 324 309 619 386 58 15 107 29
109 31 7 7 -31 3 -74 -8z"/>
<path d="M411 581 c-6 -10 -21 -53 -35 -95 -23 -73 -23 -76 -5 -76 10 0 19 4
19 9 0 5 5 22 11 38 l10 28 33 -40 34 -40 47 38 c27 20 50 35 53 33 2 -3 0
-19 -6 -35 l-11 -31 43 0 42 0 29 90 c16 49 26 93 22 96 -4 4 -41 -20 -84 -52
-42 -32 -82 -62 -88 -66 -6 -4 -23 17 -40 50 -39 76 -56 88 -74 53z"/>
<path d="M774 590 c-61 -25 -102 -143 -60 -172 17 -11 174 -9 181 2 4 6 -12
10 -42 10 -76 0 -82 8 -58 77 l20 58 68 3 c51 2 67 6 67 17 0 12 -16 15 -77
14 -43 0 -88 -4 -99 -9z"/>
<path d="M957 528 c-44 -125 -44 -118 1 -118 38 0 41 2 54 43 13 39 18 42 53
45 37 3 38 3 32 -25 -3 -15 -9 -36 -13 -46 -6 -16 -2 -18 36 -15 l43 3 28 90
c16 50 29 91 29 93 0 1 -18 2 -39 2 -36 0 -41 -3 -52 -35 -12 -32 -17 -35 -52
-35 -27 0 -38 4 -34 13 21 56 21 57 -21 57 l-40 0 -25 -72z"/>
<path d="M1245 590 c-4 -6 -19 -49 -35 -96 l-29 -85 42 3 42 3 26 75 c26 73
27 75 60 75 43 0 48 -28 6 -33 -39 -5 -43 -25 -16 -77 23 -43 26 -45 66 -45
24 0 43 2 43 4 0 3 -9 21 -21 40 l-21 36 31 26 c34 28 41 68 15 78 -26 10
-202 7 -209 -4z"/>
<path d="M1585 509 c-61 -50 -112 -92 -114 -95 -2 -2 35 -4 82 -4 51 0 87 4
87 10 0 6 -22 10 -49 10 -28 0 -52 4 -55 8 -3 4 18 27 45 51 57 49 58 48 98
-26 26 -47 27 -48 79 -51 l53 -3 -48 92 c-26 51 -53 94 -58 96 -6 2 -60 -38
-120 -88z"/>
<path d="M1890 597 c0 -1 -13 -42 -30 -90 -16 -49 -30 -90 -30 -93 0 -2 47 -4
104 -4 89 0 107 3 130 21 19 15 26 30 26 54 0 18 7 38 15 45 8 7 15 20 15 29
0 34 -22 41 -127 41 -57 0 -103 -1 -103 -3z m138 -44 c-2 -9 -14 -20 -27 -23
-27 -6 -41 -30 -18 -30 22 0 27 -25 11 -49 -14 -19 -53 -29 -66 -15 -3 3 4 34
15 70 20 62 22 64 55 64 26 0 33 -4 30 -17z"/>
<path d="M820 515 c0 -12 13 -15 55 -15 42 0 55 3 55 15 0 12 -13 15 -55 15
-42 0 -55 -3 -55 -15z"/>
<path d="M1348 113 c7 -3 16 -2 19 1 4 3 -2 6 -13 5 -11 0 -14 -3 -6 -6z"/>
</g>
</svg>
