<?xml version="1.0" standalone="no"?>
<!DOCTYPE svg PUBLIC "-//W3C//DTD SVG 20010904//EN"
 "http://www.w3.org/TR/2001/REC-SVG-20010904/DTD/svg10.dtd">
<svg version="1.0" xmlns="http://www.w3.org/2000/svg"
 width="200.000000pt" height="200.000000pt" viewBox="0 0 200.000000 200.000000"
 preserveAspectRatio="xMidYMid meet">

<g transform="translate(0.000000,200.000000) scale(0.100000,-0.100000)"
fill="#000000" stroke="none">
<path d="M0 1000 l0 -1000 1000 0 1000 0 0 1000 0 1000 -1000 0 -1000 0 0
-1000z m495 205 c24 -23 25 -28 25 -170 l0 -147 29 -29 c38 -37 82 -39 116 -4
24 23 25 28 25 170 0 146 0 146 -22 143 -22 -3 -23 -7 -26 -135 -3 -136 -10
-161 -46 -147 -14 5 -16 26 -16 151 0 139 1 145 25 168 33 34 87 34 121 0 25
-25 25 -26 22 -189 -3 -160 -4 -165 -28 -191 -45 -48 -70 -55 -184 -53 l-106
3 -37 38 -38 37 -3 165 c-3 164 -3 165 22 190 34 34 88 34 121 0z m415 -71 c0
-109 9 -134 48 -134 46 0 52 15 52 127 l0 103 25 0 25 0 0 -114 c0 -107 -2
-117 -24 -143 -21 -24 -32 -28 -76 -28 -44 0 -55 4 -76 28 -22 26 -24 36 -24
143 l0 114 25 0 c25 0 25 0 25 -96z m238 44 c3 -43 5 -46 21 -36 26 16 66 2
79 -27 7 -14 12 -48 12 -76 0 -40 -5 -55 -25 -74 -25 -26 -59 -33 -70 -15 -4
6 -13 5 -24 -2 -10 -6 -26 -8 -35 -5 -14 5 -16 26 -16 147 l0 141 28 -3 c25
-3 27 -7 30 -50z m382 -63 c0 -70 4 -115 10 -115 6 0 10 -14 10 -31 0 -29 -2
-31 -27 -24 -16 3 -32 11 -38 16 -11 11 -20 230 -11 255 3 7 17 14 31 14 l25
0 0 -115z m90 65 c0 -20 5 -30 15 -30 9 0 15 -9 15 -25 0 -16 -6 -25 -15 -25
-11 0 -15 -12 -15 -45 0 -31 5 -47 15 -51 9 -4 15 -19 15 -35 0 -24 -4 -29
-24 -29 -42 0 -56 25 -56 96 0 36 -4 64 -10 64 -5 0 -10 11 -10 25 0 14 5 25
10 25 6 0 10 14 10 30 0 25 4 30 25 30 21 0 25 -5 25 -30z m-195 -55 c20 -20
25 -34 25 -78 0 -69 -20 -96 -77 -104 -35 -5 -45 -2 -67 20 -22 22 -26 35 -26
86 0 52 3 62 26 80 37 29 89 27 119 -4z m-507 -232 c-14 -3 -18 -16 -20 -51
l-2 -47 -3 47 c-3 33 -9 48 -21 51 -9 3 1 5 23 5 22 0 32 -2 23 -5z m195 -25
c18 -2 22 -10 23 -38 l2 -35 -5 33 c-6 42 -35 40 -44 -3 -5 -22 -7 -16 -7 25
0 30 2 47 5 38 2 -9 14 -18 26 -20z m204 -45 c-2 -16 -4 -3 -4 27 0 30 2 43 4
28 2 -16 2 -40 0 -55z m-319 25 c3 -13 -3 -18 -22 -18 -26 0 -35 -14 -16 -23
6 -3 5 -4 -2 -3 -15 3 -22 30 -14 52 8 21 50 14 54 -8z m66 13 c3 -4 -6 -6
-21 -3 -24 4 -25 3 -21 -26 2 -17 1 -29 -4 -26 -10 6 -11 48 -1 57 9 10 41 9
47 -2z m153 -31 c1 -34 1 -34 -5 -5 -10 43 -40 45 -45 3 -4 -33 -4 -33 -5 5
-2 36 0 38 26 35 23 -3 27 -8 29 -38z m73 25 c13 -16 5 -55 -12 -55 -6 0 -6 6
2 15 15 18 6 45 -15 45 -21 0 -30 -27 -15 -45 8 -10 9 -15 2 -15 -17 0 -24 19
-18 46 7 27 37 32 56 9z m110 0 c13 -16 5 -55 -12 -55 -7 0 -7 5 1 14 15 18 3
48 -18 44 -20 -4 -27 -38 -9 -50 10 -8 10 -9 -2 -5 -17 4 -25 30 -16 53 7 18
40 18 56 -1z m78 -32 c-3 -42 -6 -48 -26 -49 -18 -1 -19 -1 -2 3 22 5 28 23 8
24 -10 0 -10 2 0 6 6 2 12 16 12 29 0 18 -5 24 -21 24 -18 0 -21 -5 -17 -29 2
-17 1 -28 -4 -25 -10 6 -11 48 -1 57 3 4 17 7 30 7 22 0 24 -3 21 -47z m29 -5
c-2 -13 -4 -5 -4 17 -1 22 1 32 4 23 2 -10 2 -28 0 -40z m73 48 c0 -2 3 -11 6
-20 5 -12 0 -16 -21 -16 -20 0 -26 -4 -21 -15 3 -8 1 -15 -3 -15 -15 0 -21 31
-11 51 9 16 50 28 50 15z m70 -5 c0 -5 -9 -7 -20 -4 -11 3 -20 1 -20 -5 0 -5
9 -12 20 -15 20 -5 29 -37 10 -37 -5 0 -7 6 -4 14 3 8 -3 16 -15 19 -30 8 -27
37 4 37 14 0 25 -4 25 -9z m-35 -51 c3 -5 1 -10 -4 -10 -6 0 -11 5 -11 10 0 6
2 10 4 10 3 0 8 -4 11 -10z"/>
<path d="M410 1025 c0 -142 1 -147 25 -170 28 -29 67 -36 44 -8 -10 11 -15 60
-19 167 -5 147 -6 151 -27 154 -23 3 -23 3 -23 -143z"/>
<path d="M1154 1086 c-3 -8 -4 -31 -2 -52 2 -31 7 -39 23 -39 27 0 42 46 27
80 -13 27 -39 34 -48 11z"/>
<path d="M1342 1088 c-7 -7 -12 -27 -12 -45 0 -41 30 -61 54 -37 29 28 15 94
-19 94 -6 0 -16 -5 -23 -12z"/>
<path d="M950 850 c0 -5 9 -10 21 -10 11 0 17 5 14 10 -3 6 -13 10 -21 10 -8
0 -14 -4 -14 -10z"/>
<path d="M1540 850 c0 -5 9 -10 21 -10 11 0 17 5 14 10 -3 6 -13 10 -21 10 -8
0 -14 -4 -14 -10z"/>
</g>
</svg>
