<?xml version="1.0" standalone="no"?>
<!DOCTYPE svg PUBLIC "-//W3C//DTD SVG 20010904//EN"
 "http://www.w3.org/TR/2001/REC-SVG-20010904/DTD/svg10.dtd">
<svg version="1.0" xmlns="http://www.w3.org/2000/svg"
 width="2938.000000pt" height="1044.000000pt" viewBox="0 0 2938.000000 1044.000000"
 preserveAspectRatio="xMidYMid meet">

<g transform="translate(0.000000,1044.000000) scale(0.100000,-0.100000)"
fill="#003399" stroke="none">
<path d="M1835 10429 c-627 -35 -1210 -387 -1541 -930 -151 -249 -245 -529
-274 -824 -8 -78 -10 -918 -8 -2905 4 -2551 5 -2804 21 -2902 61 -396 151
-687 311 -1013 173 -350 366 -616 652 -895 533 -520 1178 -824 1934 -911 135
-15 514 -15 650 0 312 35 618 109 868 212 53 21 102 39 110 39 8 0 64 -20 126
-44 726 -288 1568 -294 2306 -19 310 116 625 295 895 509 135 107 394 364 501
499 423 528 659 1125 715 1802 7 86 9 1028 7 2888 -3 2591 -5 2766 -21 2855
-81 434 -256 777 -545 1068 -373 375 -855 574 -1387 573 -365 -1 -686 -90
-995 -274 -495 -295 -834 -799 -927 -1379 -17 -107 -18 -251 -18 -2863 l0
-2750 28 -82 c34 -101 108 -215 185 -283 63 -57 207 -131 290 -150 69 -16 215
-16 284 0 29 6 94 32 144 56 157 74 268 203 331 379 l28 80 5 2725 5 2725 21
62 c138 401 578 576 944 376 96 -53 207 -169 258 -271 79 -158 73 102 69
-2982 -3 -3028 2 -2772 -62 -3011 -90 -339 -260 -632 -511 -883 -217 -218
-470 -375 -756 -470 -417 -139 -819 -139 -1236 0 -289 96 -539 251 -757 469
-289 290 -465 626 -552 1055 -16 79 -17 294 -23 2905 -6 2795 -7 2821 -27
2930 -82 436 -254 771 -545 1064 -398 400 -930 602 -1503 570z m313 -545 c16
-5 22 -14 22 -33 0 -14 -4 -31 -8 -37 -8 -12 -492 -15 -492 -3 0 3 -3 20 -6
37 -5 26 -3 31 17 35 37 7 441 7 467 1z m5035 -31 c37 -6 38 -7 35 -42 l-3
-36 -111 -7 c-60 -4 -157 -17 -215 -29 -170 -36 -157 -36 -167 2 -5 19 -6 37
-3 41 11 13 162 47 272 62 125 17 143 18 192 9z m655 -149 c70 -32 236 -137
296 -186 l28 -24 -27 -32 -27 -32 -59 46 c-82 63 -226 147 -299 174 -33 12
-60 27 -60 32 0 5 7 22 16 39 18 35 20 34 132 -17z m-5002 -75 c33 -24 97 -81
144 -127 l84 -85 -34 -28 -34 -29 -49 55 c-62 70 -193 175 -268 215 l-59 31
20 39 20 39 59 -33 c32 -18 85 -53 117 -77z m-1636 46 l19 -30 -69 -54 c-82
-64 -140 -130 -203 -228 l-47 -73 -35 21 -36 21 27 47 c38 66 101 149 154 201
59 60 150 132 162 128 5 -2 18 -17 28 -33z m5083 -157 l20 -26 -62 -58 c-77
-71 -138 -149 -187 -240 -21 -38 -39 -71 -40 -73 -5 -5 -63 20 -70 30 -8 13
59 135 116 210 57 76 177 192 193 186 6 -2 20 -15 30 -29z m-4158 -404 c83
-22 201 -85 268 -145 75 -67 150 -181 184 -282 l28 -82 6 -2810 c3 -1545 9
-2828 13 -2850 4 -22 16 -98 27 -170 74 -472 250 -914 523 -1315 40 -58 76
-111 81 -119 7 -12 -8 -13 -96 -7 -149 10 -238 24 -366 56 -504 127 -927 440
-1206 892 -134 216 -237 518 -266 778 -9 79 -11 780 -9 2835 3 2624 4 2732 21
2780 45 120 82 180 162 261 174 176 394 238 630 178z m6401 -87 l34 -73 -2
-180 -3 -179 -42 -3 -43 -3 0 183 0 183 -29 53 -29 52 36 20 c20 10 38 19 40
20 2 0 19 -33 38 -73z m-5226 -129 c7 -33 10 -129 8 -253 l-3 -200 -42 -3 -43
-3 0 213 c0 117 -4 228 -9 245 -9 31 -8 33 22 42 52 15 55 13 67 -41z m-2554
-66 c7 -5 8 -29 3 -77 -4 -38 -8 -148 -8 -242 l-1 -173 -38 0 -39 0 -6 108
c-4 59 -2 168 3 242 5 74 9 138 10 143 0 9 62 9 76 -1z m5194 -442 l0 -250
-40 0 -40 0 0 250 0 250 40 0 40 0 0 -250z m2615 -545 l0 -250 -42 -3 -43 -3
0 249 c0 137 3 252 7 256 4 4 23 6 43 4 l35 -3 0 -250z m-5247 -152 l-3 -248
-42 -3 -43 -3 0 250 0 251 45 0 45 0 -2 -247z m-2568 -103 l0 -250 -40 0 -40
0 0 250 0 250 40 0 40 0 0 -250z m5200 -200 l0 -250 -40 0 -40 0 0 250 0 250
40 0 40 0 0 -250z m2615 -545 l0 -250 -42 -3 -43 -3 0 249 c0 137 3 252 7 256
4 4 23 6 43 4 l35 -3 0 -250z m-5247 -152 l-3 -248 -42 -3 -43 -3 0 250 0 251
45 0 45 0 -2 -247z m-2568 -103 l0 -250 -40 0 -40 0 0 250 0 250 40 0 40 0 0
-250z m5200 -200 l0 -250 -40 0 -40 0 0 250 0 250 40 0 40 0 0 -250z m2615
-545 l0 -250 -42 -3 -43 -3 0 249 c0 137 3 252 7 256 4 4 23 6 43 4 l35 -3 0
-250z m-5247 -152 l-3 -248 -42 -3 -43 -3 0 250 0 251 45 0 45 0 -2 -247z
m-2568 -103 l0 -250 -40 0 -40 0 0 250 0 250 40 0 40 0 0 -250z m5200 -200 l0
-250 -40 0 -40 0 0 250 0 250 40 0 40 0 0 -250z m2615 -545 l0 -250 -42 -3
-43 -3 0 249 c0 137 3 252 7 256 4 4 23 6 43 4 l35 -3 0 -250z m-5247 -152
l-3 -248 -42 -3 -43 -3 0 250 0 251 45 0 45 0 -2 -247z m-2568 -103 l0 -250
-40 0 -40 0 0 250 0 250 40 0 40 0 0 -250z m5200 -200 l0 -250 -40 0 -40 0 0
250 0 250 40 0 40 0 0 -250z m2615 -545 l0 -250 -42 -3 -43 -3 0 249 c0 137 3
252 7 256 4 4 23 6 43 4 l35 -3 0 -250z m-5247 -152 l-3 -248 -42 -3 -43 -3 0
250 0 251 45 0 45 0 -2 -247z m-2568 -103 l0 -250 -40 0 -40 0 0 250 0 250 40
0 40 0 0 -250z m5200 -55 l0 -105 -40 0 -40 0 0 105 0 105 40 0 40 0 0 -105z
m2608 -450 c10 -10 -101 -461 -118 -479 -7 -7 -80 10 -80 19 0 2 15 57 34 122
18 65 43 165 55 223 30 143 25 133 69 125 20 -4 38 -8 40 -10z m-5214 -157
c21 -116 54 -251 82 -339 19 -58 34 -108 34 -111 0 -6 -56 -28 -71 -28 -17 0
-109 323 -124 437 -6 44 -4 52 12 56 44 11 63 7 67 -15z m-2594 -157 c0 -92
43 -286 86 -388 5 -11 -43 -43 -65 -43 -13 0 -48 96 -77 215 -16 69 -24 129
-24 193 l0 92 40 0 40 0 0 -69z m7459 -719 c-79 -145 -214 -351 -229 -352 -3
0 -18 11 -35 24 -22 18 -27 28 -20 39 59 82 160 240 200 314 l50 91 38 -20 38
-19 -42 -77z m-4518 -44 c21 -41 132 -191 207 -280 l73 -88 -28 -25 c-15 -13
-31 -25 -34 -25 -12 0 -172 197 -240 297 l-70 103 33 20 c41 25 45 25 59 -2z
m-2540 -180 c42 -57 111 -142 153 -190 l77 -88 -28 -25 c-15 -13 -31 -25 -34
-25 -20 -1 -309 359 -309 385 0 10 43 44 55 45 6 0 44 -46 86 -102z m6454
-465 c16 -20 20 -32 13 -40 -33 -40 -382 -273 -408 -273 -7 0 -43 71 -38 75 2
1 51 30 110 65 59 35 147 94 195 131 49 37 92 67 96 68 4 1 19 -11 32 -26z
m-3153 -98 c51 -31 144 -81 208 -112 63 -30 116 -57 118 -58 4 -4 -31 -75 -37
-75 -15 0 -305 152 -369 193 l-73 48 21 29 c12 17 26 30 31 30 5 0 51 -25 101
-55z m-2596 -143 c61 -48 150 -113 197 -146 l85 -58 -20 -34 c-11 -19 -23 -34
-27 -34 -15 0 -327 229 -390 286 -12 11 -10 17 10 43 13 16 26 30 29 30 3 1
55 -39 116 -87z m3572 -213 c62 -11 157 -26 210 -32 l97 -12 -3 -40 c-2 -22
-5 -41 -6 -43 -9 -9 -481 69 -494 82 -2 2 2 22 8 44 10 40 11 40 43 31 17 -5
83 -18 145 -30z m1297 -5 c3 -20 5 -37 3 -39 -18 -18 -381 -85 -458 -85 -40 0
-40 0 -40 39 l0 39 53 7 c105 13 293 46 342 59 82 23 92 21 100 -20z m-2653
-75 c-20 -18 -301 -101 -419 -124 l-61 -12 -11 41 c-5 22 -9 41 -8 41 1 1 49
11 106 24 58 13 164 42 235 65 l131 43 17 -36 c9 -20 14 -39 10 -42z m-1361
-80 c41 -6 142 -14 224 -18 l150 -6 3 -44 3 -44 -140 6 c-142 7 -351 33 -362
45 -4 4 -4 24 -2 45 5 34 8 38 28 33 12 -3 55 -11 96 -17z"/>
<path d="M11513 8128 c3 -1994 5 -2203 20 -2303 73 -479 211 -830 443 -1130
75 -97 242 -260 344 -336 344 -258 802 -405 1325 -427 397 -17 730 24 1045
127 532 176 916 496 1149 959 133 265 221 593 251 942 6 72 10 909 10 2238 l0
2122 -590 0 -590 0 0 -2032 c-1 -1951 -4 -2215 -31 -2348 -90 -451 -374 -732
-810 -803 -278 -46 -566 -23 -784 62 -272 105 -476 350 -554 661 -45 183 -44
118 -48 2338 l-4 2122 -590 0 -589 0 3 -2192z"/>
<path d="M16780 7155 l0 -3165 593 2 592 3 3 280 3 280 39 -68 c169 -291 452
-486 787 -543 143 -25 429 -15 573 19 183 44 301 96 465 208 99 67 242 201
308 289 216 287 342 677 377 1170 13 188 13 1043 -1 1230 -27 385 -94 659
-229 935 -194 400 -488 646 -883 740 -411 98 -751 39 -1059 -182 -104 -75
-239 -217 -317 -333 l-61 -91 0 1195 0 1196 -595 0 -595 0 0 -3165z m2042 296
c124 -32 192 -72 288 -170 97 -100 146 -183 183 -311 41 -140 47 -235 47 -720
0 -271 -5 -491 -11 -545 -14 -110 -49 -236 -89 -314 -59 -117 -175 -237 -282
-292 -50 -25 -169 -56 -248 -64 -80 -7 -233 9 -320 35 -141 42 -267 146 -337
277 -81 152 -78 119 -78 908 l0 700 28 80 c84 239 227 371 452 420 94 21 278
19 367 -4z"/>
<path d="M25373 7663 c3 -2898 -1 -2706 56 -2911 110 -396 382 -648 791 -732
90 -18 328 -30 623 -30 l277 0 0 574 0 573 -147 6 c-233 9 -308 43 -373 171
l-35 69 -3 2468 -2 2469 -595 0 -595 0 3 -2657z"/>
<path d="M27518 9173 l-3 -658 -227 -3 -228 -2 0 -510 0 -510 230 0 229 0 3
-1292 c4 -1417 0 -1327 63 -1535 105 -342 316 -551 646 -637 151 -39 252 -47
652 -53 l377 -6 0 577 0 576 -150 0 c-82 0 -172 5 -199 11 -108 23 -170 103
-191 244 -6 43 -10 460 -10 1093 l0 1022 275 0 275 0 0 510 0 510 -272 2 -273
3 -3 658 -2 657 -595 0 -595 0 -2 -657z"/>
<path d="M22645 8574 c-515 -55 -875 -201 -1157 -473 -271 -259 -450 -619
-512 -1031 -28 -180 -39 -498 -33 -965 6 -474 16 -604 63 -814 34 -153 73
-261 145 -408 174 -354 377 -561 723 -738 293 -149 603 -215 1007 -215 421 -1
711 61 1024 217 543 272 841 750 904 1453 14 149 14 1161 0 1310 -45 500 -205
875 -499 1171 -250 251 -591 408 -1031 475 -100 15 -542 27 -634 18z m480
-1168 c104 -28 198 -81 278 -156 89 -83 147 -169 186 -276 50 -137 53 -183 49
-759 -4 -509 -5 -533 -26 -608 -73 -262 -251 -442 -501 -509 -111 -30 -332
-30 -454 0 -253 62 -417 221 -487 473 -36 132 -42 241 -37 754 3 466 5 494 26
575 73 280 262 462 542 520 71 14 354 6 424 -14z"/>
<path d="M16590 1825 l0 -1165 90 0 90 0 0 568 0 567 25 53 c72 156 202 271
345 308 78 20 220 15 292 -11 62 -22 133 -86 165 -148 48 -96 52 -155 53 -769
l0 -568 91 0 90 0 -4 608 c-4 666 -5 678 -66 808 -79 168 -224 248 -451 248
-134 1 -216 -20 -318 -81 -59 -35 -166 -137 -204 -193 -16 -24 -17 3 -17 458
l-1 482 -90 0 -90 0 0 -1165z"/>
<path d="M21770 1825 l0 -1165 90 0 90 0 0 1165 0 1165 -90 0 -90 0 0 -1165z"/>
<path d="M25963 2875 c-84 -36 -82 -175 2 -211 75 -31 149 -1 174 71 35 101
-72 186 -176 140z"/>
<path d="M11520 2790 l0 -80 380 0 380 0 0 -1025 0 -1025 90 0 90 0 0 1025 0
1025 380 0 380 0 0 80 0 80 -850 0 -850 0 0 -80z"/>
<path d="M13860 2315 c-206 -47 -384 -195 -481 -401 -68 -143 -84 -230 -83
-449 1 -224 14 -291 91 -445 89 -178 259 -316 453 -367 89 -24 291 -23 380 0
119 31 223 91 306 174 41 41 74 80 74 86 0 7 -24 29 -52 49 l-51 38 -53 -50
c-68 -65 -132 -104 -213 -132 -56 -19 -86 -23 -196 -23 -149 1 -200 15 -308
89 -152 104 -257 313 -257 510 l0 66 586 0 587 0 -6 143 c-7 171 -29 265 -91
392 -102 206 -281 320 -520 331 -67 2 -122 -1 -166 -11z m255 -161 c160 -41
277 -171 325 -360 11 -42 20 -99 20 -126 l0 -48 -494 0 -494 0 13 68 c46 236
190 416 375 466 73 19 182 20 255 0z"/>
<path d="M15468 2320 c-141 -25 -249 -81 -349 -180 -65 -64 -84 -91 -127 -180
-61 -127 -79 -197 -94 -358 -9 -93 -9 -154 0 -245 15 -162 34 -232 94 -355 41
-87 62 -117 126 -181 133 -133 262 -184 467 -185 189 -1 337 52 456 162 104
95 179 238 179 338 l0 34 -84 0 -83 0 -7 -48 c-19 -145 -152 -278 -317 -317
-184 -43 -370 3 -484 119 -103 106 -159 262 -171 476 -27 483 165 770 516 770
136 0 230 -35 323 -120 66 -60 112 -146 130 -238 l12 -62 82 0 83 0 0 33 c0
57 -29 155 -66 229 -68 136 -214 251 -369 292 -71 20 -251 29 -317 16z"/>
<path d="M18881 2315 c-138 -31 -265 -115 -362 -237 -46 -59 -49 -54 -49 103
l0 119 -85 0 -85 0 0 -820 0 -820 90 0 90 0 0 568 0 567 29 60 c63 133 172
239 295 288 71 29 256 31 336 3 112 -39 187 -148 210 -304 5 -37 10 -318 10
-624 l0 -558 91 0 91 0 -5 608 c-4 581 -5 611 -25 690 -50 190 -140 292 -305
344 -83 26 -242 32 -326 13z"/>
<path d="M20535 2324 c-162 -27 -274 -83 -391 -199 -79 -77 -98 -103 -138
-185 -78 -163 -90 -222 -90 -460 0 -239 12 -300 90 -460 40 -80 61 -109 138
-186 99 -99 182 -148 306 -181 90 -24 291 -23 380 1 258 70 433 256 512 546
20 75 23 107 23 275 0 225 -17 312 -91 464 -39 80 -60 109 -138 186 -98 99
-177 146 -301 180 -61 16 -245 27 -300 19z m246 -172 c176 -46 312 -193 381
-412 21 -67 23 -94 23 -260 -1 -208 -11 -262 -72 -388 -93 -190 -268 -302
-473 -302 -241 0 -434 151 -517 405 -35 108 -45 357 -18 486 49 242 198 420
398 474 71 19 198 17 278 -3z"/>
<path d="M22965 2324 c-162 -27 -274 -83 -391 -199 -79 -77 -98 -103 -138
-185 -78 -163 -90 -222 -90 -460 0 -239 12 -300 90 -460 40 -80 61 -109 138
-186 99 -99 182 -148 306 -181 90 -24 291 -23 380 1 258 70 433 256 512 546
20 75 23 107 23 275 0 225 -17 312 -91 464 -39 80 -60 109 -138 186 -98 99
-177 146 -301 180 -61 16 -245 27 -300 19z m246 -172 c176 -46 312 -193 381
-412 21 -67 23 -94 23 -260 -1 -208 -11 -262 -72 -388 -93 -190 -268 -302
-473 -302 -241 0 -434 151 -517 405 -35 108 -45 357 -18 486 49 242 198 420
398 474 71 19 198 17 278 -3z"/>
<path d="M24619 2315 c-255 -51 -432 -274 -486 -610 -24 -151 -14 -416 21
-549 56 -214 180 -387 329 -461 244 -120 562 -64 733 128 l46 52 -5 -160 c-7
-222 -40 -320 -141 -419 -85 -85 -197 -126 -341 -126 -153 0 -280 51 -397 159
l-71 66 -47 -55 -48 -54 31 -39 c70 -86 218 -175 357 -213 88 -24 289 -24 379
0 218 59 377 222 438 446 15 59 17 146 20 943 l4 877 -86 0 -85 0 0 -77 c0
-43 -3 -95 -6 -115 l-7 -37 -38 48 c-132 166 -366 243 -600 196z m282 -155
c131 -24 260 -122 327 -247 l32 -61 0 -385 0 -385 -49 -74 c-98 -145 -238
-218 -421 -218 -138 1 -225 34 -310 120 -122 121 -180 304 -180 562 0 327 95
554 269 646 32 18 76 36 97 41 54 12 171 13 235 1z"/>
<path d="M27080 2315 c-206 -47 -384 -195 -481 -401 -68 -143 -84 -230 -83
-449 1 -224 14 -291 91 -445 89 -178 259 -316 453 -367 89 -24 291 -23 380 0
119 31 223 91 306 174 41 41 74 80 74 86 0 7 -24 29 -52 49 l-51 38 -53 -50
c-68 -65 -132 -104 -213 -132 -56 -19 -86 -23 -196 -23 -149 1 -200 15 -308
89 -152 104 -257 313 -257 510 l0 66 586 0 587 0 -6 143 c-7 171 -29 265 -91
392 -102 206 -281 320 -520 331 -67 2 -122 -1 -166 -11z m255 -161 c160 -41
277 -171 325 -360 11 -42 20 -99 20 -126 l0 -48 -494 0 -494 0 13 68 c46 236
190 416 375 466 73 19 182 20 255 0z"/>
<path d="M28605 2316 c-136 -27 -216 -67 -306 -153 -37 -35 -67 -75 -85 -116
-26 -56 -29 -72 -29 -167 0 -130 21 -185 99 -258 97 -92 185 -130 456 -196
199 -49 304 -93 366 -154 104 -100 112 -247 19 -350 -80 -89 -197 -132 -360
-132 -252 0 -418 102 -455 278 l-12 52 -90 0 -90 0 7 -52 c27 -198 176 -345
414 -410 109 -30 342 -30 454 0 192 52 322 166 362 317 40 155 -7 318 -118
407 -96 78 -195 119 -440 183 -207 55 -287 84 -348 129 -62 46 -89 103 -89
188 0 176 155 288 397 288 220 0 397 -120 420 -285 l6 -45 88 0 89 0 0 33 c-1
137 -108 301 -247 375 -130 69 -352 99 -508 68z"/>
<path d="M25930 1480 l0 -820 90 0 90 0 0 820 0 820 -90 0 -90 0 0 -820z"/>
</g>
</svg>
