<?xml version="1.0" standalone="no"?>
<!DOCTYPE svg PUBLIC "-//W3C//DTD SVG 20010904//EN"
 "http://www.w3.org/TR/2001/REC-SVG-20010904/DTD/svg10.dtd">
<svg version="1.0" xmlns="http://www.w3.org/2000/svg"
 width="333.000000pt" height="333.000000pt" viewBox="0 0 333.000000 333.000000"
 preserveAspectRatio="xMidYMid meet">

<g transform="translate(0.000000,333.000000) scale(0.100000,-0.100000)"
fill="#000000" stroke="none">
<path d="M1566 2751 c-37 -58 -119 -225 -145 -296 -17 -44 -38 -74 -80 -115
-116 -111 -165 -193 -195 -323 -48 -207 24 -424 188 -568 25 -22 46 -47 46
-54 0 -15 76 -66 135 -91 157 -65 401 -33 543 73 154 115 253 304 251 480 -1
64 -26 176 -54 238 -30 68 -103 164 -156 207 -65 52 -79 56 -36 12 44 -47 47
-75 11 -103 -58 -46 -82 -21 -85 88 -2 68 -3 73 -30 86 -39 21 -59 19 -59 -5
0 -29 -36 -60 -70 -60 -16 0 -30 -5 -30 -11 0 -8 19 -10 64 -5 74 7 85 0 93
-63 7 -54 -16 -91 -57 -91 -23 0 -30 5 -30 19 0 11 4 22 9 25 5 3 14 20 20 37
10 29 9 30 -7 18 -9 -8 -35 -31 -57 -53 -161 -155 -345 -83 -345 135 0 48 4
60 22 73 12 9 33 16 45 16 21 0 23 -4 23 -55 0 -66 18 -106 55 -123 39 -18 67
-15 98 12 39 34 51 90 32 152 -8 27 -15 50 -15 52 0 1 19 3 43 3 33 1 26 4
-32 12 -61 8 -90 6 -159 -8 -66 -14 -86 -15 -92 -5 -10 16 3 72 50 210 21 63
37 116 35 118 -2 2 -15 -14 -29 -37z m-216 -513 c0 -24 -5 -77 -11 -118 -12
-91 3 -236 33 -330 56 -175 156 -312 311 -429 31 -24 57 -48 57 -53 0 -6 -29
-9 -72 -6 -56 2 -86 10 -128 32 -119 61 -222 156 -278 256 -60 106 -74 161
-75 285 -1 149 30 246 117 362 17 23 34 43 39 43 4 0 7 -19 7 -42z m808 -137
c3 -79 -13 -121 -46 -121 -10 0 -22 -4 -27 -9 -19 -18 -91 -23 -104 -8 -16 20
-4 106 20 147 22 35 91 71 129 68 24 -3 25 -6 28 -77z m-203 9 c12 -19 -17
-149 -37 -167 -20 -17 -221 -43 -234 -30 -12 12 13 53 81 131 l66 76 59 0 c32
0 62 -5 65 -10z m265 -11 c17 -30 9 -64 -15 -64 -15 0 -21 8 -23 28 -6 54 17
76 38 36z m40 -208 c0 -76 -1 -80 -31 -105 -36 -31 -76 -43 -92 -27 -13 13 7
128 29 173 15 29 27 36 67 37 l27 1 0 -79z m-124 25 c8 -20 -35 -173 -53 -187
-15 -13 -87 -30 -142 -32 -50 -3 -59 18 -34 84 12 30 25 68 30 84 7 27 16 32
73 47 81 21 119 22 126 4z m-336 -26 c104 0 114 -7 100 -80 -12 -62 -20 -81
-43 -107 -19 -21 -29 -23 -134 -23 -74 0 -112 -4 -108 -10 3 -6 48 -10 101
-10 80 0 97 -3 114 -20 19 -19 19 -19 64 6 53 30 148 43 170 25 12 -10 19 -9
37 8 21 20 106 44 121 35 17 -11 7 -72 -18 -111 -43 -65 -139 -116 -159 -83
-4 6 -18 1 -34 -11 -21 -15 -54 -24 -117 -30 -125 -13 -136 -19 -24 -13 131 7
194 15 201 26 3 5 11 2 18 -6 11 -13 7 -21 -24 -48 -93 -83 -192 -124 -282
-116 -34 3 -41 8 -65 53 -38 71 -36 85 10 87 33 1 32 2 -13 7 -50 6 -50 6 -83
71 -24 48 -34 84 -38 137 -8 91 -1 128 36 186 27 43 31 46 55 37 15 -6 66 -10
115 -10z"/>
<path d="M1230 1122 c-57 -30 -84 -97 -85 -207 0 -77 4 -98 25 -139 34 -66 83
-93 148 -80 32 6 48 15 50 26 3 15 -3 16 -47 11 -62 -7 -96 12 -118 65 -19 46
-22 172 -5 230 17 55 47 74 117 73 40 0 55 3 55 13 0 30 -89 34 -140 8z"/>
<path d="M1630 1118 c-57 -39 -80 -96 -80 -203 0 -78 4 -99 25 -142 21 -41 34
-55 66 -67 49 -20 59 -20 109 0 l40 16 0 94 0 94 -55 0 c-30 0 -55 -4 -55 -10
0 -5 11 -10 24 -10 51 0 56 -8 56 -80 0 -74 -4 -80 -64 -80 -44 0 -83 32 -96
78 -13 48 -13 183 1 219 21 56 47 73 111 73 51 0 59 2 56 18 -5 29 -95 29
-138 0z"/>
<path d="M1888 1132 c-17 -3 -18 -22 -18 -218 0 -184 2 -214 15 -214 12 0 15
18 15 99 0 55 4 102 8 105 23 14 59 -25 99 -107 39 -80 64 -109 80 -94 3 4
-16 49 -43 102 l-48 96 26 22 c50 42 60 89 33 153 -21 52 -85 73 -167 56z
m117 -48 c15 -11 20 -27 20 -63 0 -58 -21 -87 -68 -94 -54 -8 -57 -2 -57 89
l0 84 43 0 c23 0 51 -7 62 -16z"/>
<path d="M2209 1117 c-51 -35 -71 -99 -67 -217 4 -122 23 -165 86 -192 38 -17
51 -19 83 -9 49 15 85 58 98 121 36 169 -24 320 -126 320 -25 0 -53 -9 -74
-23z m124 -35 c42 -47 59 -165 36 -262 -14 -61 -43 -90 -89 -90 -68 0 -100 62
-100 192 0 82 17 143 47 166 25 18 87 15 106 -6z"/>
<path d="M2837 1127 c-16 -11 -17 -33 -15 -217 3 -186 5 -205 21 -208 15 -3
17 6 17 82 l0 86 50 0 c43 0 56 5 87 34 33 29 37 39 41 92 3 50 1 63 -19 88
-39 50 -140 74 -182 43z m139 -48 c14 -15 19 -36 19 -76 0 -48 -4 -58 -29 -79
-21 -19 -38 -24 -65 -22 l-36 3 -3 98 -3 97 49 0 c37 0 54 -5 68 -21z"/>
<path d="M500 915 c0 -184 2 -215 15 -215 13 0 15 27 16 178 0 128 3 170 10
152 25 -63 103 -220 109 -220 4 0 32 53 63 118 l56 117 0 -173 c1 -160 2 -173
19 -170 15 3 17 23 20 216 2 201 1 212 -16 212 -18 0 -48 -55 -107 -198 -28
-66 -32 -70 -44 -41 -5 13 -32 72 -60 132 -76 160 -81 153 -81 -108z"/>
<path d="M870 1116 c0 -11 15 -16 53 -18 l52 -3 3 -197 c2 -166 5 -198 17
-198 12 0 15 32 17 198 l3 197 53 3 c37 2 52 7 52 18 0 11 -23 14 -125 14
-102 0 -125 -3 -125 -14z"/>
<path d="M2500 955 c0 -226 13 -255 109 -255 52 0 84 15 104 50 24 40 25 380
2 380 -13 0 -15 -24 -15 -152 0 -212 -13 -248 -89 -248 -66 0 -81 48 -81 266
0 112 -2 134 -15 134 -13 0 -15 -26 -15 -175z"/>
</g>
</svg>
