<?xml version="1.0" standalone="no"?>
<!DOCTYPE svg PUBLIC "-//W3C//DTD SVG 20010904//EN"
 "http://www.w3.org/TR/2001/REC-SVG-20010904/DTD/svg10.dtd">
<svg version="1.0" xmlns="http://www.w3.org/2000/svg"
 width="253.000000pt" height="264.000000pt" viewBox="0 0 253.000000 264.000000"
 preserveAspectRatio="xMidYMid meet">

<g transform="translate(0.000000,264.000000) scale(0.100000,-0.100000)"
fill="#000000" stroke="none">
<path d="M515 2377 c-20 -16 -28 -35 -32 -69 -5 -42 -3 -50 25 -78 74 -74 203
-6 178 93 -3 13 -18 36 -32 50 -35 36 -101 38 -139 4z"/>
<path d="M740 2215 l0 -175 -75 0 -75 0 0 -71 0 -71 76 -84 76 -84 -52 -47
c-29 -26 -63 -55 -76 -66 l-24 -18 0 -345 0 -344 473 0 c272 0 499 4 535 10
141 23 246 101 309 228 36 73 38 80 38 176 0 75 -5 114 -19 151 -30 80 -84
153 -142 193 -29 20 -53 41 -54 45 0 5 11 23 25 42 47 60 67 139 63 240 -3 78
-8 100 -35 156 -39 79 -121 160 -195 194 -84 38 -162 45 -515 45 l-333 0 0
-175z m698 -49 c88 -38 146 -147 123 -232 -16 -58 -56 -111 -104 -136 -40 -22
-53 -23 -329 -26 l-288 -3 0 211 0 212 278 -4 c241 -3 283 -6 320 -22z m109
-611 c62 -18 127 -86 144 -149 24 -89 -16 -192 -93 -244 l-42 -27 -358 -3
-358 -3 0 221 0 220 328 0 c265 0 338 -3 379 -15z"/>
<path d="M660 635 l0 -75 54 0 c36 0 60 5 70 16 18 18 21 40 6 49 -5 3 -10 19
-10 34 0 39 -17 51 -72 51 l-48 0 0 -75z m100 35 c0 -13 -9 -22 -25 -26 -34
-8 -55 1 -55 26 0 17 6 20 40 20 33 0 40 -3 40 -20z m15 -65 c0 -17 -8 -20
-47 -23 -46 -3 -48 -2 -48 23 0 25 2 26 48 23 39 -3 47 -6 47 -23z"/>
<path d="M880 635 c0 -43 4 -75 10 -75 6 0 10 16 10 35 l0 35 50 0 50 0 0 -35
c0 -19 5 -35 10 -35 6 0 10 32 10 75 0 43 -4 75 -10 75 -5 0 -10 -16 -10 -35
l0 -35 -50 0 -50 0 0 35 c0 19 -4 35 -10 35 -6 0 -10 -32 -10 -75z"/>
<path d="M1137 635 c-20 -41 -32 -75 -27 -75 6 0 13 7 16 15 5 11 21 15 60 15
39 0 56 -4 60 -15 4 -8 10 -15 15 -15 5 0 -8 34 -28 75 -21 41 -42 75 -48 75
-6 0 -27 -34 -48 -75z m68 15 c22 -42 19 -50 -20 -50 -19 0 -35 5 -35 10 0 13
29 70 35 70 2 0 11 -13 20 -30z"/>
<path d="M1350 635 c0 -43 4 -75 10 -75 6 0 10 32 10 75 0 43 -4 75 -10 75 -6
0 -10 -32 -10 -75z"/>
<path d="M1456 698 c4 -7 18 -27 31 -44 13 -17 23 -45 23 -62 0 -18 5 -32 10
-32 6 0 10 14 10 32 0 17 10 45 23 62 33 44 39 56 29 56 -5 0 -20 -16 -33 -35
-13 -19 -26 -35 -29 -35 -3 0 -16 16 -29 35 -22 32 -52 51 -35 23z"/>
<path d="M1704 639 c-34 -69 -40 -96 -14 -64 18 22 106 21 119 -2 5 -10 12
-15 16 -11 8 8 -62 148 -75 148 -5 0 -26 -32 -46 -71z m69 7 c8 -19 13 -37 10
-40 -7 -6 -73 -8 -73 -2 0 13 32 76 38 76 5 0 16 -15 25 -34z"/>
<path d="M520 375 l0 -75 65 0 c37 0 65 4 65 10 0 6 -25 10 -55 10 l-55 0 0
65 c0 37 -4 65 -10 65 -6 0 -10 -32 -10 -75z"/>
<path d="M742 427 c-68 -72 33 -168 112 -106 19 15 26 30 26 54 0 66 -92 101
-138 52z m110 -20 c13 -20 9 -55 -8 -71 -20 -21 -68 -20 -89 0 -24 24 -16 76
14 90 26 13 69 3 83 -19z"/>
<path d="M982 430 c-32 -30 -30 -82 4 -109 28 -22 78 -28 89 -11 4 6 11 8 16
5 9 -6 10 -3 12 38 1 18 -4 22 -28 24 -20 1 -23 0 -7 -4 25 -5 26 -7 12 -34
-13 -23 -62 -26 -84 -3 -20 20 -21 68 -1 84 10 8 31 11 61 6 41 -5 45 -4 34 9
-18 22 -82 19 -108 -5z"/>
<path d="M1180 375 c0 -43 4 -75 10 -75 6 0 10 32 10 75 0 43 -4 75 -10 75 -6
0 -10 -32 -10 -75z"/>
<path d="M1302 438 c-32 -32 -8 -60 61 -72 29 -5 37 -11 35 -24 -3 -13 -14
-17 -56 -17 -52 1 -67 -7 -36 -19 47 -18 114 1 114 34 0 23 -13 32 -64 45 -46
12 -56 29 -26 45 15 8 30 8 50 1 16 -5 32 -6 35 -1 13 21 -92 29 -113 8z"/>
<path d="M1490 440 c0 -5 18 -10 40 -10 l40 0 0 -67 c0 -38 4 -63 8 -56 4 7 7
37 5 68 l-2 55 40 0 c21 0 39 5 39 10 0 6 -35 10 -85 10 -50 0 -85 -4 -85 -10z"/>
<path d="M1730 375 c0 -43 4 -75 10 -75 6 0 10 32 10 75 0 43 -4 75 -10 75 -6
0 -10 -32 -10 -75z"/>
<path d="M1855 425 c-14 -13 -25 -36 -25 -50 0 -33 42 -75 75 -75 31 0 65 16
65 31 0 6 -7 6 -19 -1 -66 -35 -136 35 -83 83 20 19 77 23 87 7 4 -6 11 -7 17
-4 18 11 -22 34 -59 34 -23 0 -42 -8 -58 -25z"/>
</g>
</svg>
