<svg xmlns="http://www.w3.org/2000/svg" width="333" height="333" viewBox="0 0 333 333">
<g>
<path d="M 230.72,219.10 L 231.55,219.18 L 232.83,219.55 L 233.45,219.78 L 234.58,220.55 L 236.51,222.31 L 237.62,223.42 L 239.28,225.93 L 240.02,227.26 L 241.01,230.44 L 241.21,231.30 L 241.52,233.18 L 241.65,234.16 L 241.81,236.31 L 241.87,237.43 L 241.90,239.90 L 241.80,244.00 L 241.74,245.35 L 241.56,247.76 L 241.47,248.91 L 241.19,250.96 L 241.04,251.94 L 240.66,253.66 L 240.46,254.49 L 239.94,255.94 L 239.67,256.63 L 239.01,257.85 L 238.67,258.43 L 237.85,259.46 L 234.70,262.04 L 233.88,262.54 L 231.90,263.25 L 230.87,263.55 L 228.68,263.84 L 227.58,263.93 L 225.42,263.78 L 224.37,263.65 L 222.50,263.05 L 221.92,262.81 L 220.40,261.70 L 219.63,261.08 L 218.15,259.66 L 217.47,258.97 L 216.60,257.81 L 216.44,257.56 L 216.34,257.21 L 216.58,256.98 L 216.83,256.98 L 216.82,256.71 L 216.10,256.08 L 215.91,255.96 L 215.54,255.48 L 215.36,255.20 L 215.04,254.48 L 214.46,251.85 L 214.39,250.93 L 214.07,248.95 L 213.47,246.67 L 213.36,246.40 L 213.22,245.50 L 213.17,245.00 L 213.13,243.72 L 213.11,242.35 L 213.34,238.91 L 213.49,237.15 L 214.01,233.52 L 215.01,228.79 L 215.16,228.28 L 215.66,227.11 L 215.94,226.51 L 216.65,225.28 L 219.11,222.04 L 219.78,221.38 L 220.89,220.45 L 221.44,220.04 L 222.58,219.53 L 223.19,219.31 L 224.68,219.10 L 227.68,219.00 L 228.91,219.00 M 172.01,219.03 L 173.59,219.18 L 174.36,219.28 L 175.66,219.61 L 176.26,219.80 L 177.14,220.30 L 177.81,221.25 L 177.88,221.62 L 177.80,222.14 L 177.71,222.38 L 177.19,222.68 L 176.87,222.81 L 175.77,222.94 L 173.32,223.01 L 172.45,223.02 L 170.94,223.06 L 170.22,223.08 L 168.99,223.19 L 167.82,223.32 L 166.08,223.87 L 165.28,224.21 L 163.96,225.32 L 162.00,227.80 L 161.44,228.64 L 160.66,230.08 L 160.32,230.82 L 159.90,232.53 L 159.82,233.00 L 159.70,234.10 L 159.64,234.68 L 159.57,236.06 L 159.54,236.79 L 159.51,238.51 L 159.50,241.58 L 159.50,242.76 L 159.51,244.75 L 159.52,245.69 L 159.57,247.24 L 159.59,247.98 L 159.69,249.19 L 159.75,249.76 L 159.91,250.71 L 160.10,251.62 L 160.75,253.05 L 162.29,255.32 L 163.08,256.35 L 164.67,257.87 L 165.47,258.54 L 167.14,259.35 L 167.98,259.67 L 169.79,259.81 L 172.71,259.26 L 173.37,259.04 L 174.27,258.60 L 174.65,258.35 L 175.10,257.57 L 175.29,257.09 L 175.44,255.56 L 175.47,255.12 L 175.49,254.02 L 175.50,252.01 L 175.50,245.68 L 171.50,244.56 L 170.40,244.25 L 168.75,243.48 L 168.41,243.29 L 167.96,242.93 L 167.74,242.47 L 167.79,242.29 L 168.30,241.99 L 168.62,241.85 L 169.56,241.64 L 170.58,241.44 L 173.27,241.32 L 174.63,241.30 L 177.09,241.53 L 177.63,241.61 L 178.47,241.85 L 179.21,242.31 L 179.34,242.50 L 179.54,243.48 L 179.63,244.05 L 179.77,245.62 L 179.83,246.45 L 179.90,248.40 L 179.94,249.39 L 179.95,251.50 L 179.95,252.55 L 179.91,254.60 L 179.87,255.60 L 179.77,257.38 L 179.71,258.22 L 179.54,259.52 L 179.21,260.69 L 178.99,261.05 L 178.20,261.69 L 177.77,262.00 L 176.64,262.54 L 175.44,263.04 L 172.40,263.65 L 170.83,263.89 L 167.62,263.87 L 166.84,263.83 L 165.38,263.60 L 164.67,263.46 L 163.42,263.03 L 162.63,262.71 L 161.17,261.73 L 160.47,261.19 L 159.19,259.80 L 158.58,259.06 L 157.51,257.30 L 157.00,256.38 L 156.14,254.30 L 155.73,253.22 L 155.10,250.85 L 154.82,249.64 L 154.43,247.02 L 154.27,245.69 L 154.15,242.88 L 154.28,238.49 L 154.44,236.40 L 155.12,232.68 L 155.53,230.90 L 156.69,227.81 L 157.34,226.35 L 158.98,223.92 L 161.95,221.04 L 162.44,220.69 L 163.74,220.12 L 164.43,219.86 L 166.01,219.48 L 167.64,219.15 L 171.15,219.02 M 130.79,219.20 L 132.03,219.27 L 133.77,219.43 L 134.55,219.53 L 135.55,219.82 L 135.97,219.99 L 136.45,220.50 L 136.80,221.61 L 136.87,222.10 L 136.84,222.75 L 136.77,223.03 L 136.29,223.32 L 135.97,223.43 L 134.82,223.44 L 132.07,223.23 L 130.86,223.12 L 128.71,223.22 L 127.68,223.34 L 125.87,223.91 L 125.01,224.25 L 123.54,225.29 L 122.85,225.88 L 121.71,227.40 L 121.19,228.23 L 120.38,230.25 L 120.01,231.33 L 119.52,233.86 L 119.31,235.18 L 119.12,238.23 L 119.19,243.39 L 119.24,244.30 L 119.34,245.87 L 119.39,246.61 L 119.52,247.90 L 119.65,249.13 L 120.04,250.97 L 120.26,251.82 L 120.93,253.25 L 122.36,255.41 L 123.15,256.44 L 124.78,257.96 L 125.61,258.62 L 127.37,259.42 L 128.28,259.73 L 130.26,259.84 L 133.54,259.25 L 134.23,259.04 L 135.24,258.80 L 135.70,258.71 L 136.35,258.72 L 136.64,258.76 L 137.03,259.04 L 137.47,259.78 L 137.70,260.38 L 137.62,261.35 L 137.49,261.80 L 136.63,262.50 L 136.10,262.81 L 134.38,263.27 L 130.79,263.73 L 129.81,263.80 L 128.13,263.81 L 127.33,263.79 L 125.90,263.61 L 124.51,263.37 L 122.00,262.21 L 121.35,261.85 L 120.17,260.93 L 119.60,260.44 L 118.58,259.25 L 118.08,258.62 L 117.21,257.16 L 116.80,256.39 L 116.09,254.67 L 115.75,253.78 L 115.20,251.80 L 114.95,250.78 L 114.56,248.55 L 114.39,247.40 L 114.17,244.93 L 114.03,240.95 L 114.03,240.04 L 114.04,238.45 L 114.06,237.70 L 114.11,236.36 L 114.18,235.07 L 114.48,233.00 L 114.67,232.01 L 115.27,230.17 L 116.60,227.17 L 117.01,226.35 L 117.84,224.93 L 118.25,224.25 L 119.12,223.10 L 119.56,222.56 L 120.50,221.66 L 120.98,221.24 L 122.04,220.58 L 122.58,220.27 L 123.79,219.82 L 124.41,219.62 L 125.79,219.35 L 126.51,219.25 L 128.11,219.16 M 273.44,219.78 L 273.50,219.83 L 273.60,220.27 L 273.65,220.54 L 273.73,221.35 L 273.77,221.81 L 273.83,222.95 L 273.86,223.56 L 273.91,224.98 L 273.95,226.46 L 273.98,230.03 L 273.99,231.87 L 273.96,235.85 L 273.93,237.86 L 273.84,241.84 L 273.79,243.79 L 273.65,247.35 L 273.57,249.03 L 273.38,251.75 L 273.33,252.35 L 273.22,253.33 L 273.05,254.41 L 272.83,255.34 L 272.16,257.03 L 271.79,257.83 L 270.84,259.25 L 270.33,259.92 L 269.13,261.05 L 268.50,261.58 L 267.08,262.42 L 266.34,262.79 L 264.73,263.31 L 263.90,263.53 L 262.13,263.72 L 261.23,263.77 L 259.33,263.61 L 258.36,263.48 L 256.37,262.96 L 255.60,262.73 L 254.32,262.20 L 253.72,261.91 L 252.72,261.17 L 252.25,260.77 L 251.51,259.69 L 251.16,259.09 L 250.62,257.54 L 250.37,256.69 L 250.00,254.52 L 249.83,253.35 L 249.59,250.43 L 249.48,248.87 L 249.33,245.08 L 249.30,244.07 L 249.24,241.86 L 249.17,238.25 L 248.84,220.00 L 254.00,220.00 L 254.01,236.75 L 254.02,238.02 L 254.02,240.33 L 254.03,241.45 L 254.05,243.49 L 254.08,245.47 L 254.20,248.67 L 254.27,250.17 L 254.52,252.51 L 254.67,253.58 L 255.09,255.20 L 255.33,255.94 L 255.97,256.97 L 256.33,257.43 L 257.24,258.02 L 257.73,258.27 L 258.95,258.56 L 261.18,258.80 L 262.10,258.86 L 263.63,258.86 L 264.35,258.84 L 265.51,258.56 L 266.05,258.37 L 266.89,257.68 L 267.28,257.26 L 267.85,256.01 L 268.11,255.30 L 268.47,253.36 L 268.62,252.29 L 268.81,249.51 L 268.89,248.00 L 268.97,244.26 L 268.98,243.25 L 268.99,241.04 L 269.00,237.39 L 269.00,235.38 L 269.01,232.02 L 269.02,230.44 L 269.05,227.89 L 269.07,226.70 L 269.13,224.83 L 269.17,223.97 L 269.29,222.68 L 269.35,222.10 L 269.52,221.27 L 269.62,220.90 L 269.87,220.42 L 270.94,219.73 L 271.48,219.59 L 272.48,219.53 M 52.65,220.41 L 53.10,220.71 L 54.10,221.99 L 54.37,222.38 L 54.98,223.38 L 55.29,223.92 L 56.01,225.26 L 56.38,225.98 L 57.24,227.70 L 58.72,230.75 L 59.43,232.23 L 60.78,235.08 L 61.43,236.47 L 62.56,238.93 L 63.09,240.09 L 63.88,241.88 L 64.05,242.27 L 64.31,242.88 L 64.55,243.50 L 64.69,243.93 L 64.96,244.39 L 65.09,244.55 L 65.41,244.43 L 65.59,244.29 L 66.05,243.50 L 66.99,241.50 L 67.94,239.35 L 69.61,235.64 L 70.41,233.88 L 71.80,230.89 L 72.47,229.48 L 73.61,227.14 L 74.16,226.05 L 75.10,224.30 L 75.55,223.50 L 76.33,222.27 L 76.70,221.71 L 77.34,220.94 L 77.65,220.61 L 78.21,220.22 L 78.97,220.00 L 79.47,220.00 L 80.12,220.42 L 80.26,220.61 L 80.48,221.28 L 80.58,221.69 L 80.73,222.90 L 80.79,223.59 L 80.88,225.50 L 80.92,226.55 L 80.96,229.31 L 80.97,230.06 L 80.98,231.74 L 80.99,232.62 L 80.99,234.57 L 81.00,235.58 L 81.00,237.81 L 81.00,241.50 L 81.00,242.80 L 81.00,245.17 L 81.00,246.32 L 80.99,248.41 L 80.99,250.42 L 80.96,253.65 L 80.94,255.14 L 80.88,257.46 L 80.84,258.51 L 80.73,260.06 L 80.66,260.76 L 80.48,261.69 L 80.39,262.10 L 80.13,262.57 L 79.99,262.76 L 79.64,262.93 L 79.00,263.00 L 78.52,263.00 L 77.88,262.64 L 77.74,262.47 L 77.52,261.91 L 77.42,261.58 L 77.28,260.59 L 77.21,260.03 L 77.12,258.49 L 77.08,257.64 L 77.03,255.44 L 77.01,254.24 L 76.99,251.25 L 76.98,245.75 L 76.95,228.50 L 74.63,234.00 L 73.53,236.59 L 71.40,241.34 L 70.89,242.47 L 69.90,244.56 L 69.42,245.57 L 68.53,247.38 L 68.10,248.25 L 67.32,249.72 L 66.95,250.41 L 66.32,251.49 L 66.03,251.97 L 65.58,252.61 L 65.12,253.00 L 65.07,253.00 L 64.88,252.78 L 64.77,252.64 L 64.47,252.16 L 64.14,251.63 L 63.20,249.92 L 62.69,248.99 L 61.51,246.70 L 60.89,245.50 L 59.59,242.90 L 58.94,241.58 L 57.67,238.93 L 57.05,237.63 L 55.93,235.21 L 55.40,234.06 L 54.58,232.15 L 53.84,230.17 L 53.81,230.08 L 53.77,230.25 L 53.75,230.40 L 53.72,231.00 L 53.70,231.36 L 53.69,232.36 L 53.68,232.90 L 53.68,234.25 L 53.68,234.96 L 53.69,236.62 L 53.69,237.48 L 53.72,239.39 L 53.84,245.92 L 54.23,263.00 L 49.00,263.00 L 49.00,220.00 L 51.77,220.00 M 292.19,219.20 L 293.35,219.27 L 295.41,219.63 L 296.40,219.84 L 298.10,220.50 L 298.91,220.86 L 300.26,221.82 L 300.90,222.34 L 301.92,223.61 L 302.39,224.28 L 303.09,225.87 L 303.39,226.71 L 303.77,228.63 L 304.00,231.88 L 304.00,233.39 L 303.58,236.19 L 303.31,237.55 L 302.41,239.94 L 301.90,241.08 L 300.58,242.92 L 298.18,244.90 L 297.91,245.05 L 297.09,245.33 L 296.63,245.46 L 295.53,245.72 L 291.88,246.22 L 291.22,246.26 L 290.12,246.38 L 289.60,246.45 L 288.76,246.68 L 288.37,246.81 L 287.75,247.19 L 287.47,247.41 L 287.03,248.02 L 286.84,248.36 L 286.56,249.25 L 286.44,249.74 L 286.28,250.97 L 286.21,251.64 L 286.13,253.27 L 286.07,256.25 L 286.06,257.01 L 286.04,258.29 L 286.02,258.89 L 285.97,259.87 L 285.92,260.79 L 285.68,261.91 L 285.54,262.37 L 285.07,262.80 L 283.98,263.00 L 283.73,263.00 L 283.33,262.94 L 283.14,262.88 L 282.84,262.59 L 282.70,262.40 L 282.49,261.72 L 282.40,261.32 L 282.27,260.09 L 282.21,259.40 L 282.15,257.47 L 282.12,256.40 L 282.12,253.61 L 282.12,252.85 L 282.13,251.15 L 282.13,250.26 L 282.15,248.28 L 282.16,247.26 L 282.19,244.99 L 282.20,243.82 L 282.23,241.25 L 282.50,219.50 L 288.41,219.20 L 289.76,219.13 M 99.50,219.83 L 100.98,219.84 L 103.45,219.86 L 104.62,219.88 L 106.52,219.92 L 107.41,219.95 L 108.81,220.02 L 109.46,220.06 L 110.43,220.18 L 110.88,220.24 L 111.50,220.41 L 111.78,220.50 L 112.13,220.73 L 112.50,221.70 L 112.50,222.07 L 112.28,222.61 L 112.12,222.86 L 111.48,223.21 L 111.09,223.36 L 109.87,223.58 L 107.25,223.80 L 102.00,224.10 L 102.00,263.00 L 97.00,263.00 L 97.00,224.10 L 91.75,223.80 L 90.66,223.74 L 89.09,223.58 L 88.40,223.48 L 87.49,223.20 L 87.11,223.04 L 86.71,222.59 L 86.50,221.63 L 86.50,221.20 L 86.84,220.61 L 86.98,220.48 L 87.44,220.29 L 87.70,220.19 L 88.48,220.06 L 88.92,220.00 L 90.09,219.92 L 90.73,219.88 L 92.38,219.84 L 93.28,219.83 L 95.48,219.82 M 196.24,219.43 L 197.38,219.51 L 199.35,219.85 L 200.29,220.06 L 201.87,220.67 L 202.61,221.01 L 203.83,221.91 L 204.39,222.41 L 205.28,223.63 L 205.68,224.28 L 206.26,225.84 L 206.52,226.66 L 206.82,228.59 L 207.00,231.92 L 207.00,233.03 L 206.88,234.69 L 206.79,235.46 L 206.39,236.70 L 206.13,237.30 L 205.29,238.49 L 203.36,240.57 L 202.84,241.09 L 202.00,242.06 L 201.61,242.53 L 201.06,243.35 L 200.82,243.74 L 200.61,244.32 L 200.74,244.86 L 200.85,244.93 L 201.40,245.73 L 201.72,246.23 L 202.58,247.69 L 203.03,248.49 L 204.08,250.38 L 204.61,251.36 L 205.72,253.45 L 206.27,254.49 L 207.31,256.54 L 207.82,257.54 L 208.68,259.31 L 209.08,260.14 L 209.64,261.41 L 210.00,262.48 L 210.00,262.62 L 209.27,262.85 L 207.51,263.00 L 206.97,263.00 L 206.05,262.67 L 205.60,262.43 L 204.64,261.36 L 204.39,261.03 L 203.83,260.17 L 203.54,259.71 L 202.88,258.55 L 202.54,257.93 L 201.75,256.43 L 200.39,253.75 L 199.76,252.48 L 198.59,250.15 L 198.03,249.04 L 197.09,247.18 L 196.66,246.33 L 196.05,245.15 L 195.93,244.91 L 195.76,244.59 L 195.63,244.37 L 195.60,244.34 L 194.88,244.08 L 193.25,243.56 L 192.69,243.39 L 191.96,243.33 L 191.80,243.36 L 191.56,243.59 L 191.45,243.74 L 191.29,244.25 L 191.22,244.54 L 191.12,245.40 L 191.08,245.88 L 191.04,247.16 L 191.02,247.86 L 191.01,249.64 L 191.00,252.93 L 191.00,263.00 L 185.96,263.00 L 186.23,241.25 L 186.50,219.50 L 192.50,219.36 L 193.86,219.33 M 226.89,223.00 L 225.63,223.22 L 225.03,223.37 L 223.93,223.89 L 223.41,224.18 L 222.47,225.02 L 222.02,225.47 L 221.23,226.63 L 220.86,227.25 L 220.22,228.74 L 219.91,229.52 L 219.41,231.36 L 219.17,232.32 L 218.80,234.51 L 218.38,238.20 L 218.19,240.44 L 218.24,244.39 L 218.34,246.28 L 218.96,249.58 L 219.34,251.15 L 220.54,253.82 L 223.00,257.16 L 223.81,257.97 L 225.29,259.04 L 226.01,259.49 L 227.40,259.85 L 228.10,259.95 L 229.54,259.62 L 230.28,259.37 L 231.88,258.37 L 232.79,257.73 L 234.22,255.99 L 234.87,255.02 L 235.81,252.52 L 236.22,251.17 L 236.71,247.77 L 236.81,246.85 L 236.93,244.83 L 237.00,241.50 L 237.00,239.93 L 236.86,237.11 L 236.76,235.75 L 236.43,233.32 L 236.23,232.16 L 235.70,230.14 L 235.41,229.18 L 234.68,227.55 L 234.29,226.79 L 233.37,225.55 L 232.88,224.98 L 231.75,224.13 L 231.15,223.75 L 229.82,223.28 L 227.58,223.00 M 289.27,223.00 L 288.00,223.32 L 287.44,223.57 L 286.73,224.64 L 286.58,224.97 L 286.37,225.84 L 286.27,226.30 L 286.15,227.47 L 286.09,228.10 L 286.04,229.62 L 286.01,232.33 L 286.02,233.71 L 286.09,236.02 L 286.15,237.10 L 286.35,238.87 L 286.47,239.68 L 286.84,240.93 L 287.04,241.50 L 287.60,242.27 L 287.90,242.60 L 288.69,242.94 L 289.12,243.05 L 290.16,242.99 L 290.72,242.91 L 292.07,242.47 L 292.78,242.22 L 294.45,241.45 L 295.01,241.19 L 295.99,240.51 L 296.45,240.14 L 297.26,239.27 L 298.02,238.36 L 298.98,236.14 L 299.35,234.98 L 299.47,232.45 L 298.61,228.62 L 298.20,227.63 L 297.20,226.08 L 296.67,225.37 L 295.38,224.33 L 294.69,223.88 L 293.06,223.32 L 290.17,223.00 M 191.00,240.26 L 195.21,239.70 L 196.38,239.54 L 198.57,238.78 L 199.07,238.57 L 199.88,238.10 L 200.25,237.87 L 200.71,237.38 L 200.93,237.09 L 201.27,236.30 L 201.42,235.88 L 201.65,234.90 L 201.85,233.87 L 201.92,231.52 L 201.91,230.35 L 201.55,228.15 L 201.44,227.64 L 201.13,226.74 L 200.55,225.67 L 200.35,225.41 L 199.68,224.91 L 199.31,224.66 L 198.37,224.21 L 195.08,223.28 L 191.00,222.74 M 168.68,120.68 L 167.32,120.94 L 168.68,120.68 M 171.67,119.86 L 170.84,120.09 L 171.73,119.84 M 173.11,119.41 L 172.20,119.70 L 173.15,119.39 M 179.41,115.89 L 176.94,117.59 L 175.67,118.24 L 174.03,118.99 L 175.92,118.09 L 177.23,117.38 L 179.93,115.44 L 180.12,115.30 M 188.41,114.82 L 188.22,115.52 L 188.34,116.37 L 188.49,116.71 L 188.82,116.79 L 188.49,116.71 L 188.32,116.40 L 188.15,115.62 L 188.31,114.99 L 188.79,113.56 L 188.94,113.26 M 190.65,107.28 L 190.83,107.61 L 190.88,107.82 L 190.78,108.53 L 190.69,108.94 L 190.32,110.03 L 189.50,111.99 L 189.97,110.85 L 190.20,109.94 L 190.21,109.62 L 190.15,109.04 L 190.01,108.87 L 189.67,108.63 L 189.41,108.63 L 188.81,108.71 L 188.42,108.87 L 187.57,109.28 L 187.07,109.61 L 185.99,110.34 L 185.38,110.84 L 184.10,111.90 L 183.38,112.56 L 182.86,113.00 L 184.53,111.51 L 185.33,110.78 L 186.69,109.60 L 187.34,109.05 L 188.39,108.25 L 188.89,107.89 L 189.64,107.47 L 189.99,107.30 L 190.45,107.25 Z" fill="rgba(26,44,56,1)"/>
<path d="M 193.24,92.48 L 193.76,92.59 L 194.99,93.00 L 195.65,93.24 L 197.17,93.89 L 199.81,95.15 L 201.01,95.74 L 201.61,96.10 L 201.00,95.76 L 200.75,95.68 L 199.35,95.35 L 199.16,95.42 L 199.15,95.52 L 199.19,95.75 L 199.31,95.93 L 199.59,96.34 L 199.83,96.62 L 200.37,97.22 L 200.74,97.59 L 201.54,98.40 L 202.04,98.88 L 202.39,99.22 L 201.97,98.87 L 201.19,98.34 L 200.30,98.00 L 200.20,98.00 L 200.03,98.47 L 199.95,98.78 L 199.85,99.75 L 199.80,100.28 L 199.76,101.60 L 199.74,102.29 L 199.76,103.81 L 199.78,105.35 L 200.00,108.40 L 200.06,109.11 L 200.23,110.34 L 200.54,111.75 L 200.67,112.18 L 201.37,112.69 L 201.77,112.89 L 202.86,112.94 L 203.44,112.91 L 204.75,112.52 L 205.42,112.27 L 206.78,111.44 L 207.39,111.02 L 208.35,109.74 L 209.00,107.83 L 209.00,107.57 L 208.70,106.82 L 208.51,106.41 L 207.89,105.43 L 207.22,104.41 L 205.33,102.15 L 204.37,101.06 L 205.11,101.73 L 205.80,102.27 L 207.15,103.28 L 207.78,103.69 L 208.99,104.41 L 209.50,104.63 L 210.43,104.98 L 210.75,104.98 L 212.34,104.86 L 212.84,104.71 L 214.39,106.18 L 216.69,108.51 L 220.70,113.50 L 221.64,114.75 L 223.29,117.27 L 225.36,121.00 L 226.74,123.82 L 228.82,129.56 L 229.75,132.44 L 230.95,138.26 L 231.44,141.17 L 231.76,146.97 L 231.81,149.87 L 231.27,155.59 L 230.89,158.43 L 229.49,163.99 L 228.69,166.74 L 226.45,172.06 L 225.22,174.68 L 222.15,179.68 L 216.61,186.73 L 214.96,188.54 L 211.21,191.98 L 209.27,193.65 L 205.14,196.70 L 203.05,198.16 L 198.75,200.65 L 192.38,203.61 L 190.99,204.14 L 188.49,204.93 L 187.25,205.29 L 184.69,205.78 L 183.36,206.00 L 180.26,206.29 L 179.43,206.35 L 177.59,206.45 L 174.50,206.57 L 172.99,206.62 L 169.91,206.64 L 169.21,206.63 L 169.65,206.48 L 169.79,206.38 L 170.00,206.14 L 170.00,206.00 L 169.25,205.29 L 168.14,205.00 L 167.44,205.00 L 165.79,204.74 L 165.48,204.57 L 165.41,204.47 L 165.35,204.25 L 165.42,204.13 L 165.18,203.62 L 164.59,203.16 L 164.11,202.89 L 163.06,202.34 L 162.40,202.04 L 161.00,201.45 L 160.21,201.16 L 156.04,199.44 L 153.24,198.09 L 151.85,197.33 L 148.06,195.09 L 153.37,198.04 L 154.93,198.83 L 157.47,199.99 L 158.67,200.51 L 160.73,201.20 L 161.73,201.50 L 163.62,201.82 L 166.62,202.00 L 167.36,202.00 L 168.71,201.92 L 169.35,201.87 L 170.42,201.71 L 170.91,201.62 L 171.58,201.39 L 171.85,201.27 L 171.92,201.15 L 173.13,201.70 L 174.11,201.79 L 174.49,201.64 L 175.04,201.14 L 175.11,200.57 L 174.99,200.12 L 174.79,199.52 L 175.17,200.28 L 181.98,199.70 L 184.34,199.51 L 188.56,198.56 L 190.63,197.98 L 194.65,196.16 L 196.16,195.40 L 199.41,193.36 L 201.01,192.31 L 203.92,190.12 L 204.60,189.59 L 205.76,188.59 L 206.30,188.11 L 207.13,187.27 L 207.50,186.88 L 207.91,186.26 L 207.97,185.66 L 207.90,185.58 L 207.45,185.52 L 207.19,185.50 L 206.43,185.55 L 203.47,186.07 L 203.20,186.14 L 202.37,186.28 L 201.92,186.35 L 200.77,186.50 L 199.54,186.65 L 199.17,186.68 L 199.59,186.55 L 199.80,186.44 L 200.43,185.92 L 200.55,185.50 L 200.67,184.55 L 200.67,183.83 L 200.46,182.12 L 200.31,181.87 L 200.23,181.86 L 200.05,181.92 L 199.95,182.08 L 199.53,182.37 L 199.00,182.58 L 198.64,182.68 L 196.89,183.12 L 195.72,183.34 L 196.15,183.24 L 197.96,182.57 L 200.38,181.29 L 201.10,180.82 L 202.25,180.18 L 202.77,179.90 L 202.84,179.88 L 202.34,180.49 L 202.23,180.81 L 202.10,181.58 L 202.22,181.77 L 202.56,182.02 L 202.82,181.97 L 203.39,181.76 L 203.68,181.50 L 204.22,180.87 L 204.39,180.42 L 204.49,179.60 L 205.02,180.04 L 205.15,180.25 L 205.57,180.54 L 205.81,180.66 L 206.41,180.77 L 207.06,180.84 L 208.75,180.50 L 209.65,180.25 L 211.66,179.33 L 214.76,177.36 L 215.65,176.69 L 217.40,174.75 L 218.24,173.73 L 219.72,171.40 L 220.40,170.23 L 221.37,167.92 L 222.00,164.91 L 222.00,164.42 L 221.88,163.76 L 221.79,163.48 L 221.35,163.18 L 221.07,163.06 L 220.13,163.05 L 217.96,163.28 L 216.61,163.46 L 214.27,164.14 L 213.17,164.53 L 211.39,165.59 L 210.57,166.17 L 209.38,167.59 L 208.34,170.07 L 208.22,170.64 L 207.98,171.56 L 207.85,171.99 L 207.59,172.63 L 207.46,172.91 L 207.20,173.26 L 207.07,173.41 L 206.83,173.48 L 206.80,173.48 L 207.28,172.95 L 207.57,172.30 L 208.15,170.76 L 208.41,169.65 L 208.66,168.35 L 208.70,167.73 L 208.65,167.54 L 208.50,167.23 L 208.36,167.18 L 208.03,167.15 L 207.79,167.23 L 207.27,167.66 L 206.93,168.19 L 206.79,168.53 L 206.27,170.14 L 206.18,171.08 L 206.12,171.97 L 206.06,171.55 L 206.00,170.06 L 206.00,166.00 L 200.38,166.00 L 197.59,166.47 L 196.17,166.78 L 193.34,167.71 L 191.97,168.22 L 189.60,169.43 L 189.06,169.75 L 188.15,170.39 L 187.11,171.36 L 186.65,171.92 L 185.70,172.58 L 185.67,172.60 L 186.00,172.28 L 186.00,172.00 L 185.56,171.29 L 184.91,171.00 L 184.50,171.00 L 183.44,171.29 L 183.14,171.59 L 183.00,171.11 L 183.00,170.46 L 182.61,169.54 L 182.45,169.34 L 181.96,169.01 L 181.69,168.86 L 180.90,168.62 L 180.46,168.51 L 179.30,168.34 L 178.67,168.27 L 177.08,168.15 L 176.23,168.10 L 174.14,168.02 L 172.27,167.97 L 173.45,167.98 L 174.04,167.98 L 175.14,167.95 L 175.57,167.93 L 176.36,167.86 L 176.65,167.81 L 177.57,167.55 L 177.74,167.32 L 177.91,166.80 L 177.84,166.42 L 177.33,165.54 L 176.60,165.13 L 175.92,165.00 L 175.20,164.88 L 174.73,164.84 L 173.75,164.76 L 173.14,164.72 L 172.74,164.71 L 173.16,164.69 L 176.12,164.43 L 177.57,164.28 L 180.18,163.89 L 181.41,163.68 L 183.35,163.17 L 183.77,163.04 L 184.45,162.75 L 184.75,162.60 L 185.14,162.29 L 185.41,162.02 L 185.96,161.12 L 186.25,160.61 L 186.81,159.33 L 187.38,157.97 L 188.23,155.17 L 187.46,158.25 L 187.24,159.22 L 187.17,159.56 L 187.05,160.15 L 187.04,160.25 L 187.13,160.64 L 187.30,160.78 L 187.71,161.00 L 187.98,161.00 L 189.29,160.24 L 190.23,159.07 L 190.68,158.26 L 191.49,156.64 L 191.12,157.79 L 190.87,158.62 L 190.61,159.94 L 190.52,160.54 L 190.63,161.42 L 190.74,161.81 L 191.29,162.30 L 191.63,162.50 L 192.71,162.65 L 193.32,162.68 L 194.98,162.51 L 195.89,162.40 L 198.01,162.00 L 197.79,162.21 L 197.37,162.79 L 197.54,163.07 L 197.49,163.73 L 196.99,164.00 L 196.56,164.00 L 195.46,164.29 L 195.00,164.72 L 195.00,165.00 L 194.54,165.71 L 193.87,166.00 L 193.44,166.00 L 192.51,166.27 L 192.29,166.66 L 192.45,166.92 L 192.71,167.13 L 192.97,167.16 L 193.58,167.18 L 193.99,167.12 L 195.85,166.72 L 196.98,166.28 L 199.64,164.95 L 200.19,164.54 L 200.34,164.37 L 200.53,164.05 L 200.47,163.94 L 200.50,163.27 L 200.90,162.85 L 201.24,162.72 L 201.93,162.19 L 202.01,161.75 L 201.83,161.55 L 201.18,161.35 L 202.50,161.07 L 203.88,160.77 L 206.37,159.85 L 206.93,159.61 L 207.81,159.12 L 208.66,158.43 L 208.90,158.10 L 209.41,157.01 L 209.67,156.41 L 210.19,154.90 L 210.71,153.31 L 211.60,149.59 L 211.80,148.67 L 212.12,146.91 L 212.26,146.06 L 212.44,144.56 L 212.51,143.85 L 212.51,142.79 L 212.26,141.86 L 212.10,141.70 L 211.33,141.53 L 210.89,141.46 L 209.66,141.46 L 209.00,141.48 L 207.46,141.63 L 206.67,141.72 L 204.96,141.99 L 203.23,142.29 L 199.90,143.13 L 199.12,143.36 L 197.79,143.84 L 196.25,144.60 L 195.63,144.99 L 194.65,146.13 L 193.97,147.77 L 193.96,148.01 L 193.81,148.87 L 193.71,149.35 L 193.39,150.58 L 192.57,153.28 L 192.69,152.50 L 192.94,150.59 L 192.96,149.75 L 192.87,149.51 L 192.64,149.15 L 192.41,149.10 L 191.89,149.07 L 191.51,149.15 L 190.64,149.61 L 190.09,150.21 L 189.84,150.66 L 189.33,151.65 L 189.09,152.29 L 188.84,153.03 L 189.40,149.99 L 189.50,149.28 L 189.57,148.10 L 189.43,146.79 L 189.31,146.40 L 188.83,145.86 L 188.52,145.62 L 187.40,145.32 L 187.06,145.25 L 186.21,145.16 L 185.75,145.12 L 184.63,145.06 L 184.02,145.04 L 182.58,145.01 L 180.00,145.00 L 178.78,145.00 L 176.35,144.92 L 175.16,144.87 L 172.98,144.71 L 171.95,144.63 L 170.26,144.40 L 169.76,144.29 L 170.16,144.33 L 171.77,144.48 L 172.68,144.55 L 174.54,144.69 L 175.50,144.74 L 177.73,144.86 L 178.95,144.91 L 179.44,144.91 L 181.14,144.87 L 181.67,144.73 L 182.55,144.37 L 182.84,144.03 L 183.36,143.23 L 183.63,142.63 L 184.76,140.11 L 178.70,140.54 L 181.27,140.30 L 182.54,140.17 L 184.86,139.89 L 185.96,139.74 L 187.72,139.44 L 188.50,139.30 L 189.43,139.02 L 190.10,138.77 L 191.25,137.60 L 191.79,136.92 L 192.69,134.93 L 193.10,133.85 L 193.71,131.13 L 194.27,126.31 L 194.50,122.50 L 189.50,122.40 L 188.32,122.38 L 187.45,122.43 L 187.61,122.36 L 187.87,122.16 L 188.82,121.15 L 189.13,120.47 L 189.62,119.06 L 189.59,118.41 L 189.51,117.78 L 189.39,117.53 L 189.08,117.05 L 188.83,116.89 L 188.69,116.76 L 189.34,116.90 L 191.44,116.60 L 192.21,116.41 L 193.38,115.51 L 193.90,114.98 L 194.54,113.48 L 194.80,112.65 L 194.89,110.63 L 194.39,107.11 L 193.49,103.50 L 186.25,103.85 L 186.12,103.85 L 186.57,103.79 L 186.73,103.62 L 186.85,103.23 L 186.62,102.89 L 185.99,102.13 L 185.43,101.57 L 183.44,100.30 L 182.20,99.99 L 182.25,99.98 L 183.31,99.98 L 184.93,99.76 L 185.68,99.61 L 186.79,99.03 L 187.29,98.68 L 188.02,97.63 L 188.86,95.41 L 189.00,94.91 L 189.33,94.08 L 189.51,93.70 L 189.51,93.70 L 189.52,93.71 L 190.01,94.00 L 190.44,94.00 L 191.54,93.71 L 192.00,93.27 L 192.00,93.00 L 191.74,92.34 L 191.85,92.33 L 192.26,92.32 M 151.72,203.64 L 154.41,204.62 L 155.71,205.02 L 158.30,205.74 L 159.50,205.98 L 161.30,206.30 L 160.88,206.27 L 159.50,206.05 L 158.26,205.78 L 155.63,205.02 L 154.30,204.60 L 151.59,203.60 L 150.45,203.15 M 148.97,202.58 L 148.90,202.55 L 146.35,201.28 M 142.77,199.46 L 142.75,199.45 L 142.28,199.16 M 164.69,195.41 L 169.18,198.98 L 169.73,199.43 L 169.52,199.30 L 168.25,198.40 L 167.57,197.90 L 165.99,196.61 L 165.16,195.92 L 163.62,194.56 M 139.76,197.60 L 139.74,197.59 L 139.10,197.10 M 137.53,195.86 L 137.52,195.85 L 136.97,195.22 M 136.64,194.83 L 136.22,193.56 L 136.65,194.84 M 146.65,194.25 L 146.33,194.06 L 146.07,193.88 M 170.20,189.93 L 170.34,190.29 L 170.76,191.31 L 171.74,193.37 L 170.89,191.69 L 170.41,190.57 L 170.26,190.15 L 170.02,189.42 L 170.02,189.37 M 177.26,188.11 L 174.33,188.38 L 173.66,188.45 L 172.53,188.58 L 172.00,188.65 L 171.16,188.79 L 170.79,188.86 L 170.30,189.00 L 170.14,189.09 L 170.49,188.67 L 171.31,188.38 L 172.00,188.28 L 173.59,188.11 L 174.71,188.06 L 177.17,187.99 L 178.75,187.99 L 178.97,187.99 M 168.45,184.89 L 168.44,184.89 L 168.41,184.88 M 123.87,168.05 L 124.97,170.51 L 127.70,175.24 L 132.59,181.98 L 134.00,183.67 L 135.12,184.82 L 134.22,183.93 L 133.23,182.83 L 131.31,180.62 L 130.46,179.50 L 126.23,173.00 L 123.89,168.44 L 122.96,166.06 L 122.15,163.78 M 164.48,179.85 L 164.83,180.55 L 165.45,181.70 L 165.76,182.23 L 166.33,183.08 L 166.62,183.47 L 167.21,184.08 L 167.66,184.50 L 167.34,184.33 L 166.85,183.80 L 166.37,183.23 L 166.12,182.85 L 165.61,182.04 L 165.33,181.52 L 164.75,180.42 L 164.42,179.74 L 163.82,178.51 M 149.72,179.88 L 151.29,181.91 L 150.66,181.17 L 148.50,178.23 M 134.72,146.05 L 134.95,147.14 L 136.75,154.16 L 138.26,158.75 L 139.16,160.99 L 141.06,165.43 L 142.15,167.59 L 144.41,171.85 L 145.67,173.90 L 148.28,177.93 L 147.61,177.02 L 146.14,174.91 L 143.52,170.51 L 142.27,168.28 L 140.11,163.64 L 139.08,161.30 L 137.36,156.46 L 136.56,154.02 L 135.31,148.99 L 134.74,146.45 L 134.55,145.22 M 163.32,177.45 L 163.31,177.43 L 162.40,175.40 M 161.98,174.49 L 161.98,174.48 L 161.79,174.02 M 185.22,172.84 L 184.95,172.87 L 185.39,172.75 M 168.33,167.89 L 165.98,167.90 L 164.73,167.93 L 162.86,168.06 L 162.03,168.14 L 160.96,168.39 L 160.20,168.90 L 160.20,168.89 L 160.90,168.37 L 161.88,168.12 L 162.63,168.04 L 164.32,167.91 L 165.44,167.89 L 167.88,167.88 M 159.79,163.94 L 160.00,164.06 L 160.64,164.27 L 161.34,164.46 L 161.93,164.53 L 159.50,164.50 L 159.52,163.74 M 121.13,160.50 L 121.71,162.52 L 121.26,161.25 L 120.65,158.77 L 120.40,157.55 M 222.06,137.13 L 221.07,137.47 L 219.64,138.19 L 218.99,138.59 L 218.04,139.72 L 217.59,140.37 L 216.83,142.33 L 216.63,142.89 L 216.24,144.24 L 215.59,146.64 L 215.23,148.03 L 215.01,149.02 L 215.34,147.35 L 215.52,146.17 L 215.57,145.68 L 215.64,144.75 L 215.63,144.39 L 215.59,143.73 L 215.53,143.50 L 215.39,143.12 L 215.28,143.04 L 215.04,142.96 L 214.89,143.04 L 214.55,143.28 L 214.35,143.52 L 213.92,144.09 L 213.67,144.51 L 212.49,147.19 L 211.71,149.50 L 211.40,150.66 L 210.83,152.92 L 210.70,153.77 L 210.60,154.56 L 210.60,154.84 L 210.63,155.30 L 210.71,155.38 L 211.43,155.83 L 211.80,155.72 L 212.56,155.27 L 212.93,154.74 L 213.67,153.48 L 214.01,152.58 L 214.66,150.62 L 214.49,151.45 L 214.25,153.22 L 214.16,154.04 L 214.21,155.28 L 214.27,155.83 L 214.62,156.55 L 214.84,156.85 L 215.52,157.08 L 215.89,157.13 L 216.91,156.88 L 217.45,156.70 L 218.81,156.00 L 219.54,155.60 L 221.27,154.46 L 225.00,151.93 L 225.00,136.10 M 119.68,154.12 L 119.61,153.79 L 119.53,153.04 M 161.72,150.88 L 161.78,150.70 L 161.90,150.46 M 163.97,146.66 L 163.03,148.27 L 162.69,148.87 L 163.37,147.56 L 163.78,146.90 L 164.31,146.09 M 174.49,132.30 L 173.73,133.16 L 172.37,134.79 L 170.76,136.91 L 167.69,141.32 L 174.71,140.82 L 167.63,141.32 L 169.97,137.91 L 171.91,135.30 L 173.39,133.49 L 174.18,132.59 L 177.49,129.03 L 177.52,128.99 M 211.00,116.78 L 209.57,116.90 L 206.97,117.85 L 205.71,118.43 L 203.53,120.24 L 202.51,121.23 L 200.87,123.78 L 199.14,128.33 L 198.86,129.50 L 198.49,131.45 L 198.34,132.36 L 198.27,133.81 L 198.27,134.48 L 198.55,135.47 L 198.73,135.90 L 199.39,136.44 L 199.78,136.66 L 200.87,136.78 L 201.48,136.79 L 203.05,136.52 L 203.90,136.33 L 205.99,135.69 L 207.11,135.33 L 209.77,134.34 L 210.99,133.87 L 212.69,132.91 L 213.42,132.39 L 214.29,130.94 L 214.47,130.53 L 214.70,129.53 L 214.80,128.99 L 214.90,127.70 L 214.93,127.01 L 214.92,125.38 L 214.81,122.46 L 214.50,116.50 M 195.34,126.70 L 194.38,127.92 L 194.04,129.26 L 194.03,130.01 L 194.12,131.50 L 194.32,132.11 L 194.83,133.17 L 195.25,133.34 L 196.27,133.73 L 196.63,133.78 L 197.26,133.80 L 197.48,133.63 L 197.88,133.17 L 198.04,132.72 L 198.35,131.66 L 198.53,130.88 L 198.69,128.69 L 198.44,127.56 L 198.15,127.19 L 197.47,126.57 L 197.00,126.48 L 195.97,126.46 M 219.84,122.00 L 219.61,122.23 L 219.50,122.38 L 219.32,122.84 L 219.16,123.36 L 219.02,124.78 L 218.99,125.51 L 219.13,126.91 L 219.68,128.35 L 220.01,128.67 L 220.62,128.67 L 220.91,128.57 L 221.37,127.91 L 221.57,127.52 L 221.76,126.43 L 221.81,125.85 L 221.61,124.57 L 221.43,123.87 L 220.86,122.76 L 219.98,122.00 M 215.38,123.63 L 215.29,123.81 L 215.00,124.75 L 215.00,125.50 L 215.11,126.83 L 215.29,127.19 L 215.48,127.49 L 215.60,127.55 L 215.86,127.59 L 216.00,127.50 L 216.71,126.66 L 217.00,125.88 L 217.00,125.50 L 216.71,124.34 L 216.27,123.67 L 216.00,123.50 L 215.60,123.45 M 186.10,122.53 L 185.81,122.56 L 184.88,122.91 L 185.17,122.78 L 185.98,122.49 M 188.32,116.38 L 188.29,116.36 L 188.14,115.88 L 188.16,115.67 M 188.31,114.99 L 188.19,115.50 L 188.31,114.85 L 188.48,114.37 L 188.71,113.80 M 188.91,113.32 L 188.91,113.32 L 189.12,112.86 M 190.01,108.87 L 190.15,109.04 L 190.21,109.62 L 190.20,109.94 L 189.97,110.85 L 189.26,112.57 L 189.23,112.64 L 189.94,110.90 L 190.19,109.98 L 190.20,109.64 L 190.14,109.06 L 190.01,108.89 L 189.70,108.65 M 189.41,108.63 L 189.38,108.63 L 189.41,108.63 M 189.67,108.63 L 189.68,108.63 L 189.47,108.63 M 179.16,103.02 L 179.46,103.48 L 179.75,103.62 L 180.44,103.86 L 180.97,103.92 L 182.03,103.99 L 181.74,103.99 L 180.96,103.96 L 180.61,103.93 L 180.07,103.84 L 179.59,103.72 L 179.18,103.25 L 179.13,102.96 M 179.00,102.10 L 179.00,102.00 L 179.01,102.16 M 203.47,97.22 L 204.70,98.00 L 206.01,98.96 L 204.73,98.05 L 203.49,97.25 L 203.02,96.95 M 184.10,111.90 L 183.38,112.56 L 184.10,111.90 M 179.14,101.05 L 179.24,100.78 L 179.64,100.41 L 179.88,100.25 L 180.63,100.08 L 180.88,100.07 L 180.10,100.22 L 179.68,100.56 L 179.30,100.93 L 179.18,101.17 L 179.00,101.69 L 179.00,101.67 Z" fill="rgba(33,120,150,1)"/>
<path d="M 131.31,180.62 L 133.23,182.83 L 134.22,183.93 L 136.40,186.08 L 138.65,188.22 L 143.72,192.17 L 146.33,194.06 L 151.85,197.33 L 153.24,198.09 L 156.04,199.44 L 160.21,201.16 L 161.00,201.45 L 162.40,202.04 L 163.06,202.34 L 164.11,202.89 L 164.59,203.16 L 165.18,203.62 L 165.42,204.13 L 165.35,204.25 L 165.41,204.47 L 165.48,204.57 L 165.79,204.74 L 167.44,205.00 L 168.14,205.00 L 169.25,205.29 L 170.00,206.00 L 170.00,206.14 L 169.79,206.38 L 169.65,206.48 L 169.18,206.65 L 168.65,206.79 L 166.93,206.86 L 165.98,206.86 L 163.59,206.64 L 162.34,206.49 L 159.50,205.98 L 158.30,205.74 L 155.71,205.02 L 154.41,204.62 L 151.72,203.64 L 149.04,202.61 L 144.03,200.14 L 142.85,199.51 L 140.78,198.25 L 139.81,197.63 L 138.25,196.45 L 137.55,195.88 L 136.65,194.85 L 136.38,194.05 L 136.59,194.27 L 136.81,194.37 L 137.91,194.70 L 138.74,194.70 L 141.72,194.91 L 144.04,195.22 L 145.00,195.42 L 146.90,195.78 L 147.60,195.87 L 147.70,195.81 L 147.74,195.63 L 147.53,195.43 L 146.97,194.94 L 146.50,194.57 L 145.41,193.71 L 144.46,192.96 L 143.91,192.53 L 141.60,190.71 L 140.50,189.84 L 136.85,186.68 L 134.57,184.43 L 133.52,183.25 L 131.46,180.83 L 130.51,179.57 L 130.50,179.54 M 172.96,195.80 L 173.53,196.84 L 174.32,198.41 L 174.66,199.12 L 174.99,200.12 L 175.11,200.57 L 175.04,201.14 L 174.49,201.64 L 174.11,201.79 L 173.13,201.70 L 171.80,201.10 L 171.62,200.95 L 170.84,200.31 L 170.39,199.95 L 169.18,198.98 L 167.43,197.59 L 168.26,198.11 L 170.41,199.36 L 171.26,199.68 L 172.07,199.95 L 172.41,200.00 L 173.03,200.05 L 173.27,200.00 L 173.69,199.83 L 173.81,199.65 L 174.00,199.25 L 174.00,198.96 L 173.84,198.25 L 173.59,197.52 L 173.41,197.07 L 172.55,195.08 L 172.00,194.00 L 171.74,193.39 M 133.90,189.96 L 134.48,190.67 L 135.51,192.00 L 135.82,192.49 L 136.27,193.32 L 136.24,193.49 L 136.29,193.76 L 136.22,193.56 L 136.26,193.38 L 135.81,192.53 L 135.50,192.04 L 134.47,190.69 L 133.89,189.97 L 132.42,188.30 L 129.87,185.62 L 132.42,188.29 M 200.31,181.87 L 200.46,182.12 L 200.67,183.83 L 200.67,184.55 L 200.55,185.50 L 200.43,185.92 L 199.80,186.44 L 199.59,186.55 L 199.01,186.73 L 198.68,186.81 L 197.84,186.96 L 197.38,187.02 L 196.22,187.15 L 194.08,187.36 L 193.18,187.45 L 190.84,187.61 L 189.61,187.68 L 186.86,187.81 L 185.47,187.86 L 182.67,187.94 L 178.75,187.99 L 177.17,187.99 L 174.71,188.06 L 173.59,188.11 L 172.00,188.28 L 171.31,188.38 L 170.49,188.67 L 170.15,189.09 L 170.00,188.29 L 170.00,188.01 L 169.54,186.37 L 168.88,185.51 L 168.45,185.34 L 167.49,184.57 L 166.89,183.85 L 167.34,184.33 L 168.44,184.89 L 170.65,185.41 L 171.28,185.51 L 173.33,185.56 L 174.45,185.56 L 177.24,185.44 L 178.69,185.36 L 181.90,185.10 L 183.53,184.96 L 186.86,184.60 L 188.50,184.42 L 191.61,184.00 L 193.11,183.79 L 195.70,183.34 L 196.89,183.12 L 198.64,182.68 L 199.00,182.58 L 199.53,182.37 L 199.95,182.08 L 200.05,181.92 L 200.23,181.86 M 153.40,184.51 L 152.67,183.69 L 152.61,183.61 M 204.52,179.37 L 204.39,180.42 L 204.22,180.87 L 203.68,181.50 L 203.39,181.76 L 202.82,181.97 L 202.56,182.02 L 202.22,181.77 L 202.10,181.58 L 202.23,180.81 L 202.34,180.49 L 202.86,179.86 L 203.81,179.23 L 204.18,179.11 M 149.57,179.67 L 150.91,181.41 L 149.72,179.88 L 148.29,177.95 L 148.20,177.81 M 161.98,174.48 L 163.31,177.43 L 163.72,178.30 L 164.42,179.74 L 164.65,180.21 L 164.15,179.28 L 163.73,178.42 L 162.10,174.85 L 161.88,174.24 M 130.45,179.47 L 128.68,177.00 L 127.85,175.67 L 127.01,174.21 M 145.56,173.70 L 146.97,175.90 L 145.67,173.90 L 144.41,171.85 L 144.36,171.75 M 208.36,167.18 L 208.50,167.23 L 208.65,167.54 L 208.70,167.73 L 208.66,168.35 L 208.41,169.65 L 208.15,170.76 L 207.57,172.30 L 207.28,172.95 L 206.77,173.51 L 206.65,173.59 L 206.45,173.54 L 206.35,173.48 L 206.22,173.16 L 206.17,172.96 L 206.12,172.34 L 206.12,172.00 L 206.18,171.08 L 206.27,170.14 L 206.79,168.53 L 206.93,168.19 L 207.27,167.66 L 207.79,167.23 L 208.03,167.15 M 185.56,171.29 L 186.00,172.00 L 186.00,172.28 L 185.56,172.71 L 184.50,173.00 L 184.09,173.00 L 183.44,172.71 L 183.17,172.53 L 183.00,172.00 L 183.00,171.72 L 183.44,171.29 L 184.50,171.00 L 184.91,171.00 M 125.31,171.21 L 124.74,170.21 L 124.50,169.63 M 168.50,164.61 L 169.45,164.62 L 171.08,164.65 L 171.85,164.67 L 173.14,164.72 L 173.75,164.76 L 174.73,164.84 L 175.20,164.88 L 175.92,165.00 L 176.60,165.13 L 177.33,165.54 L 177.84,166.42 L 177.91,166.80 L 177.74,167.32 L 177.57,167.55 L 176.65,167.81 L 176.36,167.86 L 175.57,167.93 L 175.14,167.95 L 174.04,167.98 L 173.45,167.98 L 172.00,167.97 L 169.38,167.92 L 167.88,167.88 L 165.44,167.89 L 164.32,167.91 L 162.63,168.04 L 161.88,168.12 L 160.90,168.37 L 160.44,168.71 L 160.11,166.01 L 159.93,165.09 L 159.83,164.70 L 159.78,164.50 M 142.67,168.57 L 142.15,167.59 L 142.10,167.49 M 201.83,161.55 L 202.01,161.75 L 201.93,162.19 L 201.24,162.72 L 200.90,162.85 L 200.50,163.27 L 200.47,163.94 L 200.53,164.05 L 200.34,164.37 L 200.19,164.54 L 199.64,164.95 L 196.98,166.28 L 195.85,166.72 L 193.99,167.12 L 193.58,167.18 L 192.97,167.16 L 192.71,167.13 L 192.45,166.92 L 192.29,166.66 L 192.51,166.27 L 193.44,166.00 L 193.87,166.00 L 194.54,165.71 L 195.00,165.00 L 195.00,164.72 L 195.46,164.29 L 196.56,164.00 L 196.99,164.00 L 197.49,163.73 L 197.54,163.07 L 197.37,162.79 L 197.79,162.21 L 198.08,161.94 L 199.07,161.50 L 199.59,161.32 L 200.66,161.19 M 141.71,166.73 L 141.06,165.43 L 141.04,165.39 M 160.54,154.29 L 160.28,155.17 L 159.91,156.90 L 159.64,159.28 L 159.52,163.72 L 159.19,162.46 L 159.09,161.44 L 159.10,160.86 L 159.31,158.38 L 159.63,156.98 L 160.41,154.08 L 160.98,152.60 L 161.74,150.83 M 192.41,149.10 L 192.64,149.15 L 192.87,149.51 L 192.96,149.75 L 192.94,150.59 L 192.69,152.50 L 192.53,153.51 L 191.90,155.52 L 191.55,156.51 L 190.68,158.26 L 190.23,159.07 L 189.29,160.24 L 187.98,161.00 L 187.71,161.00 L 187.30,160.78 L 187.13,160.64 L 187.04,160.25 L 187.05,160.15 L 187.17,159.56 L 187.24,159.22 L 187.46,158.25 L 188.40,154.50 L 188.62,153.66 L 189.09,152.29 L 189.33,151.65 L 189.84,150.66 L 190.09,150.21 L 190.64,149.61 L 191.51,149.15 L 191.89,149.07 M 138.44,159.19 L 138.26,158.75 L 138.26,158.74 M 215.28,143.04 L 215.39,143.12 L 215.53,143.50 L 215.59,143.73 L 215.63,144.39 L 215.64,144.75 L 215.57,145.68 L 215.52,146.17 L 215.34,147.35 L 214.94,149.37 L 214.67,150.60 L 214.01,152.58 L 213.67,153.48 L 212.93,154.74 L 212.56,155.27 L 211.80,155.72 L 211.43,155.83 L 210.71,155.38 L 210.63,155.30 L 210.60,154.84 L 210.60,154.56 L 210.70,153.77 L 210.83,152.92 L 211.40,150.66 L 211.71,149.50 L 212.49,147.19 L 213.67,144.51 L 213.92,144.09 L 214.35,143.52 L 214.55,143.28 L 214.89,143.04 L 215.04,142.96 M 119.46,152.43 L 119.43,152.25 L 119.39,151.79 M 162.57,149.11 L 161.86,150.54 L 162.25,149.63 L 162.69,148.87 M 183.63,142.63 L 183.36,143.23 L 182.84,144.03 L 182.55,144.37 L 181.67,144.73 L 181.14,144.87 L 179.44,144.91 L 178.95,144.91 L 177.73,144.86 L 175.50,144.74 L 174.54,144.69 L 172.68,144.55 L 171.77,144.48 L 170.16,144.33 L 169.41,144.26 L 168.24,144.11 L 167.16,143.92 L 166.87,143.82 L 166.16,144.12 L 165.80,144.34 L 165.01,145.17 L 164.71,145.52 L 165.04,145.02 L 165.38,144.54 L 166.01,143.68 L 166.25,143.41 L 166.67,143.00 L 166.78,143.00 L 167.17,142.75 L 167.52,142.35 L 167.71,142.06 L 168.18,141.28 L 184.76,140.11 M 119.01,143.65 L 119.01,143.65 L 118.99,142.85 L 119.18,140.66 M 119.62,136.59 L 119.62,136.57 L 119.63,136.52 M 119.79,135.59 L 119.89,135.01 L 120.44,132.22 M 197.00,126.48 L 197.47,126.57 L 198.15,127.19 L 198.44,127.56 L 198.69,128.69 L 198.53,130.88 L 198.35,131.66 L 198.04,132.72 L 197.88,133.17 L 197.48,133.63 L 197.26,133.80 L 196.63,133.78 L 196.27,133.73 L 195.25,133.34 L 194.83,133.17 L 194.32,132.11 L 194.12,131.50 L 194.03,130.01 L 194.04,129.26 L 194.38,127.92 L 195.34,126.70 L 195.97,126.46 M 189.68,108.63 L 190.01,108.89 L 190.14,109.06 L 190.20,109.64 L 190.19,109.98 L 189.94,110.90 L 189.23,112.64 L 188.91,113.32 L 188.48,114.37 L 188.31,114.85 L 188.17,115.56 L 188.14,115.88 L 188.29,116.36 L 188.83,116.89 L 189.08,117.05 L 189.39,117.53 L 189.51,117.78 L 189.59,118.41 L 189.62,119.06 L 189.13,120.47 L 188.82,121.15 L 187.87,122.16 L 187.61,122.36 L 187.07,122.58 L 186.22,122.57 L 185.98,122.49 L 185.17,122.78 L 184.71,122.99 L 183.53,123.77 L 182.90,124.21 L 181.46,125.39 L 180.72,126.02 L 179.11,127.49 L 177.87,128.67 L 180.34,126.01 L 182.06,124.10 L 182.77,123.28 L 184.09,121.74 L 184.54,121.18 L 185.28,120.21 L 185.38,120.00 L 185.84,119.06 L 186.30,118.16 L 186.57,117.62 L 187.79,115.24 L 188.43,114.00 L 189.43,111.84 L 189.85,110.68 L 189.94,110.24 L 190.02,109.44 L 189.95,109.19 L 189.73,108.77 L 189.50,108.70 L 189.06,108.67 L 189.41,108.63 M 121.50,128.30 L 121.78,127.29 L 122.33,125.77 L 122.53,125.23 M 216.00,123.50 L 216.27,123.67 L 216.71,124.34 L 217.00,125.50 L 217.00,125.88 L 216.71,126.66 L 216.00,127.50 L 215.86,127.59 L 215.60,127.55 L 215.48,127.49 L 215.29,127.19 L 215.11,126.83 L 215.00,125.50 L 215.00,124.75 L 215.29,123.81 L 215.38,123.63 L 215.60,123.45 M 168.68,120.68 L 168.68,120.68 L 171.03,120.04 M 171.68,119.86 L 171.68,119.86 L 172.29,119.67 M 173.12,119.41 L 173.11,119.41 L 174.03,118.99 M 188.40,108.87 L 188.43,108.86 L 188.60,108.79 M 188.61,108.79 L 188.82,108.70 L 188.90,108.69 M 200.75,95.68 L 201.00,95.76 L 201.84,96.23 L 202.31,96.50 L 203.49,97.25 L 204.73,98.05 L 207.61,100.09 L 208.31,100.60 L 209.64,101.59 L 210.28,102.08 L 211.36,102.94 L 211.86,103.34 L 212.55,103.97 L 213.00,104.53 L 213.00,104.66 L 212.34,104.86 L 210.75,104.98 L 210.43,104.98 L 209.50,104.63 L 208.99,104.41 L 207.78,103.69 L 207.15,103.28 L 205.80,102.27 L 205.11,101.73 L 203.75,100.51 L 203.11,99.91 L 202.04,98.88 L 201.54,98.40 L 200.74,97.59 L 200.37,97.22 L 199.83,96.62 L 199.59,96.34 L 199.31,95.93 L 199.19,95.75 L 199.15,95.52 L 199.16,95.42 L 199.35,95.35 M 183.44,100.30 L 185.43,101.57 L 185.99,102.13 L 186.62,102.89 L 186.85,103.23 L 186.73,103.62 L 186.57,103.79 L 185.58,103.93 L 183.00,104.00 L 182.17,104.00 L 180.97,103.92 L 180.44,103.86 L 179.75,103.62 L 179.46,103.48 L 179.16,103.02 L 179.04,102.75 L 179.00,102.00 L 179.00,101.69 L 179.18,101.17 L 179.30,100.93 L 179.68,100.56 L 180.10,100.22 L 181.34,99.98 L 182.00,99.93 M 191.72,92.29 L 192.00,93.00 L 192.00,93.27 L 191.54,93.71 L 190.44,94.00 L 190.01,94.00 L 189.52,93.71 L 189.35,93.52 L 189.50,93.00 L 189.67,92.72 L 190.21,92.29 L 191.06,92.00 L 191.32,92.00 Z" fill="rgba(58,102,115,1)"/>
<path d="M 134.72,106.54 L 135.56,107.41 L 135.92,108.17 L 136.01,108.70 L 136.14,109.87 L 136.13,110.68 L 136.06,112.46 L 135.97,113.65 L 135.69,118.46 L 135.59,121.98 L 135.57,123.83 L 135.61,131.38 L 135.75,135.01 L 135.92,138.58 L 136.03,140.23 L 136.27,143.43 L 136.41,144.82 L 136.71,147.44 L 136.89,148.46 L 137.25,150.31 L 137.45,150.88 L 138.56,154.59 L 138.82,155.73 L 138.91,156.21 L 139.04,157.08 L 139.05,157.38 L 139.20,158.45 L 139.42,159.33 L 139.58,159.81 L 140.33,161.80 L 140.80,162.67 L 141.79,164.37 L 142.72,165.88 L 143.29,166.77 L 145.79,170.64 L 147.15,172.68 L 148.51,174.71 L 149.16,175.67 L 150.43,177.53 L 151.00,178.33 L 152.07,179.85 L 152.49,180.42 L 153.25,181.42 L 153.47,181.66 L 157.47,186.03 L 159.86,188.49 L 160.88,189.46 L 162.81,191.22 L 163.56,191.81 L 164.28,192.35 L 164.58,192.54 L 165.15,192.87 L 165.37,192.96 L 166.19,193.25 L 166.52,193.34 L 167.14,193.47 L 167.37,193.47 L 167.77,193.42 L 167.90,193.32 L 168.10,193.07 L 168.12,192.86 L 168.11,192.39 L 168.03,192.06 L 167.83,191.34 L 167.65,190.88 L 167.24,189.90 L 166.96,189.31 L 166.36,188.04 L 165.98,187.30 L 164.91,185.02 L 164.33,183.62 L 164.12,183.03 L 163.76,181.92 L 163.68,181.53 L 163.59,180.86 L 163.66,180.74 L 163.71,180.22 L 163.58,179.74 L 163.44,179.46 L 162.71,178.26 L 162.14,177.65 L 161.22,176.32 L 160.55,175.06 L 160.22,174.31 L 158.95,171.04 L 158.52,169.37 L 157.72,165.90 L 157.46,164.05 L 157.46,163.17 L 157.56,161.38 L 157.74,160.30 L 157.94,159.18 L 158.08,158.54 L 158.38,157.19 L 158.56,156.41 L 159.24,153.69 L 159.69,152.07 L 159.90,151.40 L 160.31,150.16 L 160.48,149.75 L 160.79,149.08 L 160.90,149.01 L 161.35,148.46 L 161.79,147.78 L 162.05,147.33 L 163.20,145.24 L 163.79,144.00 L 166.13,139.90 L 167.03,138.54 L 167.47,137.94 L 168.34,136.80 L 168.72,136.37 L 170.04,134.89 L 171.04,133.76 L 171.56,133.17 L 173.67,130.80 L 174.50,129.87 L 177.25,126.62 L 178.74,124.69 L 179.29,123.88 L 180.27,122.33 L 180.56,121.73 L 180.99,120.62 L 180.99,120.25 L 180.47,119.32 L 179.63,119.03 L 179.03,119.06 L 177.70,119.21 L 176.90,119.45 L 175.24,120.03 L 174.33,120.49 L 170.59,121.59 L 167.69,121.87 L 166.19,121.79 L 163.54,121.51 L 163.98,121.49 L 166.90,121.02 L 168.68,120.68 L 171.68,119.86 L 173.12,119.41 L 175.68,118.23 L 176.95,117.59 L 179.43,115.88 L 183.43,112.52 L 184.20,111.81 L 185.55,110.69 L 186.19,110.18 L 187.28,109.45 L 187.79,109.13 L 188.61,108.79 L 188.98,108.66 L 189.50,108.70 L 189.73,108.77 L 189.95,109.19 L 190.02,109.44 L 189.94,110.24 L 189.85,110.68 L 189.43,111.84 L 188.43,114.00 L 187.79,115.24 L 186.57,117.62 L 186.30,118.16 L 185.84,119.06 L 185.38,120.00 L 185.28,120.21 L 184.54,121.18 L 184.09,121.74 L 182.77,123.28 L 182.06,124.10 L 180.34,126.01 L 177.50,129.07 L 176.51,130.11 L 174.60,132.26 L 173.68,133.32 L 172.02,135.34 L 171.24,136.32 L 170.03,137.98 L 168.92,139.82 L 168.53,140.69 L 167.71,142.06 L 167.52,142.35 L 167.17,142.75 L 166.78,143.00 L 166.67,143.00 L 166.25,143.41 L 166.01,143.68 L 165.38,144.54 L 165.04,145.02 L 164.27,146.21 L 163.04,148.25 L 162.25,149.63 L 160.98,152.60 L 160.41,154.08 L 159.63,156.98 L 159.31,158.38 L 159.10,160.86 L 159.09,161.44 L 159.19,162.46 L 159.52,163.74 L 159.63,163.98 L 159.83,164.70 L 159.93,165.09 L 160.11,166.01 L 160.47,169.00 L 160.50,169.52 L 160.80,170.86 L 160.97,171.57 L 161.51,173.19 L 162.10,174.85 L 163.73,178.42 L 164.15,179.28 L 165.02,180.90 L 165.46,181.68 L 166.31,183.02 L 166.72,183.64 L 167.49,184.57 L 168.45,185.34 L 168.88,185.51 L 169.54,186.37 L 170.00,188.01 L 170.00,188.29 L 170.16,189.12 L 170.26,189.57 L 170.59,190.62 L 172.00,194.00 L 172.55,195.08 L 173.41,197.07 L 173.59,197.52 L 173.84,198.25 L 174.00,198.96 L 174.00,199.25 L 173.81,199.65 L 173.69,199.83 L 173.27,200.00 L 173.03,200.05 L 172.41,200.00 L 172.07,199.95 L 171.26,199.68 L 170.41,199.36 L 168.26,198.11 L 167.12,197.39 L 164.53,195.40 L 162.64,193.86 L 159.08,190.56 L 157.34,188.88 L 154.09,185.31 L 152.50,183.49 L 149.57,179.67 L 148.15,177.74 L 145.56,173.70 L 144.30,171.66 L 142.06,167.42 L 140.99,165.29 L 139.11,160.88 L 138.22,158.66 L 136.73,154.11 L 134.95,147.14 L 134.72,146.05 L 134.33,144.10 L 134.15,143.15 L 133.86,141.41 L 133.58,139.70 L 133.28,136.54 L 133.17,134.94 L 133.14,131.46 L 133.15,130.54 L 133.21,128.52 L 133.36,125.14 L 133.45,123.54 L 133.65,120.32 L 133.75,118.74 L 133.97,115.82 L 134.08,114.42 L 134.30,112.12 L 134.35,111.60 L 134.45,110.74 L 134.59,109.75 L 134.76,108.72 L 134.78,107.11 L 134.76,106.77 L 134.70,106.52 M 160.39,53.06 L 160.46,53.12 L 160.35,53.91 L 160.25,54.40 L 159.87,55.89 L 159.65,56.70 L 159.04,58.69 L 157.94,62.02 L 157.61,62.99 L 156.87,65.23 L 156.50,66.39 L 155.73,68.89 L 154.95,71.42 L 153.47,76.56 L 153.12,77.79 L 152.49,80.08 L 152.19,81.19 L 151.71,83.09 L 151.52,83.84 L 151.53,82.05 L 151.52,80.89 L 151.48,78.63 L 151.43,77.66 L 151.32,75.85 L 151.24,75.20 L 151.07,74.11 L 150.95,73.92 L 150.38,73.81 L 149.82,74.17 L 149.47,74.51 L 148.74,75.31 L 148.35,75.82 L 147.54,76.92 L 147.14,77.54 L 145.56,80.17 L 144.98,81.43 L 144.45,82.67 L 144.29,83.21 L 144.02,84.22 L 144.02,84.60 L 143.81,85.63 L 143.50,86.45 L 143.27,86.88 L 142.19,88.66 L 141.50,89.41 L 139.73,91.87 L 139.32,92.69 L 139.20,93.05 L 139.00,93.74 L 139.00,94.00 L 138.63,95.58 L 138.08,96.48 L 137.73,96.70 L 136.30,98.07 L 135.24,99.45 L 134.75,100.21 L 133.82,101.76 L 133.51,102.45 L 133.00,103.72 L 133.00,104.10 L 133.50,105.30 L 134.14,106.07 L 133.68,106.44 L 133.39,106.71 L 132.63,107.60 L 132.22,108.09 L 131.29,109.34 L 130.82,110.00 L 129.79,111.51 L 128.76,113.06 L 126.69,116.49 L 124.15,121.29 L 123.48,122.76 L 122.33,125.77 L 121.78,127.29 L 120.91,130.36 L 120.50,131.90 L 119.89,135.01 L 119.62,136.57 L 119.27,139.71 L 118.99,142.85 L 119.20,149.12 L 119.43,152.25 L 120.63,158.40 L 121.36,161.44 L 123.53,167.32 L 124.74,170.21 L 127.85,175.67 L 128.68,177.00 L 130.51,179.57 L 131.46,180.83 L 133.52,183.25 L 134.57,184.43 L 136.85,186.68 L 140.50,189.84 L 141.60,190.71 L 143.91,192.53 L 144.46,192.96 L 145.41,193.71 L 146.50,194.57 L 146.97,194.94 L 147.53,195.43 L 147.74,195.63 L 147.70,195.81 L 147.60,195.87 L 146.90,195.78 L 145.00,195.42 L 144.04,195.22 L 141.72,194.91 L 138.74,194.70 L 137.91,194.70 L 136.81,194.37 L 136.59,194.27 L 136.33,193.99 L 136.24,193.49 L 136.27,193.32 L 135.82,192.49 L 135.51,192.00 L 134.48,190.67 L 133.90,189.96 L 132.42,188.29 L 129.87,185.62 L 128.42,184.16 L 125.81,181.19 L 124.55,179.69 L 122.32,176.62 L 121.26,175.07 L 119.41,171.87 L 118.53,170.26 L 117.05,166.92 L 116.36,165.23 L 115.24,161.73 L 114.72,159.95 L 113.95,156.26 L 113.61,154.39 L 113.19,150.50 L 112.92,144.40 L 112.92,141.94 L 113.13,137.42 L 113.28,135.21 L 113.85,131.14 L 114.19,129.15 L 115.16,125.41 L 115.70,123.57 L 117.12,120.04 L 117.89,118.30 L 119.81,114.89 L 120.84,113.19 L 123.31,109.78 L 124.62,108.06 L 127.69,104.54 L 133.02,99.00 L 134.37,97.68 L 136.42,95.48 L 137.36,94.43 L 138.79,92.50 L 139.45,91.54 L 140.50,89.52 L 141.92,86.00 L 142.44,84.52 L 143.84,81.12 L 144.59,79.37 L 146.34,75.64 L 147.24,73.76 L 149.18,69.96 L 150.15,68.08 L 152.12,64.50 L 153.10,62.76 L 154.95,59.67 L 155.85,58.21 L 157.42,55.87 L 157.79,55.35 L 158.46,54.50 L 158.77,54.10 L 159.31,53.53 L 159.57,53.29 L 159.97,53.04 M 116.53,132.00 L 115.54,135.01 L 115.29,135.95 L 115.21,136.35 L 115.09,137.08 L 115.08,137.33 L 115.17,138.27 L 115.38,138.52 L 115.90,138.87 L 116.25,138.76 L 116.77,138.23 L 117.08,137.55 L 117.21,137.08 L 117.45,136.06 L 117.53,135.44 L 117.68,134.14 L 117.71,133.42 L 117.92,128.50 M 119.63,121.63 L 119.37,121.95 L 119.18,122.32 L 118.75,123.20 L 118.46,123.86 L 117.43,126.35 L 117.19,126.98 L 117.12,127.20 L 117.00,127.56 L 117.00,127.61 L 117.10,127.82 L 117.26,127.89 L 117.65,128.00 L 117.89,128.00 L 118.70,127.56 L 119.18,126.88 L 119.37,126.38 L 119.72,125.31 L 119.82,124.68 L 119.97,123.37 L 119.96,122.67 L 119.88,121.76 L 119.74,121.54 M 157.54,119.03 L 156.95,118.54 L 156.04,117.60 L 156.04,117.60 M 172.17,84.91 L 176.26,85.22 L 177.25,85.32 L 179.10,85.56 L 180.00,85.69 L 181.55,86.00 L 182.27,86.16 L 183.38,86.51 L 184.41,87.07 L 184.61,87.29 L 184.68,87.59 L 184.65,87.71 L 184.20,87.83 L 183.91,87.87 L 182.88,87.81 L 180.61,87.53 L 180.01,87.45 L 179.03,87.32 L 178.57,87.26 L 177.85,87.18 L 177.18,87.12 L 176.47,87.24 L 176.20,87.34 L 176.12,87.85 L 176.43,89.17 L 177.09,91.37 L 177.68,95.50 L 177.76,96.50 L 177.76,98.41 L 177.73,99.35 L 177.49,101.11 L 177.35,101.97 L 176.88,103.55 L 176.62,104.32 L 175.93,105.70 L 175.55,106.37 L 174.64,107.52 L 173.02,108.98 L 172.18,109.59 L 170.58,110.37 L 169.79,110.68 L 168.21,110.90 L 167.41,110.94 L 165.73,110.61 L 162.97,109.48 L 161.99,108.98 L 160.38,107.55 L 159.64,106.77 L 158.51,104.81 L 158.01,103.76 L 157.38,101.30 L 157.00,97.05 L 157.00,95.99 L 156.93,94.47 L 156.88,93.80 L 156.85,93.67 L 157.13,94.62 L 157.36,95.01 L 157.61,95.35 L 157.73,95.43 L 157.99,95.51 L 158.11,95.43 L 158.46,95.45 L 158.66,95.70 L 158.74,95.92 L 159.00,97.05 L 159.00,97.88 L 159.30,101.06 L 159.80,102.93 L 160.20,103.73 L 161.08,105.24 L 161.67,105.85 L 162.93,106.99 L 163.70,107.40 L 165.17,108.22 L 165.65,108.46 L 166.49,108.81 L 166.87,108.82 L 167.64,108.73 L 168.19,108.53 L 168.78,108.29 L 169.15,108.13 L 169.95,107.79 L 170.45,107.59 L 172.99,106.73 L 173.65,106.60 L 173.88,106.59 L 174.27,106.61 L 174.34,106.68 L 174.60,106.49 L 174.80,106.01 L 174.92,105.61 L 175.14,104.73 L 175.26,104.18 L 175.48,103.01 L 175.58,102.34 L 176.05,97.81 L 176.23,94.59 L 176.24,93.10 L 176.24,91.66 L 176.22,91.01 L 176.17,89.78 L 176.13,89.27 L 176.03,88.34 L 175.96,88.02 L 175.81,87.47 L 175.71,87.38 L 174.94,87.14 L 173.98,87.02 L 173.34,86.98 L 171.95,86.92 L 171.14,86.90 L 169.48,86.88 L 168.60,86.89 L 165.01,86.97 L 163.43,87.08 L 161.90,87.20 L 161.28,87.27 L 160.13,87.43 L 159.75,87.53 L 157.77,88.35 L 156.80,89.07 L 156.68,89.40 L 156.46,91.22 L 156.59,92.67 L 156.64,92.87 L 156.52,92.57 L 156.10,92.19 L 155.15,92.00 L 154.30,92.00 L 152.90,92.60 L 152.26,93.01 L 151.29,94.42 L 150.86,95.22 L 150.32,97.43 L 150.00,101.63 L 150.00,103.47 L 150.61,107.10 L 151.01,108.89 L 152.25,112.03 L 151.35,110.40 L 150.83,109.12 L 150.36,107.88 L 150.22,107.33 L 150.00,106.28 L 150.00,105.86 L 149.71,104.45 L 149.28,103.67 L 149.00,103.50 L 148.29,102.49 L 148.00,101.47 L 148.00,100.94 L 148.29,99.57 L 148.72,99.00 L 149.00,99.00 L 149.71,98.46 L 150.00,97.67 L 150.00,97.17 L 150.20,95.67 L 150.49,94.84 L 150.67,94.66 L 151.00,93.56 L 151.18,92.16 L 151.25,91.23 L 151.38,89.22 L 151.42,88.07 L 151.46,86.86 L 151.49,86.87 L 151.68,86.89 L 152.25,86.89 L 152.58,86.88 L 153.48,86.80 L 153.98,86.75 L 155.28,86.59 L 155.98,86.50 L 157.73,86.26 L 158.67,86.13 L 160.94,85.79 L 165.00,85.17 L 165.70,85.07 L 167.39,84.95 L 168.27,84.90 L 170.20,84.89 Z" fill="rgba(142,55,68,1)"/>
<path d="M 150.95,73.92 L 151.07,74.11 L 151.24,75.20 L 151.32,75.85 L 151.43,77.66 L 151.48,78.63 L 151.52,80.89 L 151.53,82.05 L 151.51,84.49 L 151.50,85.71 L 151.42,88.07 L 151.38,89.22 L 151.25,91.23 L 151.18,92.16 L 151.00,93.56 L 150.67,94.66 L 150.49,94.84 L 150.20,95.67 L 150.00,97.17 L 150.00,97.67 L 149.71,98.46 L 149.00,99.00 L 148.72,99.00 L 148.29,99.57 L 148.00,100.94 L 148.00,101.47 L 148.29,102.49 L 149.00,103.50 L 149.28,103.67 L 149.71,104.45 L 150.00,105.86 L 150.00,106.28 L 150.22,107.33 L 150.36,107.88 L 150.83,109.12 L 151.35,110.40 L 152.90,113.20 L 153.72,114.58 L 155.57,117.04 L 156.04,117.60 L 156.95,118.54 L 158.23,119.60 L 159.23,120.24 L 161.84,121.11 L 163.20,121.48 L 166.19,121.79 L 167.69,121.87 L 170.59,121.59 L 174.33,120.49 L 175.24,120.03 L 176.90,119.45 L 177.70,119.21 L 179.03,119.06 L 179.63,119.03 L 180.47,119.32 L 180.99,120.25 L 180.99,120.62 L 180.56,121.73 L 180.27,122.33 L 179.29,123.88 L 178.74,124.69 L 177.25,126.62 L 174.50,129.87 L 173.67,130.80 L 171.56,133.17 L 171.04,133.76 L 170.04,134.89 L 168.72,136.37 L 168.34,136.80 L 167.47,137.94 L 167.03,138.54 L 166.13,139.90 L 163.79,144.00 L 163.20,145.24 L 162.05,147.33 L 161.79,147.78 L 161.35,148.46 L 160.90,149.01 L 160.79,149.08 L 160.48,149.75 L 160.31,150.16 L 159.90,151.40 L 159.69,152.07 L 159.24,153.69 L 158.56,156.41 L 158.38,157.19 L 158.08,158.54 L 157.94,159.18 L 157.74,160.30 L 157.56,161.38 L 157.46,163.17 L 157.46,164.05 L 157.72,165.90 L 158.52,169.37 L 158.95,171.04 L 160.22,174.31 L 160.55,175.06 L 161.22,176.32 L 162.14,177.65 L 162.71,178.26 L 163.44,179.46 L 163.58,179.74 L 163.71,180.22 L 163.66,180.74 L 163.59,180.86 L 163.68,181.53 L 163.76,181.92 L 164.12,183.03 L 164.33,183.62 L 164.91,185.02 L 165.98,187.30 L 166.36,188.04 L 166.96,189.31 L 167.24,189.90 L 167.65,190.88 L 167.83,191.34 L 168.03,192.06 L 168.11,192.39 L 168.12,192.86 L 168.10,193.07 L 167.90,193.32 L 167.77,193.42 L 167.37,193.47 L 167.14,193.47 L 166.52,193.34 L 166.19,193.25 L 165.37,192.96 L 165.15,192.87 L 164.58,192.54 L 164.28,192.35 L 163.56,191.81 L 162.81,191.22 L 160.88,189.46 L 159.86,188.49 L 157.47,186.03 L 153.47,181.66 L 153.25,181.42 L 152.49,180.42 L 152.07,179.85 L 151.00,178.33 L 150.43,177.53 L 149.16,175.67 L 148.51,174.71 L 147.15,172.68 L 145.79,170.64 L 143.29,166.77 L 142.72,165.88 L 141.79,164.37 L 140.80,162.67 L 140.33,161.80 L 139.58,159.81 L 139.42,159.33 L 139.20,158.45 L 139.05,157.38 L 139.04,157.08 L 138.91,156.21 L 138.82,155.73 L 138.56,154.59 L 137.45,150.88 L 137.25,150.31 L 136.89,148.46 L 136.71,147.44 L 136.41,144.82 L 136.27,143.43 L 136.03,140.23 L 135.92,138.58 L 135.75,135.01 L 135.61,131.38 L 135.57,123.83 L 135.59,121.98 L 135.69,118.46 L 135.97,113.65 L 136.06,112.46 L 136.13,110.68 L 136.14,109.87 L 136.01,108.70 L 135.92,108.17 L 135.56,107.41 L 134.72,106.54 L 134.25,106.19 L 133.50,105.30 L 133.00,104.10 L 133.00,103.72 L 133.51,102.45 L 133.82,101.76 L 134.75,100.21 L 135.24,99.45 L 136.30,98.07 L 137.73,96.70 L 138.08,96.48 L 138.63,95.58 L 139.00,94.00 L 139.00,93.74 L 139.20,93.05 L 139.32,92.69 L 139.73,91.87 L 141.50,89.41 L 142.19,88.66 L 143.27,86.88 L 143.50,86.45 L 143.81,85.63 L 144.02,84.60 L 144.02,84.22 L 144.29,83.21 L 144.45,82.67 L 144.98,81.43 L 145.56,80.17 L 147.14,77.54 L 147.54,76.92 L 148.35,75.82 L 148.74,75.31 L 149.47,74.51 L 149.82,74.17 L 150.38,73.81 M 147.07,86.99 L 145.91,87.54 L 145.31,88.17 L 144.11,89.67 L 143.60,90.75 L 142.68,92.58 L 141.90,94.03 L 141.47,94.80 L 139.64,97.95 L 138.81,99.26 L 137.84,100.80 L 137.32,101.65 L 137.13,102.01 L 136.51,103.25 L 136.42,103.73 L 136.40,104.61 L 136.58,105.06 L 137.08,105.99 L 137.49,106.63 L 138.37,108.27 L 138.69,109.39 L 138.72,110.12 L 138.71,111.72 L 138.58,112.86 L 138.43,114.07 L 138.33,114.79 L 138.11,116.30 L 137.97,117.19 L 137.27,123.74 L 137.10,128.26 L 137.15,130.56 L 137.33,135.16 L 137.56,137.45 L 138.09,142.02 L 138.47,144.26 L 139.33,148.68 L 139.87,150.79 L 141.03,154.95 L 141.71,156.89 L 143.15,160.66 L 143.97,162.36 L 145.68,165.64 L 146.62,167.05 L 148.32,169.66 L 149.32,171.24 L 149.71,171.90 L 150.43,173.13 L 150.65,173.56 L 151.00,174.27 L 151.00,174.37 L 151.28,175.30 L 151.71,176.16 L 152.02,176.67 L 153.51,178.88 L 154.43,180.04 L 156.33,182.34 L 157.20,183.23 L 158.05,184.05 L 158.42,184.35 L 159.10,184.85 L 159.34,184.94 L 160.28,185.23 L 160.66,185.26 L 161.36,185.25 L 161.62,185.14 L 162.08,184.87 L 162.22,184.64 L 162.45,184.15 L 162.47,183.83 L 162.45,183.14 L 162.35,182.75 L 162.09,181.92 L 161.87,181.47 L 160.72,179.56 L 159.78,178.53 L 158.82,177.24 L 158.21,176.16 L 157.92,175.53 L 156.84,172.76 L 156.40,171.13 L 155.62,167.74 L 155.38,165.95 L 155.00,162.33 L 155.00,160.57 L 155.21,157.40 L 155.56,155.29 L 155.85,154.21 L 156.51,152.05 L 156.96,150.92 L 157.97,148.65 L 158.60,147.45 L 159.97,145.01 L 160.81,143.72 L 162.58,141.06 L 163.62,139.63 L 165.82,136.71 L 167.09,135.13 L 169.74,131.88 L 171.25,130.11 L 173.90,126.74 L 174.51,125.84 L 174.70,125.51 L 175.00,124.93 L 175.00,124.81 L 174.55,124.50 L 173.84,124.37 L 173.31,124.35 L 172.16,124.34 L 171.45,124.37 L 169.95,124.47 L 169.12,124.57 L 163.91,124.74 L 162.33,124.63 L 161.64,124.52 L 160.33,124.27 L 159.81,124.10 L 157.83,123.23 L 156.49,122.43 L 155.82,121.94 L 153.16,119.75 L 151.97,118.43 L 149.71,115.67 L 148.86,114.23 L 148.07,112.79 L 147.77,112.08 L 147.23,110.67 L 147.08,110.00 L 146.28,105.02 L 146.06,101.72 L 146.11,100.21 L 146.29,97.32 L 146.53,96.18 L 146.79,95.09 L 146.96,94.65 L 147.32,93.84 L 147.53,93.56 L 148.57,91.51 L 149.00,89.94 L 149.00,89.31 L 148.85,88.11 L 148.62,87.52 L 148.44,87.33 L 148.06,87.02 L 147.83,86.97 L 147.34,86.92 M 117.71,133.42 L 117.68,134.14 L 117.53,135.44 L 117.45,136.06 L 117.21,137.08 L 117.08,137.55 L 116.77,138.23 L 116.25,138.76 L 115.90,138.87 L 115.38,138.52 L 115.17,138.27 L 115.08,137.33 L 115.09,137.08 L 115.21,136.35 L 115.29,135.95 L 115.54,135.01 L 116.53,132.00 L 117.92,128.50 M 119.88,121.76 L 119.96,122.67 L 119.97,123.37 L 119.82,124.68 L 119.72,125.31 L 119.37,126.38 L 119.18,126.88 L 118.70,127.56 L 117.89,128.00 L 117.65,128.00 L 117.26,127.89 L 117.10,127.82 L 117.00,127.61 L 117.00,127.56 L 117.12,127.20 L 117.19,126.98 L 117.43,126.35 L 118.46,123.86 L 118.75,123.20 L 119.18,122.32 L 119.37,121.95 L 119.63,121.63 L 119.74,121.54 M 171.14,86.90 L 171.95,86.92 L 173.34,86.98 L 173.98,87.02 L 174.94,87.14 L 175.71,87.38 L 175.81,87.47 L 175.96,88.02 L 176.03,88.34 L 176.13,89.27 L 176.17,89.78 L 176.22,91.01 L 176.24,91.66 L 176.24,93.10 L 176.23,94.59 L 176.05,97.81 L 175.58,102.34 L 175.48,103.01 L 175.26,104.18 L 175.14,104.73 L 174.92,105.61 L 174.80,106.01 L 174.60,106.49 L 174.34,106.68 L 174.27,106.61 L 173.88,106.59 L 173.65,106.60 L 172.99,106.73 L 170.45,107.59 L 169.95,107.79 L 169.15,108.13 L 168.78,108.29 L 168.19,108.53 L 167.64,108.73 L 166.87,108.82 L 166.49,108.81 L 165.65,108.46 L 165.17,108.22 L 163.70,107.40 L 162.93,106.99 L 161.67,105.85 L 161.08,105.24 L 160.20,103.73 L 159.80,102.93 L 159.30,101.06 L 159.00,97.88 L 159.00,97.05 L 158.74,95.92 L 158.66,95.70 L 158.46,95.45 L 158.11,95.43 L 157.99,95.51 L 157.73,95.43 L 157.61,95.35 L 157.36,95.01 L 157.13,94.62 L 156.75,93.35 L 156.59,92.67 L 156.46,91.22 L 156.68,89.40 L 156.80,89.07 L 157.77,88.35 L 159.75,87.53 L 160.13,87.43 L 161.28,87.27 L 161.90,87.20 L 163.43,87.08 L 165.01,86.97 L 168.60,86.89 L 169.48,86.88 M 165.16,88.63 L 163.36,88.89 L 162.38,89.16 L 160.21,89.80 L 159.40,90.16 L 159.26,90.40 L 159.12,90.96 L 159.25,91.40 L 159.62,92.42 L 159.94,93.20 L 160.35,94.40 L 160.64,95.39 L 160.78,95.94 L 161.32,98.26 L 161.49,99.31 L 162.50,102.56 L 162.99,103.57 L 163.25,104.00 L 163.79,104.79 L 164.06,105.06 L 165.04,105.93 L 165.54,106.22 L 166.53,106.69 L 167.03,106.79 L 168.00,106.89 L 168.47,106.80 L 169.39,106.55 L 169.82,106.29 L 170.65,105.69 L 171.03,105.27 L 171.75,104.35 L 172.05,103.77 L 172.62,102.55 L 172.84,101.83 L 173.23,100.33 L 173.35,99.47 L 173.54,96.50 L 173.41,94.74 L 173.24,93.97 L 172.80,92.51 L 172.47,91.90 L 171.73,90.76 L 171.26,90.31 L 170.24,89.50 L 169.62,89.23 L 168.33,88.76 L 167.58,88.66 L 166.03,88.55 Z" fill="rgba(171,49,64,1)"/>
<path d="M 159.34,184.94 L 159.10,184.85 L 158.42,184.35 L 158.05,184.05 L 157.20,183.23 L 156.33,182.34 L 154.43,180.04 L 153.51,178.88 L 152.02,176.67 L 151.71,176.16 L 151.28,175.30 L 151.00,174.37 L 151.00,174.27 L 150.65,173.56 L 150.43,173.13 L 149.71,171.90 L 149.32,171.24 L 148.32,169.66 L 146.62,167.05 L 145.68,165.64 L 143.97,162.36 L 143.15,160.66 L 141.71,156.89 L 141.03,154.95 L 139.87,150.79 L 139.33,148.68 L 138.47,144.26 L 138.09,142.02 L 137.56,137.45 L 137.33,135.16 L 137.15,130.56 L 137.10,128.26 L 137.27,123.74 L 137.97,117.19 L 138.11,116.30 L 138.33,114.79 L 138.43,114.07 L 138.58,112.86 L 138.71,111.72 L 138.72,110.12 L 138.69,109.39 L 138.37,108.27 L 137.49,106.63 L 137.08,105.99 L 136.58,105.06 L 136.40,104.61 L 136.42,103.73 L 136.51,103.25 L 137.13,102.01 L 137.32,101.65 L 137.84,100.80 L 138.81,99.26 L 139.64,97.95 L 141.47,94.80 L 141.90,94.03 L 142.68,92.58 L 143.60,90.75 L 144.11,89.67 L 145.31,88.17 L 145.91,87.54 L 147.07,86.99 L 147.34,86.92 L 147.83,86.97 L 148.06,87.02 L 148.44,87.33 L 148.62,87.52 L 148.85,88.11 L 149.00,89.31 L 149.00,89.94 L 148.57,91.51 L 147.53,93.56 L 147.32,93.84 L 146.96,94.65 L 146.79,95.09 L 146.53,96.18 L 146.29,97.32 L 146.11,100.21 L 146.06,101.72 L 146.28,105.02 L 147.08,110.00 L 147.23,110.67 L 147.77,112.08 L 148.07,112.79 L 148.86,114.23 L 149.71,115.67 L 151.97,118.43 L 153.16,119.75 L 155.82,121.94 L 156.49,122.43 L 157.83,123.23 L 159.81,124.10 L 160.33,124.27 L 161.64,124.52 L 162.33,124.63 L 163.91,124.74 L 169.12,124.57 L 169.95,124.47 L 171.45,124.37 L 172.16,124.34 L 173.31,124.35 L 173.84,124.37 L 174.55,124.50 L 175.00,124.81 L 175.00,124.93 L 174.70,125.51 L 174.51,125.84 L 173.90,126.74 L 171.25,130.11 L 169.74,131.88 L 167.09,135.13 L 165.82,136.71 L 163.62,139.63 L 162.58,141.06 L 160.81,143.72 L 159.97,145.01 L 158.60,147.45 L 157.97,148.65 L 156.96,150.92 L 156.51,152.05 L 155.85,154.21 L 155.56,155.29 L 155.21,157.40 L 155.00,160.57 L 155.00,162.33 L 155.38,165.95 L 155.62,167.74 L 156.40,171.13 L 156.84,172.76 L 157.92,175.53 L 158.21,176.16 L 158.82,177.24 L 159.78,178.53 L 160.72,179.56 L 161.87,181.47 L 162.09,181.92 L 162.35,182.75 L 162.45,183.14 L 162.47,183.83 L 162.45,184.15 L 162.22,184.64 L 162.08,184.87 L 161.62,185.14 L 161.36,185.25 L 160.66,185.26 L 160.28,185.23 M 164.06,105.06 L 163.79,104.79 L 163.25,104.00 L 162.99,103.57 L 162.50,102.56 L 161.49,99.31 L 161.32,98.26 L 160.78,95.94 L 160.64,95.39 L 160.35,94.40 L 159.94,93.20 L 159.62,92.42 L 159.25,91.40 L 159.12,90.96 L 159.26,90.40 L 159.40,90.16 L 160.21,89.80 L 162.38,89.16 L 163.36,88.89 L 165.16,88.63 L 166.03,88.55 L 167.58,88.66 L 168.33,88.76 L 169.62,89.23 L 170.24,89.50 L 171.26,90.31 L 171.73,90.76 L 172.47,91.90 L 172.80,92.51 L 173.24,93.97 L 173.41,94.74 L 173.54,96.50 L 173.35,99.47 L 173.23,100.33 L 172.84,101.83 L 172.62,102.55 L 172.05,103.77 L 171.75,104.35 L 171.03,105.27 L 170.65,105.69 L 169.82,106.29 L 169.39,106.55 L 168.47,106.80 L 168.00,106.89 L 167.03,106.79 L 166.53,106.69 L 165.54,106.22 L 165.04,105.93 Z" fill="rgba(191,40,60,1)"/>
</g>
</svg>