<svg xmlns="http://www.w3.org/2000/svg" width="32" height="32" viewBox="0 0 32 32" fill="none">
  <path d="M17.3708 2.66699C18.8708 2.67099 19.6321 2.67899 20.2894 2.69766L20.5481 2.70699C20.8468 2.71766 21.1414 2.73099 21.4974 2.74699C22.9161 2.81366 23.8841 3.03766 24.7334 3.36699C25.6135 3.70566 26.3548 4.16433 27.0961 4.90433C27.7741 5.57085 28.2987 6.37711 28.6335 7.26699C28.9628 8.11633 29.1868 9.08433 29.2535 10.5043C29.2695 10.859 29.2828 11.1537 29.2935 11.4537L29.3015 11.7123C29.3215 12.3683 29.3295 13.1297 29.3321 14.6297L29.3335 15.6243V17.371C29.3367 18.3435 29.3265 19.3161 29.3028 20.2883L29.2948 20.547C29.2841 20.847 29.2708 21.1417 29.2548 21.4963C29.1881 22.9163 28.9615 23.883 28.6335 24.7337C28.2997 25.624 27.7749 26.4305 27.0961 27.0963C26.4294 27.7741 25.6232 28.2987 24.7334 28.6337C23.8841 28.963 22.9161 29.187 21.4974 29.2537C21.1811 29.2686 20.8646 29.2819 20.5481 29.2937L20.2894 29.3017C19.6321 29.3203 18.8708 29.3297 17.3708 29.3323L16.3761 29.3337H14.6308C13.6578 29.337 12.6848 29.3268 11.7121 29.303L11.4535 29.295C11.1369 29.283 10.8205 29.2692 10.5041 29.2537C9.08545 29.187 8.11745 28.963 7.26678 28.6337C6.37701 28.2995 5.57107 27.7748 4.90545 27.0963C4.22685 26.43 3.70175 25.6237 3.36678 24.7337C3.03745 23.8843 2.81345 22.9163 2.74678 21.4963C2.73193 21.1799 2.7186 20.8635 2.70678 20.547L2.70012 20.2883C2.67555 19.3161 2.66444 18.3435 2.66678 17.371V14.6297C2.66306 13.6571 2.67284 12.6846 2.69612 11.7123L2.70545 11.4537C2.71612 11.1537 2.72945 10.859 2.74545 10.5043C2.81212 9.08433 3.03612 8.11766 3.36545 7.26699C3.70027 6.3762 4.22641 5.56969 4.90678 4.90433C5.57224 4.22629 6.37764 3.70164 7.26678 3.36699C8.11745 3.03766 9.08412 2.81366 10.5041 2.74699C10.8588 2.73099 11.1548 2.71766 11.4535 2.70699L11.7121 2.69899C12.6844 2.6753 13.6569 2.66508 14.6295 2.66833L17.3708 2.66699ZM16.0001 9.33366C14.232 9.33366 12.5363 10.036 11.2861 11.2863C10.0358 12.5365 9.33345 14.2322 9.33345 16.0003C9.33345 17.7684 10.0358 19.4641 11.2861 20.7144C12.5363 21.9646 14.232 22.667 16.0001 22.667C17.7682 22.667 19.4639 21.9646 20.7142 20.7144C21.9644 19.4641 22.6668 17.7684 22.6668 16.0003C22.6668 14.2322 21.9644 12.5365 20.7142 11.2863C19.4639 10.036 17.7682 9.33366 16.0001 9.33366ZM16.0001 12.0003C16.5254 12.0002 17.0456 12.1036 17.5309 12.3046C18.0162 12.5055 18.4572 12.8001 18.8287 13.1714C19.2002 13.5428 19.4949 13.9837 19.696 14.469C19.8971 14.9542 20.0007 15.4744 20.0008 15.9997C20.0009 16.5249 19.8975 17.0451 19.6966 17.5304C19.4956 18.0158 19.2011 18.4568 18.8297 18.8283C18.4583 19.1998 18.0174 19.4945 17.5321 19.6956C17.0469 19.8967 16.5267 20.0002 16.0015 20.0003C14.9406 20.0003 13.9232 19.5789 13.173 18.8288C12.4229 18.0786 12.0015 17.0612 12.0015 16.0003C12.0015 14.9395 12.4229 13.922 13.173 13.1719C13.9232 12.4218 14.9406 12.0003 16.0015 12.0003M23.0014 7.33366C22.5594 7.33366 22.1355 7.50925 21.8229 7.82181C21.5104 8.13438 21.3348 8.5583 21.3348 9.00033C21.3348 9.44235 21.5104 9.86628 21.8229 10.1788C22.1355 10.4914 22.5594 10.667 23.0014 10.667C23.4435 10.667 23.8674 10.4914 24.18 10.1788C24.4925 9.86628 24.6681 9.44235 24.6681 9.00033C24.6681 8.5583 24.4925 8.13438 24.18 7.82181C23.8674 7.50925 23.4435 7.33366 23.0014 7.33366Z" fill="url(#paint0_linear_1938_299)"/>
  <defs>
    <linearGradient id="paint0_linear_1938_299" x1="29.0001" y1="3" x2="3.00013" y2="29" gradientUnits="userSpaceOnUse">
      <stop stop-color="#FDD590"/>
      <stop offset="0.53" stop-color="#FA5B40"/>
      <stop offset="1" stop-color="#3C47D1"/>
    </linearGradient>
  </defs>
</svg>