<svg xmlns="http://www.w3.org/2000/svg" width="33" height="32" viewBox="0 0 33 32" fill="none">
  <path d="M30.2798 7.99967C29.2531 8.46634 28.1465 8.77301 26.9998 8.91967C28.1731 8.21301 29.0798 7.09301 29.5065 5.74634C28.3998 6.41301 27.1731 6.87967 25.8798 7.14634C24.8265 5.99967 23.3465 5.33301 21.6665 5.33301C18.5331 5.33301 15.9731 7.89301 15.9731 11.053C15.9731 11.5063 16.0265 11.9463 16.1198 12.3597C11.3731 12.1197 7.14647 9.83967 4.33314 6.38634C3.83981 7.22634 3.55981 8.21301 3.55981 9.25301C3.55981 11.2397 4.55981 12.9997 6.10647 13.9997C5.15981 13.9997 4.27981 13.733 3.50647 13.333V13.373C3.50647 16.1463 5.47981 18.4663 8.09314 18.9863C7.25411 19.216 6.37327 19.2479 5.51981 19.0797C5.88195 20.2163 6.59119 21.2109 7.54783 21.9236C8.50447 22.6363 9.6604 23.0313 10.8531 23.053C8.83131 24.6536 6.32514 25.5188 3.74647 25.5063C3.29314 25.5063 2.83981 25.4797 2.38647 25.4263C4.91981 27.053 7.93314 27.9997 11.1598 27.9997C21.6665 27.9997 27.4398 19.2797 27.4398 11.7197C27.4398 11.4663 27.4398 11.2263 27.4265 10.973C28.5465 10.173 29.5065 9.15967 30.2798 7.99967Z" fill="#1CA6D5"/>
</svg>