<svg xmlns="http://www.w3.org/2000/svg" width="110" height="38" viewBox="0 0 110 38" fill="none">
  <path d="M60.3032 8.23049C60.3032 10.6735 60.3392 13.1165 60.2902 15.5595C60.3001 17.2216 59.8168 18.8492 58.9012 20.2365C57.8197 21.7939 56.1661 22.8605 54.3012 23.2035C51.9586 23.7818 49.4908 23.5749 47.2772 22.6145C46.4682 22.2579 45.7379 21.7445 45.1286 21.1039C44.5193 20.4633 44.043 19.7083 43.7272 18.8825C43.2498 17.6463 43.0165 16.3294 43.0402 15.0045C43.0402 10.2452 43.0376 5.48582 43.0322 0.726487C43.0322 0.463487 43.1142 0.397487 43.3832 0.400487C44.6392 0.412487 45.8952 0.400487 47.1492 0.400487C47.5542 0.400487 47.5572 0.400487 47.5572 0.782487C47.5572 5.38249 47.5492 9.98949 47.5672 14.5935C47.5524 15.2762 47.6247 15.958 47.7822 16.6225C47.9445 17.2954 48.3191 17.8983 48.8505 18.3419C49.382 18.7854 50.0421 19.0462 50.7332 19.0855C51.7723 19.268 52.842 19.1472 53.8142 18.7375C54.29 18.5234 54.7059 18.1958 55.0255 17.7835C55.3451 17.3711 55.5586 16.8866 55.6472 16.3725C55.7467 15.8646 55.7939 15.3479 55.7882 14.8305C55.7982 10.1685 55.7999 5.50649 55.7932 0.844487C55.7932 0.401487 55.7932 0.401487 56.2602 0.401487H59.9032C60.3112 0.401487 60.3132 0.401487 60.3132 0.779487V8.22549C60.3132 8.22549 60.3082 8.23049 60.3032 8.23049Z" fill="#003399"/>
  <path d="M67.2883 21.4594C67.2883 21.9414 67.2833 22.4704 67.2883 22.9964C67.2883 23.1844 67.2272 23.2544 67.0242 23.2544C65.6962 23.2544 64.3683 23.2474 63.0403 23.2544C62.8403 23.2544 62.7533 23.1914 62.7683 23.0014C62.7733 22.9334 62.7683 22.8654 62.7683 22.8014V0.865391C62.7683 0.324391 62.7683 0.407391 63.2533 0.407391C64.4783 0.407391 65.7043 0.414391 66.9263 0.400391C67.2083 0.400391 67.2933 0.476391 67.2903 0.746391C67.2803 3.33539 67.2852 5.92739 67.2852 8.51639V8.88439C67.3289 8.85306 67.3691 8.81719 67.4052 8.77739C67.889 8.09588 68.5362 7.54687 69.2875 7.18079C70.0388 6.81472 70.87 6.64332 71.7049 6.68235C72.5397 6.72137 73.3513 6.96958 74.0651 7.40415C74.779 7.83872 75.3722 8.44572 75.7902 9.16939C76.3719 10.1552 76.7077 11.2665 76.7692 12.4094C76.8282 14.2094 76.8482 16.0244 76.7642 17.8264C76.7204 19.3001 76.165 20.7126 75.1933 21.8214C74.3456 22.7384 73.1985 23.3228 71.9583 23.4694C70.7182 23.6161 69.4664 23.3154 68.4282 22.6214C68.0198 22.263 67.6387 21.8746 67.2883 21.4594ZM72.4053 15.0944H72.3613C72.3613 14.7024 72.3693 14.3124 72.3613 13.9204C72.3777 13.3039 72.2649 12.6907 72.0303 12.1204C71.7905 11.6152 71.3861 11.2066 70.8835 10.9615C70.3809 10.7164 69.8099 10.6493 69.2642 10.7714C68.7601 10.7995 68.2843 11.014 67.9295 11.3732C67.5747 11.7325 67.3661 12.2109 67.3443 12.7154C67.2703 14.3424 67.3063 15.9764 67.3593 17.6064C67.4044 17.9982 67.568 18.367 67.8282 18.6634C68.149 19.0192 68.5651 19.2756 69.0272 19.4022C69.4892 19.5287 69.9779 19.5201 70.4353 19.3774C70.9153 19.2903 71.353 19.0469 71.6804 18.6852C72.0077 18.3235 72.2063 17.8637 72.2453 17.3774C72.3663 16.6224 72.3562 15.8554 72.4062 15.0954L72.4053 15.0944Z" fill="#003399"/>
  <path d="M93.0106 15.0861C92.973 16.1974 92.8799 17.3061 92.7316 18.4081C92.5502 19.5886 92.0069 20.6837 91.1767 21.5424C90.3465 22.4011 89.2703 22.981 88.0966 23.2021C86.2978 23.6851 84.3962 23.6249 82.6316 23.0291C81.6012 22.7128 80.6779 22.1188 79.9629 21.3123C79.248 20.5058 78.769 19.5179 78.5785 18.4571C78.4463 17.7665 78.3794 17.0651 78.3785 16.3621C78.3505 15.2001 78.3295 14.0331 78.4015 12.8741C78.4193 11.92 78.6556 10.9828 79.0925 10.1345C79.5294 9.28622 80.1551 8.5495 80.9215 7.98107C81.9664 7.24948 83.1918 6.8182 84.4645 6.73407C85.9797 6.54518 87.518 6.71017 88.9586 7.21606C89.808 7.51187 90.5753 8.00448 91.1978 8.65363C91.8204 9.30278 92.2805 10.09 92.5406 10.9511C92.803 11.752 92.9337 12.5902 92.9275 13.4331V15.0751C92.9548 15.0812 92.9826 15.0849 93.0106 15.0861ZM82.9055 15.0641H82.9106C82.9106 15.7271 82.8875 16.3911 82.9185 17.0541C82.9486 17.5492 83.1325 18.0225 83.4445 18.4081C83.8642 18.8287 84.3949 19.1212 84.9747 19.2515C85.5544 19.3819 86.1592 19.3446 86.7186 19.1441C87.2346 18.9757 87.6821 18.6443 87.9937 18.1998C88.3053 17.7553 88.4642 17.2216 88.4466 16.6791C88.4646 15.6051 88.4796 14.5311 88.4366 13.4561C88.4189 13.0265 88.3124 12.6053 88.1236 12.2191C87.8689 11.7463 87.4752 11.3631 86.9958 11.1213C86.5163 10.8795 85.9741 10.7908 85.4426 10.8671C84.8068 10.849 84.1887 11.0775 83.7176 11.5046C83.2464 11.9318 82.9587 12.5246 82.9145 13.1591C82.8715 13.7921 82.9045 14.4311 82.9045 15.0641H82.9055Z" fill="#003399"/>
  <path d="M102.92 10.6463C102.43 10.6463 101.969 10.6393 101.508 10.6463C101.298 10.6463 101.218 10.5903 101.221 10.3813C101.228 9.31466 101.228 8.248 101.221 7.18133C101.221 6.98133 101.28 6.89833 101.5 6.90833C101.849 6.92333 102.2 6.90833 102.551 6.90833C102.946 6.90833 102.951 6.90833 102.951 6.51833C102.951 5.18833 102.961 3.85833 102.943 2.53133C102.938 2.23133 103.028 2.15333 103.343 2.15633C104.599 2.17333 105.855 2.16333 107.111 2.16333C107.506 2.16333 107.511 2.16333 107.511 2.55533V6.90833C108.026 6.90833 108.511 6.90833 109.006 6.90833C109.631 6.90833 109.552 6.84033 109.555 7.41533C109.56 8.14867 109.56 8.882 109.555 9.61533C109.555 9.94433 109.655 10.3973 109.473 10.5653C109.291 10.7333 108.814 10.6283 108.473 10.6363C108.168 10.6363 107.86 10.6363 107.517 10.6363V10.9843C107.517 13.2423 107.517 15.5003 107.517 17.7583C107.514 17.9934 107.537 18.228 107.584 18.4583C107.616 18.6502 107.718 18.8233 107.87 18.9441C108.023 19.0648 108.215 19.1244 108.409 19.1113C108.709 19.1213 109.009 19.1213 109.304 19.1113C109.483 19.1113 109.563 19.1603 109.563 19.3453C109.557 20.5973 109.557 21.8483 109.563 23.0983C109.563 23.2393 109.522 23.3203 109.355 23.3153C108.255 23.2783 107.145 23.3323 106.061 23.1883C105.315 23.1329 104.611 22.819 104.071 22.3005C103.532 21.7821 103.19 21.0917 103.105 20.3483C103.017 19.8286 102.97 19.3025 102.967 18.7753C102.954 16.1963 102.962 13.6143 102.959 11.0343C102.946 10.9193 102.931 10.7953 102.92 10.6463Z" fill="#003399"/>
  <path d="M101.49 23.2525C100.29 23.3224 99.0857 23.2749 97.8948 23.1105C97.1795 22.9733 96.5239 22.6188 96.0175 22.0954C95.511 21.5719 95.1783 20.905 95.0648 20.1855C94.9801 19.7639 94.9398 19.3345 94.9448 18.9045C94.9368 12.8538 94.9335 6.8025 94.9349 0.750501C94.9349 0.485501 95.0038 0.399501 95.2938 0.404501C96.5398 0.419501 97.7858 0.404501 99.0318 0.411501C99.4518 0.411501 99.4548 0.411501 99.4548 0.811501V17.4645C99.4548 17.6495 99.4548 17.8375 99.4678 18.0225C99.4719 18.2872 99.5783 18.54 99.7648 18.728C99.9512 18.9159 100.203 19.0243 100.468 19.0305C100.745 19.0556 101.023 19.0636 101.301 19.0545C101.47 19.0545 101.547 19.1085 101.544 19.2715C101.544 20.5428 101.542 21.8135 101.539 23.0835C101.533 23.1275 101.51 23.1745 101.49 23.2525Z" fill="#003399"/>
  <path d="M94.5183 29.978C94.5383 29.766 94.5593 29.554 94.5823 29.345C94.6119 29.3276 94.6439 29.3144 94.6773 29.306C95.2363 29.245 95.2492 29.255 95.2492 29.788C95.2492 31.566 95.2542 33.347 95.2492 35.125C95.2734 35.5118 95.2008 35.8985 95.0379 36.2502C94.8749 36.6018 94.6269 36.9073 94.3163 37.139C93.763 37.4943 93.1043 37.6485 92.4508 37.5757C91.7973 37.5028 91.1887 37.2074 90.7272 36.739C90.4372 36.4 90.8863 36.371 90.9633 36.139C91.2837 36.5484 91.7399 36.8296 92.2496 36.9319C92.7592 37.0343 93.2887 36.9509 93.7423 36.697C94.5653 36.239 94.5243 35.423 94.5013 34.639C94.2543 34.8387 93.986 35.0104 93.7012 35.151C93.4142 35.2965 93.0996 35.3794 92.7781 35.3944C92.4567 35.4094 92.1357 35.3561 91.8363 35.2379C91.537 35.1198 91.2661 34.9396 91.0415 34.7092C90.8169 34.4787 90.6436 34.2033 90.5332 33.901C90.2864 33.3313 90.1722 32.7129 90.1992 32.0926C90.2262 31.4722 90.3938 30.8661 90.6892 30.32C90.8677 30.0116 91.1154 29.7488 91.4128 29.5525C91.7101 29.3562 92.049 29.2316 92.4028 29.1886C92.7565 29.1457 93.1154 29.1855 93.4511 29.305C93.7868 29.4244 94.0902 29.6203 94.3373 29.877C94.3755 29.9232 94.409 29.9731 94.4373 30.026C94.4593 30.006 94.4873 29.989 94.5183 29.978ZM94.5032 32.324C94.5032 32.071 94.5112 31.815 94.5032 31.562C94.5191 31.3203 94.4965 31.0776 94.4363 30.843C94.2908 30.511 94.044 30.2335 93.7314 30.0501C93.4187 29.8667 93.056 29.7869 92.6953 29.822C92.3595 29.8245 92.0333 29.9336 91.7636 30.1337C91.494 30.3338 91.2949 30.6144 91.1953 30.935C90.9368 31.6897 90.8987 32.5024 91.0852 33.278C91.1171 33.526 91.2033 33.7638 91.3376 33.9747C91.4719 34.1855 91.651 34.3642 91.8623 34.4979C92.0735 34.6315 92.3116 34.717 92.5596 34.7481C92.8077 34.7793 93.0595 34.7553 93.2973 34.678C93.6332 34.621 93.9384 34.4478 94.1596 34.1886C94.3808 33.9294 94.5038 33.6007 94.5072 33.26C94.5022 32.943 94.5023 32.631 94.5023 32.32L94.5032 32.324Z" fill="#003399"/>
  <path d="M54.8012 32.3722H54.3732C53.1732 32.3722 51.9662 32.3792 50.7642 32.3722C50.4772 32.3722 50.4152 32.4652 50.4492 32.7182C50.4938 33.2425 50.712 33.7369 51.0692 34.1232C51.2647 34.3588 51.5131 34.5448 51.7942 34.6661C52.0753 34.7873 52.3811 34.8403 52.6866 34.8208C52.9921 34.8013 53.2887 34.7098 53.5521 34.5538C53.8155 34.3978 54.0382 34.1817 54.2022 33.9232C54.4022 34.0722 54.5382 34.1712 54.6942 34.2862C54.4941 34.5962 54.222 34.8531 53.901 35.0351C53.5801 35.2171 53.2199 35.3187 52.8512 35.3312C52.4518 35.3907 52.0441 35.3613 51.6574 35.2451C51.2706 35.1288 50.9143 34.9286 50.6139 34.6588C50.3135 34.3889 50.0763 34.0561 49.9194 33.684C49.7625 33.3119 49.6897 32.9097 49.7062 32.5062C49.6425 31.7071 49.8542 30.9103 50.3062 30.2482C50.6188 29.8157 51.0581 29.491 51.5633 29.319C52.0685 29.147 52.6146 29.1363 53.1262 29.2882C53.5945 29.4383 54.0053 29.7291 54.3025 30.1209C54.5997 30.5128 54.7689 30.9867 54.7872 31.4782C54.8192 31.7562 54.8012 32.0392 54.8012 32.3722ZM54.0762 31.7222C54.1004 31.487 54.0762 31.2493 54.005 31.0238C53.9338 30.7983 53.8172 30.5897 53.6623 30.411C53.5074 30.2323 53.3175 30.0873 53.1044 29.9848C52.8913 29.8823 52.6595 29.8246 52.4232 29.8152C52.1721 29.8137 51.9232 29.8621 51.6908 29.9574C51.4585 30.0527 51.2474 30.1932 51.0697 30.3706C50.892 30.548 50.7512 30.7589 50.6555 30.9911C50.5598 31.2232 50.5111 31.4721 50.5122 31.7232L54.0762 31.7222Z" fill="#003399"/>
  <path d="M99.9016 32.394C99.8681 32.8252 99.9631 33.2566 100.175 33.6338C100.386 34.011 100.705 34.3169 101.091 34.513C101.525 34.7359 102.022 34.8036 102.5 34.7048C102.978 34.6061 103.408 34.3468 103.719 33.97C103.804 34.024 103.881 34.07 103.952 34.119C104.023 34.168 104.078 34.219 104.162 34.287C103.91 34.7054 103.516 35.0192 103.052 35.171C102.647 35.3424 102.207 35.415 101.769 35.3828C101.331 35.3506 100.906 35.2145 100.531 34.9857C100.156 34.7569 99.8403 34.4421 99.6109 34.0672C99.3815 33.6924 99.2446 33.2682 99.2116 32.83C99.0639 31.9271 99.2706 31.0021 99.7886 30.248C100.08 29.8062 100.507 29.4707 101.005 29.2914C101.503 29.1122 102.046 29.0988 102.552 29.2534C103.058 29.408 103.501 29.7222 103.814 30.1491C104.127 30.576 104.293 31.0927 104.289 31.622C104.338 32.375 104.325 32.375 103.546 32.375H100.306C100.187 32.375 100.063 32.387 99.9016 32.394ZM99.9706 31.724H103.555C103.576 31.4938 103.552 31.2615 103.484 31.0407C103.415 30.8199 103.304 30.6148 103.155 30.4375C103.007 30.2601 102.825 30.1139 102.62 30.0074C102.414 29.9009 102.19 29.8362 101.96 29.817C101.703 29.8094 101.448 29.8529 101.209 29.9451C100.969 30.0372 100.751 30.176 100.565 30.3536C100.38 30.5311 100.232 30.7437 100.13 30.9789C100.028 31.2142 99.9738 31.4675 99.9706 31.724Z" fill="#003399"/>
  <path d="M66.7441 35.2298C66.5831 35.2398 66.4521 35.2418 66.3211 35.2538C66.0901 35.2758 66.0211 35.1808 66.0211 34.9638C66.0311 33.8018 66.0261 32.6378 66.0211 31.4758C66.0285 31.3 66.0191 31.1239 65.9931 30.9498C65.9719 30.7496 65.9051 30.5569 65.798 30.3863C65.691 30.2158 65.5463 30.072 65.3752 29.9659C65.2041 29.8598 65.0109 29.7942 64.8106 29.7741C64.6102 29.7539 64.4079 29.7799 64.2191 29.8498C63.8211 29.9319 63.4625 30.1462 63.2018 30.458C62.9411 30.7697 62.7935 31.1606 62.7831 31.5668V35.1888C62.7495 35.2079 62.7144 35.2243 62.6781 35.2378C62.0651 35.3108 62.0551 35.3008 62.0551 34.7238V27.1928C62.0516 27.1166 62.0692 27.0409 62.1061 26.974C62.1429 26.9071 62.1975 26.8518 62.2638 26.814C62.3302 26.7762 62.4056 26.7575 62.4819 26.76C62.5582 26.7624 62.6324 26.7859 62.6961 26.8278C62.7571 26.8618 62.7811 26.9938 62.7811 27.0788C62.7861 27.9968 62.7811 28.9158 62.7811 29.8338V30.1728C62.8581 30.1018 62.9011 30.0728 62.9371 30.0288C63.2506 29.6617 63.6658 29.3957 64.1303 29.2643C64.5948 29.133 65.0878 29.1422 65.5471 29.2908C65.9059 29.4082 66.2158 29.6411 66.4282 29.9532C66.6406 30.2653 66.7436 30.639 66.7211 31.0158C66.7471 32.2748 66.7311 33.5368 66.7341 34.7958C66.7441 34.9318 66.7441 35.0688 66.7441 35.2298Z" fill="#003399"/>
  <path d="M89.1705 32.2836C89.1552 32.9 88.9926 33.5038 88.6965 34.0446C88.495 34.4283 88.1934 34.7502 87.8236 34.9763C87.4539 35.2024 87.0298 35.3241 86.5965 35.3286C86.236 35.3763 85.8695 35.3494 85.5198 35.2493C85.1702 35.1493 84.8449 34.9783 84.5642 34.747C84.2835 34.5158 84.0534 34.2292 83.8883 33.9052C83.7232 33.5811 83.6266 33.2266 83.6045 32.8636C83.4443 32.0057 83.6098 31.119 84.0685 30.3766C84.3437 29.9439 84.7407 29.6022 85.2095 29.3946C85.6784 29.1869 86.1982 29.1226 86.7035 29.2096C87.1951 29.2445 87.665 29.4258 88.0528 29.73C88.4406 30.0342 88.7285 30.4474 88.8795 30.9166C89.0108 31.3643 89.1081 31.8212 89.1705 32.2836ZM88.4425 32.2836C88.3852 31.9195 88.3091 31.5587 88.2145 31.2026C88.1037 30.8168 87.8747 30.4755 87.5596 30.2269C87.2446 29.9782 86.8594 29.8347 86.4585 29.8166C86.0567 29.7813 85.6542 29.8774 85.3116 30.0903C84.969 30.3033 84.7048 30.6216 84.5585 30.9976C84.3812 31.3926 84.2876 31.8201 84.2836 32.2532C84.2796 32.6862 84.3654 33.1153 84.5355 33.5136C84.6842 33.8764 84.9384 34.1862 85.2652 34.4028C85.592 34.6194 85.9764 34.7328 86.3684 34.7284C86.7605 34.724 87.1422 34.6019 87.464 34.378C87.7859 34.1541 88.033 33.8386 88.1735 33.4726C88.2879 33.0829 88.3778 32.6865 88.4425 32.2856V32.2836Z" fill="#003399"/>
  <path d="M80.0757 32.2702C80.0712 33.0587 79.8081 33.8238 79.3267 34.4482C79.0393 34.7659 78.6823 35.0127 78.2837 35.1695C77.8851 35.3262 77.4556 35.3886 77.0289 35.3518C76.6021 35.315 76.1896 35.18 75.8237 34.9573C75.4578 34.7347 75.1484 34.4304 74.9197 34.0682C74.5998 33.5172 74.4337 32.8905 74.4386 32.2534C74.4435 31.6163 74.6193 30.9922 74.9476 30.4462C75.2096 29.9864 75.6092 29.6202 76.0901 29.3992C76.571 29.1782 77.1091 29.1135 77.6286 29.2142C78.1298 29.2538 78.6071 29.4444 78.9976 29.761C79.3881 30.0775 79.6733 30.5051 79.8157 30.9872C79.9312 31.4085 80.0181 31.8372 80.0757 32.2702ZM79.3147 32.1262C79.2709 31.8228 79.2091 31.5223 79.1297 31.2262C79.0227 30.8401 78.7982 30.4969 78.4873 30.2443C78.1763 29.9916 77.7945 29.842 77.3947 29.8162C76.9983 29.7733 76.5987 29.8603 76.2561 30.0641C75.9134 30.2679 75.6462 30.5775 75.4947 30.9462C75.2727 31.3929 75.1656 31.8879 75.183 32.3864C75.2005 32.8849 75.3419 33.3712 75.5946 33.8012C75.76 34.0758 75.9908 34.305 76.2664 34.4685C76.5421 34.632 76.8539 34.7246 77.1741 34.7381C77.4943 34.7515 77.8128 34.6854 78.1012 34.5457C78.3896 34.4059 78.6388 34.1969 78.8267 33.9372C79.1634 33.3949 79.3328 32.7653 79.3137 32.1272L79.3147 32.1262Z" fill="#003399"/>
  <path d="M69.1703 30.1226C69.4478 29.7911 69.803 29.5333 70.2043 29.3722C70.6056 29.2112 71.0405 29.1519 71.4702 29.1996C71.8769 29.208 72.2663 29.3654 72.5645 29.6419C72.8628 29.9184 73.0491 30.2948 73.0883 30.6996C73.1263 30.9982 73.1467 31.2987 73.1493 31.5996C73.1573 32.7126 73.1412 33.8286 73.1592 34.9416C73.1642 35.2336 73.0182 35.2506 72.7852 35.2486C72.5522 35.2466 72.3952 35.2486 72.4012 34.9486C72.4162 33.7576 72.4093 32.5636 72.4063 31.3726C72.4158 31.1677 72.3993 30.9624 72.3572 30.7616C72.2866 30.5478 72.1671 30.3534 72.0083 30.1937C71.8494 30.0341 71.6556 29.9136 71.4422 29.8418C71.2288 29.77 71.0015 29.7489 70.7785 29.7801C70.5555 29.8113 70.3428 29.894 70.1573 30.0216C69.8633 30.1599 69.6157 30.3805 69.4446 30.6567C69.2735 30.9329 69.1862 31.2528 69.1933 31.5776C69.2143 32.6906 69.1883 33.8066 69.2063 34.9196C69.2113 35.2146 69.0803 35.2506 68.8243 35.2556C68.5523 35.2556 68.4473 35.1926 68.4503 34.9126C68.4633 33.1536 68.4553 31.3956 68.4583 29.6366C68.4591 29.5643 68.4795 29.4936 68.5174 29.4319C68.5553 29.3703 68.6091 29.3201 68.6732 29.2867C68.7374 29.2532 68.8094 29.2378 68.8816 29.242C68.9538 29.2462 69.0235 29.2699 69.0833 29.3106C69.1112 29.3358 69.1334 29.3667 69.1484 29.4012C69.1634 29.4357 69.1708 29.473 69.1703 29.5106C69.1753 29.7156 69.1703 29.9206 69.1703 30.1226Z" fill="#003399"/>
  <path d="M43.1319 27.2578H49.4819C49.4899 27.3578 49.4919 27.4498 49.5079 27.5408C49.5459 27.7918 49.4519 27.8838 49.1719 27.8768C48.4619 27.8598 47.7519 27.8768 47.0419 27.8768H46.7009C46.6909 28.0178 46.6729 28.1398 46.6729 28.2618C46.6729 30.4618 46.6729 32.6618 46.6679 34.8618C46.6679 34.9888 46.6419 35.2048 46.5809 35.2218C46.3904 35.2597 46.1944 35.2597 46.0039 35.2218C45.9599 35.2148 45.9169 35.0608 45.9169 34.9738C45.9089 34.3968 45.9119 33.8188 45.9119 33.2448C45.9119 31.5738 45.9039 29.9008 45.9199 28.2298C45.9199 27.9468 45.8429 27.8598 45.5409 27.8688C44.8819 27.8908 44.2229 27.8758 43.5649 27.8758C43.0909 27.8758 43.0909 27.8758 43.1089 27.4278C43.1089 27.3768 43.1219 27.3288 43.1319 27.2578Z" fill="#003399"/>
  <path d="M60.7302 31.3325C60.5549 31.344 60.3789 31.3406 60.2042 31.3225C60.1636 31.3053 60.1275 31.279 60.0985 31.2458C60.0696 31.2125 60.0486 31.1731 60.0372 31.1305C59.9727 30.7709 59.7863 30.4444 59.5096 30.2058C59.2328 29.9673 58.8824 29.8313 58.5172 29.8205C58.1319 29.7648 57.7391 29.8431 57.4046 30.0422C57.0701 30.2413 56.814 30.5492 56.6792 30.9145C56.3383 31.8027 56.3429 32.7865 56.6922 33.6715C56.8081 33.9203 56.9773 34.1406 57.1878 34.3168C57.3983 34.493 57.6449 34.6207 57.9103 34.6909C58.1757 34.7612 58.4532 34.7722 58.7233 34.7232C58.9934 34.6742 59.2494 34.5664 59.4732 34.4075C59.6146 34.3136 59.736 34.1928 59.8306 34.0519C59.9251 33.911 59.9909 33.7529 60.0242 33.5865C60.0962 33.2065 60.3962 33.3865 60.5912 33.3865C60.8522 33.3865 60.7372 33.6035 60.7112 33.7225C60.5749 34.1668 60.3073 34.5594 59.9435 34.8486C59.5797 35.1378 59.1368 35.31 58.6732 35.3425C58.3024 35.3954 57.9244 35.3671 57.5656 35.2596C57.2067 35.1521 56.8755 34.9679 56.5949 34.7198C56.3142 34.4717 56.0908 34.1656 55.9402 33.8226C55.7895 33.4796 55.7151 33.108 55.7222 32.7335C55.6298 32.0004 55.7415 31.256 56.0452 30.5825C56.2395 30.1606 56.5524 29.8044 56.9458 29.5574C57.3391 29.3104 57.7958 29.1832 58.2602 29.1915C58.6882 29.1481 59.1197 29.2251 59.5062 29.414C59.8926 29.6029 60.2186 29.8961 60.4472 30.2605C60.6596 30.5757 60.7593 30.9535 60.7302 31.3325Z" fill="#003399"/>
  <path d="M82.1726 35.206C82.1241 35.223 82.0742 35.236 82.0236 35.245C81.4696 35.301 81.4546 35.286 81.4546 34.763V27.181C81.451 27.1068 81.4681 27.0332 81.504 26.9683C81.5399 26.9033 81.5931 26.8496 81.6578 26.8132C81.7224 26.7768 81.7959 26.7591 81.8701 26.762C81.9442 26.765 82.016 26.7885 82.0776 26.83C82.1396 26.862 82.1676 26.991 82.1676 27.076C82.1756 27.819 82.1726 28.559 82.1726 29.302V35.202V35.206Z" fill="#003399"/>
  <path d="M97.0274 35.2126V34.8906C97.0274 33.1516 97.0325 31.4126 97.0225 29.6756C97.0225 29.4106 97.0484 29.2686 97.3944 29.2756C97.7204 29.2826 97.7534 29.4096 97.7534 29.6656C97.7434 31.3756 97.7484 33.0856 97.7484 34.7926C97.7484 35.2796 97.7484 35.2826 97.2354 35.2476C97.1654 35.2405 97.0959 35.2288 97.0274 35.2126Z" fill="#003399"/>
  <path d="M105.232 33.547C105.359 33.5545 105.487 33.5545 105.614 33.547C105.847 33.518 105.963 33.591 106.014 33.827C106.06 34.0136 106.158 34.1837 106.295 34.3187C106.432 34.4537 106.603 34.5482 106.791 34.592C107.356 34.7991 107.977 34.7923 108.537 34.573C108.717 34.5236 108.878 34.4207 108.998 34.2778C109.119 34.1349 109.193 33.9589 109.211 33.773C109.231 33.5722 109.182 33.3708 109.072 33.2017C108.962 33.0326 108.797 32.9061 108.606 32.843C108.224 32.685 107.811 32.59 107.411 32.468C107.088 32.368 106.757 32.295 106.445 32.168C106.153 32.0877 105.895 31.9146 105.711 31.6747C105.527 31.4349 105.425 31.1415 105.423 30.839C105.417 30.5311 105.51 30.2295 105.688 29.9778C105.865 29.7261 106.118 29.5374 106.41 29.439C106.861 29.225 107.361 29.1333 107.859 29.1731C108.357 29.213 108.836 29.3829 109.248 29.666C109.467 29.8085 109.643 30.0075 109.758 30.242C109.873 30.4764 109.923 30.7376 109.902 30.998C109.735 31.0094 109.568 31.007 109.402 30.991C109.317 30.976 109.189 30.891 109.179 30.828C109.018 29.768 107.244 29.528 106.479 30.156C106.362 30.2451 106.27 30.3638 106.214 30.4999C106.158 30.6361 106.139 30.7847 106.16 30.9305C106.18 31.0763 106.239 31.2141 106.33 31.3296C106.421 31.4452 106.542 31.5344 106.679 31.588C107.089 31.761 107.543 31.839 107.966 31.988C108.435 32.1198 108.888 32.3029 109.317 32.534C109.506 32.6544 109.663 32.8186 109.776 33.0125C109.888 33.2064 109.952 33.4246 109.963 33.6485C109.973 33.8724 109.93 34.0956 109.836 34.2993C109.743 34.503 109.602 34.6812 109.425 34.819C109.036 35.1405 108.55 35.3232 108.046 35.338C107.36 35.4311 106.663 35.3021 106.057 34.97C105.802 34.8311 105.59 34.625 105.445 34.374C105.299 34.1231 105.226 33.837 105.232 33.547Z" fill="#003399"/>
  <path d="M97.4044 28.0727C97.342 28.0816 97.2785 28.077 97.2182 28.0592C97.1578 28.0413 97.1019 28.0106 97.0545 27.9693C97.007 27.9279 96.9691 27.8768 96.9432 27.8194C96.9173 27.762 96.904 27.6997 96.9044 27.6367C96.9032 27.574 96.9149 27.5117 96.9387 27.4537C96.9625 27.3957 96.998 27.3431 97.0428 27.2993C97.0877 27.2555 97.141 27.2213 97.1996 27.1988C97.2582 27.1764 97.3207 27.1661 97.3834 27.1687C97.51 27.1616 97.6342 27.2046 97.7293 27.2885C97.8244 27.3723 97.8826 27.4903 97.8914 27.6167C97.8918 27.6794 97.8793 27.7415 97.8545 27.7991C97.8298 27.8567 97.7934 27.9085 97.7477 27.9513C97.7019 27.9942 97.6478 28.0271 97.5887 28.048C97.5296 28.0689 97.4669 28.0773 97.4044 28.0727Z" fill="#003399"/>
  <path d="M2.79087 5.81496V7.54696C2.67587 7.55696 2.59087 7.56196 2.49087 7.56896C2.49087 7.00596 2.47787 6.46896 2.49587 5.92696C2.50687 5.69596 2.68387 5.81196 2.79087 5.81496Z" fill="white"/>
  <path d="M2.70487 27.4095C2.82287 27.9745 2.93587 28.5155 3.05387 29.0775L2.85387 29.1675C2.59793 28.6773 2.46414 28.1325 2.46387 27.5795C2.46587 27.3605 2.58887 27.3775 2.70487 27.4095Z" fill="white"/>
  <path d="M2.76307 13.0072V14.7582C2.67107 14.7582 2.58907 14.7702 2.50407 14.7752C2.48724 14.7436 2.47447 14.71 2.46607 14.6752C2.46607 14.1752 2.46607 13.6812 2.45807 13.1872C2.45507 12.9802 2.56007 12.9562 2.76307 13.0072Z" fill="white"/>
  <path d="M2.76219 23.8072V25.5442C2.56219 25.6102 2.45219 25.5902 2.45719 25.3562C2.46719 24.9082 2.46719 24.4598 2.45719 24.0112C2.45319 23.8122 2.53019 23.7412 2.76219 23.8072Z" fill="white"/>
  <path d="M22.2351 13.743C22.2351 14.267 22.2401 14.79 22.2271 15.314C22.2271 15.368 22.1321 15.421 22.0781 15.475C22.0321 15.424 21.9501 15.375 21.9471 15.324C21.9371 14.83 21.9341 14.335 21.9471 13.841C21.9471 13.78 22.0751 13.724 22.1471 13.668C22.1787 13.6902 22.2082 13.7153 22.2351 13.743Z" fill="white"/>
  <path d="M12.3609 16.2426C12.3609 16.7756 12.3609 17.3066 12.3559 17.8426C12.3559 17.8966 12.2739 17.9426 12.2299 17.9986C12.1759 17.9446 12.0789 17.8986 12.0759 17.8406C12.0629 17.3556 12.0609 16.8686 12.0759 16.3836C12.0759 16.3156 12.1989 16.2516 12.2659 16.1836L12.3609 16.2426Z" fill="white"/>
  <path d="M12.3616 10.7575C12.1616 10.8235 12.0616 10.7965 12.0666 10.5945C12.0716 10.1265 12.0666 9.65953 12.0746 9.19453C12.0746 9.13653 12.1646 9.07753 12.2126 9.01953C12.2616 9.06553 12.3536 9.11253 12.3536 9.16053C12.3636 9.69053 12.3616 10.2235 12.3616 10.7575Z" fill="white"/>
  <path d="M32.0133 8.49836C32.0133 9.03136 32.0133 9.56536 32.0083 10.0984C32.0083 10.1494 31.9213 10.1984 31.8753 10.2474C31.8243 10.2014 31.7313 10.1544 31.7313 10.1064C31.7213 9.60636 31.7183 9.11536 31.7313 8.61836C31.7313 8.55736 31.8593 8.50136 31.9313 8.44336C31.9571 8.46384 31.9846 8.48223 32.0133 8.49836Z" fill="white"/>
  <path d="M22.114 8.305C22.058 8.229 21.953 8.154 21.95 8.078C21.935 7.61 21.937 7.143 21.95 6.678C21.95 6.617 22.037 6.559 22.083 6.5C22.134 6.556 22.227 6.61 22.229 6.666C22.239 7.19 22.237 7.716 22.237 8.239C22.196 8.259 22.152 8.281 22.114 8.305Z" fill="white"/>
  <path d="M32.0125 20.1595C32.0125 20.4035 32.0204 20.6465 32.0074 20.8875C32.0074 20.9415 31.9254 20.9875 31.8844 21.0455C31.8304 20.9915 31.7335 20.9385 31.7305 20.8845C31.7175 20.3995 31.7175 19.9125 31.7305 19.4275C31.7305 19.3735 31.8304 19.3275 31.8864 19.2695C31.9274 19.3235 32.0045 19.3695 32.0065 19.4305C32.0205 19.6725 32.0125 19.9155 32.0125 20.1595Z" fill="white"/>
  <path d="M12.3601 5.44077V6.27377C12.3601 6.53677 12.3681 6.79777 12.3521 7.06077C12.3521 7.11177 12.2621 7.15577 12.2141 7.20477C12.1651 7.15877 12.0761 7.11177 12.0731 7.06077C12.0551 6.56077 12.0451 6.05277 12.0501 5.54777C12.0501 5.49177 12.1701 5.43777 12.2321 5.38477L12.3601 5.44077Z" fill="white"/>
  <path d="M31.9968 22.9099V24.6099C31.8298 24.6709 31.7178 24.6679 31.7198 24.4569C31.7198 23.9989 31.7248 23.5389 31.7198 23.0809C31.7168 22.8909 31.7988 22.8419 31.9968 22.9099Z" fill="white"/>
  <path d="M22.13 22.6993C22.068 22.6283 21.956 22.5583 21.953 22.4853C21.938 21.9713 21.945 21.4553 21.945 20.9243C22.112 20.8853 22.24 20.8463 22.237 21.0753C22.232 21.5913 22.237 22.1053 22.237 22.6223L22.13 22.6993Z" fill="white"/>
  <path d="M12.26 25.2185C12.196 25.1505 12.081 25.0825 12.078 25.0115C12.0581 24.4719 12.0768 23.9315 12.134 23.3945C12.208 23.4505 12.349 23.5045 12.349 23.5605C12.367 24.0935 12.359 24.6275 12.359 25.1605L12.26 25.2185Z" fill="white"/>
  <path d="M6.26591 2.02148C6.82691 2.02148 7.38891 2.02148 7.95291 2.02848C8.01491 2.02848 8.07092 2.15048 8.12992 2.21348L8.07591 2.29648C7.51491 2.29648 6.95091 2.29648 6.38891 2.28948C6.32691 2.28948 6.27091 2.17248 6.21191 2.10948L6.26591 2.02148Z" fill="white"/>
  <path d="M2.46286 20.207H2.73686C2.75186 20.236 2.76986 20.253 2.76986 20.27C2.77486 20.77 2.78286 21.264 2.76986 21.763C2.76986 21.831 2.67986 21.899 2.63186 21.963C2.57586 21.902 2.47086 21.844 2.47086 21.783C2.45786 21.269 2.46286 20.755 2.46286 20.207Z" fill="white"/>
  <path d="M12.3416 21.561C12.1496 21.629 12.0626 21.585 12.0676 21.39C12.0756 20.942 12.0756 20.49 12.0676 20.041C12.0676 19.856 12.1316 19.788 12.3446 19.851C12.3413 20.419 12.3403 20.989 12.3416 21.561Z" fill="white"/>
  <path d="M22.2205 17.3475V19.0405C22.0305 19.1065 21.9385 19.0725 21.9415 18.8725C21.9465 18.4125 21.9365 17.9545 21.9515 17.4935C21.9515 17.4175 22.0615 17.3445 22.1205 17.2715C22.1565 17.2955 22.1905 17.3225 22.2205 17.3475Z" fill="white"/>
  <path d="M2.76415 16.627V18.332C2.56415 18.408 2.45415 18.381 2.45915 18.147C2.46715 17.709 2.46715 17.27 2.45915 16.829C2.45615 16.639 2.51715 16.546 2.76415 16.627Z" fill="white"/>
  <path d="M31.9022 17.4796C31.8432 17.4066 31.7332 17.3336 31.7302 17.2576C31.7152 16.7926 31.7152 16.3246 31.7302 15.8576C31.7302 15.7846 31.8452 15.7136 31.9072 15.6406C31.9352 15.6596 31.9662 15.6776 31.9942 15.6966V17.4286C31.9615 17.4416 31.9306 17.4588 31.9022 17.4796Z" fill="white"/>
  <path d="M12.3407 14.3657C12.1257 14.4337 12.0617 14.3587 12.0637 14.1757C12.0717 13.7277 12.0717 13.2817 12.0637 12.8337C12.0587 12.6437 12.1327 12.5857 12.3407 12.6457V14.3657Z" fill="white"/>
  <path d="M22.2206 11.8385C22.0436 11.8995 21.9416 11.8775 21.9436 11.6755C21.9486 11.2175 21.9516 10.7595 21.9436 10.3045C21.9386 10.1045 22.0306 10.0705 22.2206 10.1245V11.8385Z" fill="white"/>
  <path d="M2.46369 11.2402C2.46369 10.6022 2.45569 10.0682 2.47369 9.54023C2.47369 9.47923 2.61169 9.42323 2.68869 9.36523L2.77568 9.41624C2.77568 9.95724 2.78369 10.4972 2.76569 11.0382C2.76369 11.0892 2.61769 11.1402 2.46369 11.2402Z" fill="white"/>
  <path d="M32.0136 6.6131C31.7806 6.6891 31.7136 6.6131 31.7186 6.4331C31.7314 6.24832 31.7314 6.06288 31.7186 5.8781C31.6906 5.5861 31.6446 5.2931 31.5986 4.9481C31.6856 4.8581 31.8116 4.8531 31.8726 5.0551C31.9415 5.26456 31.9878 5.48079 32.0106 5.7001C32.0316 5.9971 32.0136 6.2991 32.0136 6.6131Z" fill="white"/>
  <path d="M17.7191 33.9365C17.1521 33.6445 16.6241 33.3715 16.0781 33.0915C16.1471 32.9915 16.1881 32.9255 16.2341 32.8555C16.7651 33.1285 17.2851 33.3935 17.8281 33.6735L17.7191 33.9365Z" fill="white"/>
  <path d="M13.4533 35.1131C13.4123 34.9941 13.3863 34.9131 13.3633 34.8501C13.9063 34.6971 14.4243 34.5411 14.9473 34.4071C15.0243 34.3881 15.1293 34.4701 15.2193 34.5071C15.2143 34.5511 15.2063 34.5921 15.2013 34.6361L13.4533 35.1131Z" fill="white"/>
  <path d="M32.0104 12.1249C32.0104 12.6509 32.0104 13.1749 32.0054 13.7009C32.0054 13.7499 31.9184 13.8009 31.8724 13.8469C31.8234 13.8009 31.7314 13.7539 31.7284 13.7059C31.7184 13.2059 31.7154 12.7119 31.7284 12.2149C31.7284 12.1569 31.8544 12.1029 31.9234 12.0469L32.0104 12.1249Z" fill="white"/>
  <path d="M29.7294 31.4407C29.7294 31.3407 29.6834 31.2237 29.7294 31.1557C30.0014 30.7217 30.2934 30.2987 30.5954 29.8457C30.6494 29.8677 30.7264 29.9017 30.8564 29.9557L29.8874 31.4557L29.7294 31.4407Z" fill="white"/>
  <path d="M4.38649 2.65039C4.45049 2.73339 4.49648 2.79439 4.51448 2.81839L3.32549 4.09239C3.30449 4.08239 3.23548 4.04839 3.14648 4.00239C3.42923 3.44738 3.85793 2.97996 4.38649 2.65039Z" fill="white"/>
  <path d="M3.97831 30.6777L5.09831 32.0077C5.05431 32.0617 4.99831 32.1247 4.94931 32.1827C4.91131 32.1707 4.88731 32.1707 4.87731 32.1587C4.53931 31.7667 4.20531 31.3717 3.86731 30.9777C3.72231 30.8117 3.78631 30.7217 3.97831 30.6777Z" fill="white"/>
  <path d="M22.4249 4.72847C22.4119 4.72147 22.3399 4.68947 22.2529 4.65047C22.4961 4.08161 22.8908 3.59043 23.3939 3.23047C23.5579 3.34747 23.5609 3.43047 23.4299 3.56947C23.0939 3.92947 22.7839 4.31147 22.4249 4.72847Z" fill="white"/>
  <path d="M6.29785 33.4796C6.37985 33.3866 6.42885 33.3306 6.48785 33.2676C6.94185 33.5896 7.38785 33.8936 7.81785 34.2176C7.87685 34.2616 7.86685 34.3906 7.88985 34.4806L7.78185 34.5416L6.29785 33.4796Z" fill="white"/>
  <path d="M28.8262 2.7033C28.8522 2.5643 28.9262 2.4743 29.1262 2.5843C29.5932 2.8403 30.0642 3.0933 30.5262 3.3513C30.4262 3.5953 30.3442 3.6263 30.1592 3.5043C29.7462 3.2293 29.3032 2.9833 28.8262 2.7033Z" fill="white"/>
  <path d="M32.0049 26.5373C31.8639 27.0853 31.7199 27.6433 31.5719 28.2253C31.4619 28.1963 31.3799 28.1713 31.2949 28.1493C31.4229 27.6283 31.5509 27.1283 31.6669 26.6273C31.7149 26.4253 31.8149 26.4273 32.0049 26.5373Z" fill="white"/>
  <path d="M25.0813 34.2402C25.1023 34.3132 25.1254 34.3862 25.1604 34.5052C24.5424 34.6052 23.9473 34.7122 23.3603 34.8142C23.2703 34.5972 23.3043 34.5242 23.5113 34.4952C24.0193 34.4282 24.5293 34.3332 25.0813 34.2402Z" fill="white"/>
  <path d="M12.6106 28.78C12.4516 28.18 12.3006 27.63 12.1436 27.043L12.4336 27.002C12.5876 27.572 12.7336 28.118 12.8876 28.678C12.8176 28.705 12.7436 28.731 12.6106 28.78Z" fill="white"/>
  <path d="M9.70863 34.8848C10.2596 34.9238 10.7806 34.9528 11.3006 35.0038C11.3876 35.0108 11.4646 35.1038 11.5446 35.1648L11.4936 35.2648C11.2526 35.2648 11.0116 35.2798 10.7736 35.2648C10.4686 35.2428 10.1636 35.1938 9.85863 35.1648C9.65163 35.1358 9.61563 35.0428 9.70863 34.8848Z" fill="white"/>
  <path d="M10.0483 2.5332L11.5193 3.6782C11.3913 3.7782 11.3243 3.8292 11.2603 3.8782C11.2256 3.85838 11.1922 3.83633 11.1603 3.8122C10.7783 3.5122 10.4093 3.1882 10.0123 2.9032C9.83635 2.7832 9.85934 2.7082 10.0483 2.5332Z" fill="white"/>
  <path d="M13.5278 30.3633C13.6278 30.3873 13.7607 30.3823 13.8097 30.4413C14.1427 30.8413 14.4587 31.2643 14.8097 31.7203L14.5968 31.8953L13.4688 30.4953C13.4858 30.4533 13.5058 30.4073 13.5278 30.3633Z" fill="white"/>
  <path d="M25.2291 2.59103C25.2161 2.56403 25.1881 2.49603 25.1211 2.34703C25.7541 2.25403 26.3511 2.16703 26.9491 2.08203L27.0311 2.19603C26.9691 2.26903 26.9161 2.39603 26.8441 2.40803C26.3161 2.48203 25.7861 2.53003 25.2291 2.59103Z" fill="white"/>
  <path d="M28.3324 32.6328C28.5114 32.7328 28.5094 32.8328 28.3324 32.9498C27.8914 33.2348 27.4533 33.5248 27.0093 33.8118C26.8353 33.6728 26.7783 33.5828 26.9833 33.4608C27.4273 33.2028 27.8634 32.9228 28.3324 32.6328Z" fill="white"/>
  <path d="M21.4531 34.6086C21.3741 34.6546 21.2861 34.7496 21.2151 34.7406C20.6771 34.6776 20.1411 34.5916 19.5771 34.5096C19.5981 34.3926 19.6102 34.3096 19.6232 34.2266L21.3971 34.5096C21.4181 34.5436 21.4361 34.5776 21.4531 34.6086Z" fill="white"/>
  <path d="M22.2349 25.203C22.0269 25.274 21.9349 25.232 21.9429 25.037C21.9509 24.903 21.9329 24.764 21.9529 24.637C21.9609 24.586 22.0449 24.544 22.0939 24.498C22.1399 24.547 22.2219 24.591 22.2269 24.642C22.2449 24.828 22.2349 25.02 22.2349 25.203Z" fill="white"/>
  <path d="M34.1283 16.5831C34.1283 19.7591 34.2003 22.9381 34.1103 26.1141C34.078 27.9578 33.5907 29.765 32.6917 31.3751C31.7927 32.9852 30.5099 34.3482 28.9573 35.3431C26.5461 37.0241 23.607 37.7734 20.6853 37.4521C19.5304 37.3394 18.3968 37.0664 17.3173 36.6411C17.1593 36.5875 16.9882 36.5875 16.8303 36.6411C14.9771 37.3902 12.9696 37.6778 10.9807 37.4792C8.9917 37.2806 7.08076 36.6018 5.41226 35.5011C3.08434 34.0554 1.35186 31.823 0.529263 29.2091C0.169286 28.0777 -0.00892895 26.8963 0.00126301 25.7091C0.00126301 19.5317 0.00126301 13.3537 0.00126301 7.17507C-0.0185289 6.14306 0.194515 5.11986 0.624561 4.18152C1.05461 3.24317 1.6906 2.41381 2.48526 1.75507C3.2946 1.07828 4.23722 0.579243 5.25191 0.290346C6.26661 0.00144899 7.33072 -0.0708502 8.37517 0.0781415C9.41962 0.227133 10.4211 0.594086 11.3145 1.15518C12.208 1.71628 12.9734 2.45897 13.5613 3.33507C14.2937 4.48336 14.6782 5.8191 14.6683 7.18107C14.6683 13.3484 14.6683 19.5151 14.6683 25.6811C14.6537 27.0152 15.0366 28.3234 15.7683 29.4391C16.3126 30.2901 17.0304 31.0166 17.8748 31.5711C18.7191 32.1256 19.6711 32.4957 20.6683 32.6571C22.2032 32.9296 23.785 32.7086 25.1864 32.0259C26.5878 31.3431 27.7368 30.2337 28.4683 28.8571C28.9681 27.8532 29.2269 26.7465 29.2243 25.6251C29.2189 19.4771 29.2189 13.3284 29.2243 7.17907C29.2497 6.7066 29.1265 6.23803 28.872 5.83916C28.6175 5.44028 28.2444 5.13111 27.8053 4.95507C27.4627 4.79733 27.0878 4.72254 26.7109 4.73676C26.3341 4.75099 25.9659 4.85382 25.6362 5.03693C25.3065 5.22004 25.0246 5.47827 24.8133 5.79068C24.6021 6.1031 24.4674 6.46089 24.4203 6.83507C24.4053 7.03507 24.4053 7.24407 24.4053 7.45107C24.4053 13.5111 24.4053 19.5711 24.4053 25.6311C24.4298 26.0753 24.3274 26.5174 24.1099 26.9056C23.8925 27.2938 23.569 27.612 23.1773 27.8231C22.8164 28.033 22.4081 28.1479 21.9907 28.157C21.5734 28.1661 21.1605 28.0692 20.7908 27.8752C20.4211 27.6813 20.1066 27.3967 19.8769 27.0481C19.6472 26.6995 19.5097 26.2983 19.4773 25.8821C19.4693 25.7821 19.4723 25.6871 19.4723 25.5901C19.4723 19.4814 19.4723 13.3717 19.4723 7.26107C19.4443 6.22499 19.6513 5.19603 20.0779 4.25143C20.5045 3.30683 21.1395 2.47113 21.9353 1.80707C22.7413 1.09873 23.6943 0.577823 24.7257 0.281803C25.7571 -0.0142174 26.8413 -0.0779908 27.9003 0.0950695C29.3453 0.279504 30.6996 0.900772 31.7821 1.87578C32.8645 2.85079 33.6234 4.13305 33.9573 5.55107C34.0725 6.1154 34.1291 6.69011 34.1263 7.26607C34.1413 10.3741 34.1343 13.4821 34.1343 16.5901C34.1303 16.5831 34.1303 16.5831 34.1283 16.5831ZM12.1053 32.7611C12.0992 32.7269 12.0898 32.6934 12.0773 32.6611C12.0393 32.6031 11.9953 32.5491 11.9573 32.4911C10.5516 30.6088 9.78301 28.3272 9.76326 25.9781C9.74793 19.7934 9.74526 13.6074 9.75526 7.42007C9.75526 7.27407 9.75526 7.12807 9.75526 6.97907C9.73094 6.57637 9.6055 6.18631 9.39054 5.84492C9.17557 5.50354 8.87801 5.22185 8.52537 5.02589C8.17273 4.82994 7.77638 4.72604 7.37296 4.72379C6.96954 4.72155 6.57206 4.82104 6.21726 5.01307C5.81805 5.20018 5.48359 5.50193 5.25652 5.87985C5.02945 6.25777 4.92005 6.69474 4.94226 7.13507C4.94226 9.7924 4.94226 12.4507 4.94226 15.1101C4.94226 18.7251 4.91926 22.3421 4.95526 25.9561C5.00178 27.3815 5.48501 28.7582 6.33957 29.9C7.19413 31.0418 8.37878 31.8936 9.73326 32.3401C10.4912 32.6256 11.2954 32.7683 12.1053 32.7611ZM2.79226 5.81507C2.68726 5.81507 2.50726 5.69307 2.50026 5.92907C2.47926 6.46707 2.49526 7.00807 2.49526 7.57107C2.59526 7.56407 2.67726 7.55607 2.79526 7.54907C2.79226 6.96407 2.79226 6.40407 2.79226 5.81507ZM2.70526 27.4101C2.59226 27.3781 2.46926 27.3611 2.46126 27.5811C2.46154 28.1341 2.59533 28.6788 2.85126 29.1691C2.94326 29.1281 3.01226 29.0961 3.05126 29.0791C2.93526 28.5161 2.82326 27.9751 2.70526 27.4101ZM2.76426 13.0101C2.56426 12.9591 2.45626 12.9831 2.45926 13.1881C2.46926 13.6881 2.46426 14.1821 2.46726 14.6761C2.47567 14.7109 2.48844 14.7445 2.50526 14.7761C2.58726 14.7761 2.67226 14.7661 2.76426 14.7591V13.0101ZM2.76426 23.8101C2.52826 23.7421 2.45426 23.8101 2.45926 24.0101C2.46926 24.4581 2.46926 24.9064 2.45926 25.3551C2.45426 25.5891 2.56726 25.6111 2.76426 25.5431V23.8101ZM22.2343 13.7451L22.1523 13.6651C22.0833 13.7231 21.9523 13.7791 21.9523 13.8381C21.9373 14.3321 21.9393 14.8271 21.9523 15.3211C21.9523 15.3721 22.0373 15.4211 22.0833 15.4721C22.1343 15.4181 22.2293 15.3651 22.2323 15.3111C22.2413 14.7901 22.2363 14.2671 22.2363 13.7431L22.2343 13.7451ZM12.3603 16.2451L12.2683 16.1841C12.2013 16.2501 12.0813 16.3161 12.0783 16.3841C12.0633 16.8691 12.0653 17.3561 12.0783 17.8411C12.0783 17.8951 12.1783 17.9411 12.2323 17.9991C12.2763 17.9481 12.3583 17.8991 12.3583 17.8431C12.3643 17.3091 12.3603 16.7781 12.3603 16.2451ZM12.3603 10.7601C12.3603 10.2271 12.3603 9.69307 12.3523 9.16007C12.3523 9.11107 12.2603 9.06507 12.2113 9.01907C12.1623 9.07707 12.0753 9.13607 12.0733 9.19407C12.0633 9.66207 12.0733 10.1291 12.0653 10.5941C12.0643 10.7981 12.1613 10.8251 12.3613 10.7591L12.3603 10.7601ZM32.0123 8.50007C31.9843 8.48107 31.9563 8.46307 31.9303 8.44407C31.8613 8.50207 31.7353 8.55807 31.7303 8.61907C31.7153 9.11307 31.7173 9.61007 31.7303 10.1071C31.7303 10.1561 31.8223 10.2021 31.8743 10.2481C31.9203 10.1991 32.0073 10.1481 32.0073 10.0991C32.0153 9.56607 32.0133 9.03507 32.0133 8.49907L32.0123 8.50007ZM22.1123 8.30807L22.2323 8.23707C22.2323 7.71307 22.2373 7.18707 22.2243 6.66407C22.2243 6.60807 22.1293 6.55407 22.0783 6.49807C22.0323 6.55607 21.9473 6.61707 21.9453 6.67607C21.9353 7.14407 21.9323 7.61107 21.9453 8.07607C21.9563 8.15807 22.0593 8.23507 22.1153 8.30607L22.1123 8.30807ZM32.0123 20.1631C32.0123 19.9191 32.0203 19.6761 32.0073 19.4351C32.0073 19.3791 31.9303 19.3281 31.8873 19.2741C31.8333 19.3281 31.7313 19.3741 31.7313 19.4321C31.7183 19.9171 31.7183 20.4041 31.7313 20.8891C31.7313 20.9431 31.8313 20.9961 31.8853 21.0501C31.9293 20.9961 32.0053 20.9501 32.0083 20.8921C32.0203 20.6481 32.0133 20.4051 32.0133 20.1611L32.0123 20.1631ZM12.3613 5.43507C12.3203 5.41607 12.2763 5.39807 12.2353 5.37907C12.1713 5.43307 12.0533 5.48607 12.0533 5.54207C12.0483 6.04207 12.0583 6.55007 12.0763 7.05507C12.0763 7.10407 12.1683 7.15007 12.2173 7.19907C12.2663 7.15007 12.3533 7.10407 12.3553 7.05507C12.3703 6.79407 12.3633 6.53107 12.3633 6.26807C12.3633 6.00507 12.3613 5.71507 12.3613 5.43507ZM31.9973 22.9111C31.8023 22.8431 31.7183 22.8921 31.7203 23.0841C31.7253 23.5421 31.7203 24.0021 31.7203 24.4601C31.7203 24.6721 31.8303 24.6721 31.9973 24.6131V22.9111ZM22.1303 22.6991L22.2353 22.6191C22.2353 22.1031 22.2353 21.5891 22.2353 21.0721C22.2353 20.8431 22.1093 20.8821 21.9433 20.9211C21.9433 21.4521 21.9353 21.9681 21.9513 22.4821C21.9563 22.5581 22.0693 22.6291 22.1313 22.6991H22.1303ZM12.2613 25.2201C12.2943 25.2011 12.3283 25.1811 12.3613 25.1641C12.3613 24.6311 12.3693 24.0951 12.3513 23.5641C12.3513 23.5081 12.2103 23.4541 12.1363 23.3981C12.0779 23.935 12.0591 24.4754 12.0803 25.0151C12.0793 25.0841 12.1973 25.1521 12.2613 25.2201ZM6.27026 2.02007L6.21626 2.10807C6.27526 2.17107 6.33126 2.28807 6.39326 2.28807C6.95426 2.30307 7.51626 2.29507 8.08026 2.29507L8.13426 2.21207C8.07526 2.14607 8.01926 2.02707 7.95726 2.02707C7.39626 2.01707 6.83226 2.02207 6.27026 2.02207V2.02007ZM2.46426 20.2081C2.46426 20.7541 2.45926 21.2701 2.47226 21.7861C2.47226 21.8471 2.57726 21.9081 2.63326 21.9661C2.68226 21.8981 2.77126 21.8301 2.77126 21.7661C2.78126 21.2661 2.77126 20.7721 2.77126 20.2731C2.77126 20.2561 2.75326 20.2391 2.73826 20.2101C2.66426 20.2081 2.58726 20.2081 2.46426 20.2081ZM12.3413 21.5621V19.8521C12.1313 19.7891 12.0623 19.8521 12.0643 20.0421C12.0723 20.4901 12.0723 20.9421 12.0643 21.3911C12.0643 21.5861 12.1483 21.6351 12.3413 21.5621ZM22.2213 17.3481C22.1883 17.3241 22.1573 17.2971 22.1213 17.2721C22.0623 17.3451 21.9543 17.4181 21.9523 17.4941C21.9373 17.9521 21.9523 18.4121 21.9423 18.8731C21.9423 19.0731 22.0323 19.1071 22.2213 19.0411C22.2199 18.4757 22.2196 17.9114 22.2203 17.3481H22.2213ZM2.76426 16.6271C2.51826 16.5491 2.45626 16.6391 2.45926 16.8271C2.46726 17.2651 2.46726 17.7041 2.45926 18.1451C2.45426 18.3791 2.56426 18.4061 2.76426 18.3301V16.6271ZM31.9033 17.4771L31.9953 17.4261V15.6941C31.9673 15.6751 31.9363 15.6571 31.9083 15.6381C31.8463 15.7111 31.7343 15.7821 31.7313 15.8551C31.7163 16.3201 31.7163 16.7881 31.7313 17.2551C31.7313 17.3291 31.8413 17.4021 31.9053 17.4771H31.9033ZM12.3413 14.3671V12.6471C12.1363 12.5841 12.0623 12.6471 12.0643 12.8351C12.0743 13.2831 12.0723 13.7291 12.0643 14.1771C12.0643 14.3591 12.1253 14.4351 12.3413 14.3671ZM22.2213 11.8411V10.1241C22.0313 10.0701 21.9393 10.1051 21.9443 10.3041C21.9543 10.7621 21.9523 11.2201 21.9443 11.6751C21.9413 11.8801 22.0433 11.8991 22.2203 11.8411H22.2213ZM2.46426 11.2411C2.61826 11.1411 2.76426 11.0901 2.76426 11.0411C2.78226 10.5001 2.77426 9.96007 2.77426 9.41907L2.68726 9.36807C2.61326 9.42607 2.47426 9.48207 2.47226 9.54307C2.45626 10.0701 2.46426 10.6031 2.46426 11.2421V11.2411ZM32.0133 6.61407C32.0133 6.30007 32.0313 5.99807 32.0083 5.69807C31.9849 5.47884 31.9387 5.26266 31.8703 5.05307C31.8083 4.85307 31.6833 4.85307 31.5963 4.94607C31.6423 5.29207 31.6913 5.58407 31.7163 5.87607C31.7291 6.06085 31.7291 6.24629 31.7163 6.43107C31.7103 6.61407 31.7793 6.68907 32.0133 6.61407ZM17.7193 33.9351L17.8293 33.6721C17.2863 33.3921 16.7653 33.1261 16.2353 32.8541C16.1893 32.9251 16.1483 32.9881 16.0793 33.0901C16.6223 33.3751 17.1503 33.6461 17.7193 33.9351ZM13.4533 35.1111L15.2053 34.6351C15.2103 34.5911 15.2183 34.5501 15.2233 34.5061C15.1313 34.4691 15.0233 34.3871 14.9513 34.4061C14.4283 34.5401 13.9103 34.6931 13.3673 34.8491C13.3873 34.9171 13.4123 34.9951 13.4533 35.1141V35.1111ZM32.0103 12.1261C31.9823 12.0991 31.9543 12.0751 31.9233 12.0481C31.8563 12.1041 31.7313 12.1581 31.7283 12.2161C31.7133 12.7161 31.7153 13.2101 31.7283 13.7071C31.7283 13.7561 31.8203 13.8021 31.8723 13.8481C31.9183 13.7991 32.0053 13.7481 32.0053 13.7021C32.0153 13.1761 32.0103 12.6491 32.0103 12.1261ZM29.7263 31.4411L29.8823 31.4561L30.8513 29.9561C30.7203 29.9001 30.6433 29.8681 30.5903 29.8461C30.2903 30.2991 29.9953 30.7231 29.7243 31.1561C29.6803 31.2241 29.7243 31.3441 29.7263 31.4411ZM4.38626 2.65107C3.85701 2.98067 3.42816 3.44895 3.14626 4.00507C3.23626 4.04907 3.30526 4.08307 3.32526 4.09507L4.51426 2.82107C4.49626 2.79407 4.45026 2.73507 4.38626 2.65107ZM3.97826 30.6791C3.78626 30.7231 3.72426 30.8131 3.86826 30.9791C4.20626 31.3711 4.54026 31.7661 4.87826 32.1601C4.88826 32.1721 4.91126 32.1721 4.95026 32.1841C4.99926 32.1261 5.05026 32.0621 5.09926 32.0091C4.71426 31.5531 4.34826 31.1201 3.97926 30.6791H3.97826ZM22.4253 4.72807C22.7843 4.31107 23.0943 3.92807 23.4323 3.56907C23.5633 3.42807 23.5603 3.34707 23.3963 3.23007C22.8931 3.59003 22.4984 4.08121 22.2553 4.65007C22.3413 4.69207 22.4133 4.72307 22.4253 4.72807ZM6.29926 33.4801L7.78326 34.5401L7.89126 34.4791C7.86826 34.3891 7.87826 34.2621 7.81926 34.2161C7.38826 33.8921 6.94226 33.5851 6.48926 33.2661C6.42926 33.3351 6.37826 33.3871 6.29926 33.4801ZM28.8263 2.70407C29.3003 2.98707 29.7443 3.23007 30.1673 3.50407C30.3523 3.62307 30.4313 3.59407 30.5343 3.35107C30.0673 3.09307 29.5963 2.84207 29.1343 2.58407C28.9293 2.47507 28.8523 2.56507 28.8263 2.70407ZM32.0053 26.5351C31.8183 26.4251 31.7133 26.4231 31.6673 26.6251C31.5523 27.1251 31.4233 27.6251 31.2953 28.1471C31.3803 28.1711 31.4593 28.1931 31.5723 28.2231C31.7203 27.6411 31.8643 27.0861 32.0053 26.5351ZM25.0813 34.2351C24.5323 34.3281 24.0203 34.4231 23.5043 34.4911C23.2993 34.5181 23.2663 34.5911 23.3533 34.8101C23.9453 34.7101 24.5423 34.6101 25.1533 34.5011C25.1223 34.3861 25.1053 34.3131 25.0813 34.2351ZM12.6053 28.7811C12.7383 28.7321 12.8103 28.7051 12.8823 28.6811C12.7313 28.1181 12.5823 27.5751 12.4283 27.0051L12.1383 27.0461C12.3053 27.6291 12.4513 28.1851 12.6053 28.7811ZM9.70526 34.8851C9.61326 35.0411 9.64926 35.1331 9.85426 35.1551C10.1593 35.1871 10.4643 35.2381 10.7693 35.2551C11.0073 35.2721 11.2513 35.2551 11.4893 35.2551L11.5403 35.1551C11.4583 35.0991 11.3813 35.0041 11.2963 34.9941C10.7803 34.9541 10.2593 34.9241 9.70526 34.8851ZM10.0493 2.53507C9.85926 2.71007 9.83626 2.78307 10.0083 2.90807C10.4083 3.19307 10.7743 3.50807 11.1563 3.81707C11.1773 3.83407 11.2053 3.84607 11.2563 3.88307L11.5153 3.68307C10.9853 3.26207 10.5153 2.89707 10.0493 2.53507ZM13.5283 30.3651C13.5073 30.4091 13.4903 30.4551 13.4693 30.4991L14.5973 31.8991L14.8103 31.7241C14.4563 31.2691 14.1433 30.8501 13.8103 30.4451C13.7583 30.3841 13.6223 30.3891 13.5283 30.3651ZM25.2283 2.59307C25.7873 2.53207 26.3173 2.48307 26.8433 2.40807C26.9153 2.39807 26.9693 2.26907 27.0303 2.19607L26.9483 2.08207L25.1203 2.34707C25.1843 2.49707 25.2143 2.56507 25.2273 2.59207L25.2283 2.59307ZM28.3323 32.6351C27.8633 32.9251 27.4323 33.2001 26.9813 33.4631C26.7813 33.5821 26.8353 33.6751 27.0073 33.8141C27.4479 33.5241 27.8889 33.2367 28.3303 32.9521C28.5053 32.8351 28.5113 32.7301 28.3323 32.6351ZM21.4543 34.6101L21.4003 34.5101C20.8163 34.4171 20.2343 34.3221 19.6263 34.2271C19.6113 34.3151 19.5983 34.3931 19.5803 34.5101C20.1443 34.5931 20.6803 34.6781 21.2183 34.7411C21.2873 34.7511 21.3743 34.6591 21.4543 34.6101ZM22.2363 25.2031C22.2363 25.0201 22.2463 24.8281 22.2283 24.6381C22.2233 24.5871 22.1413 24.5381 22.0953 24.4941C22.0463 24.5401 21.9623 24.5821 21.9543 24.6331C21.9333 24.7651 21.9543 24.9031 21.9443 25.0331C21.9333 25.2351 22.0283 25.2741 22.2363 25.2031Z" fill="#003399"/>
</svg>