<svg xmlns="http://www.w3.org/2000/svg" width="33" height="32" viewBox="0 0 33 32" fill="none">
  <g clip-path="url(#clip0_1938_291)">
    <path fill-rule="evenodd" clip-rule="evenodd" d="M16.6668 5.33301C17.8068 5.33301 18.9762 5.36234 20.1095 5.41034L21.4482 5.47434L22.7295 5.55034L23.9295 5.63167L25.0255 5.71701C26.2149 5.80804 27.3341 6.3156 28.1862 7.15039C29.0383 7.98518 29.5687 9.09373 29.6842 10.281L29.7375 10.8477L29.8375 12.061C29.9308 13.3183 30.0002 14.689 30.0002 15.9997C30.0002 17.3103 29.9308 18.681 29.8375 19.9383L29.7375 21.1517C29.7202 21.3463 29.7028 21.5343 29.6842 21.7183C29.5687 22.9058 29.0381 24.0145 28.1857 24.8494C27.3333 25.6842 26.2138 26.1916 25.0242 26.2823L23.9308 26.3663L22.7308 26.449L21.4482 26.525L20.1095 26.589C18.9626 26.6388 17.8148 26.6646 16.6668 26.6663C15.5189 26.6646 14.3711 26.6388 13.2242 26.589L11.8855 26.525L10.6042 26.449L9.40416 26.3663L8.30816 26.2823C7.11876 26.1913 5.99957 25.6837 5.14746 24.849C4.29535 24.0142 3.76493 22.9056 3.6495 21.7183L3.59616 21.1517L3.49616 19.9383C3.39421 18.6279 3.33995 17.3141 3.3335 15.9997C3.3335 14.689 3.40283 13.3183 3.49616 12.061L3.59616 10.8477C3.6135 10.653 3.63083 10.465 3.6495 10.281C3.76488 9.09394 4.29512 7.98556 5.14695 7.1508C5.99878 6.31604 7.11767 5.80834 8.30683 5.71701L9.4015 5.63167L10.6015 5.55034L11.8842 5.47434L13.2228 5.41034C14.3702 5.36052 15.5184 5.33473 16.6668 5.33301ZM14.0002 12.7663V19.233C14.0002 19.849 14.6668 20.233 15.2002 19.9263L20.8002 16.693C20.922 16.6229 21.0232 16.5218 21.0936 16.4001C21.164 16.2784 21.2011 16.1403 21.2011 15.9997C21.2011 15.8591 21.164 15.721 21.0936 15.5992C21.0232 15.4775 20.922 15.3765 20.8002 15.3063L15.2002 12.0743C15.0785 12.0041 14.9405 11.9671 14.8 11.9672C14.6596 11.9672 14.5216 12.0042 14.3999 12.0745C14.2783 12.1447 14.1773 12.2458 14.1071 12.3675C14.037 12.4892 14.0001 12.6272 14.0002 12.7677V12.7663Z" fill="#FE3730"/>
  </g>
  <defs>
    <clipPath id="clip0_1938_291">
      <rect width="32" height="32" fill="white" transform="translate(0.666748)"/>
    </clipPath>
  </defs>
</svg>