<svg xmlns="http://www.w3.org/2000/svg" width="500" height="500" viewBox="0 0 500 500">
<g>
<path d="M 249.00,422.50 C249.00,417.67 248.76,417.00 247.00,417.00 C245.90,417.00 245.00,416.61 245.00,416.14 C245.00,415.11 253.80,413.76 255.12,414.57 C256.52,415.44 255.12,417.00 252.94,417.00 C251.25,417.00 251.00,417.72 251.00,422.50 C251.00,425.52 250.55,428.00 250.00,428.00 C249.45,428.00 249.00,425.52 249.00,422.50 M 222.82,424.50 C221.45,421.49 218.38,421.22 217.50,424.01 C216.42,427.39 214.77,425.07 215.44,421.14 C216.97,412.24 217.08,412.00 219.51,412.00 C224.29,412.00 227.00,413.76 227.00,416.85 C227.00,418.45 226.35,420.30 225.55,420.96 C224.49,421.83 224.35,422.80 225.03,424.58 C226.28,427.86 224.32,427.79 222.82,424.50 M 224.69,418.36 C225.34,416.67 222.72,414.00 220.43,414.00 C219.13,414.00 217.78,417.84 218.61,419.17 C219.52,420.65 224.04,420.05 224.69,418.36 M 295.63,418.93 C290.55,414.93 293.45,407.00 300.00,407.00 C301.65,407.00 303.00,407.45 303.00,408.00 C303.00,408.55 301.91,409.00 300.57,409.00 C297.88,409.00 295.00,411.36 295.00,413.57 C295.00,415.08 298.45,419.00 299.78,419.00 C300.21,419.00 301.58,418.28 302.84,417.40 C305.96,415.22 307.09,416.69 304.14,419.09 C301.11,421.55 298.91,421.50 295.63,418.93 M 186.63,416.93 C181.35,412.77 184.09,405.00 190.83,405.00 C197.54,405.00 200.53,412.86 195.37,416.93 C193.92,418.07 191.95,419.00 191.00,419.00 C190.05,419.00 188.08,418.07 186.63,416.93 M 195.07,413.87 C196.81,410.61 194.79,407.00 191.22,407.00 C187.87,407.00 186.00,408.61 186.00,411.50 C186.00,414.37 187.87,416.00 191.16,416.00 C192.96,416.00 194.33,415.25 195.07,413.87 M 325.47,409.04 C322.25,407.75 320.84,405.39 321.18,401.91 C322.08,392.87 335.00,393.34 335.00,402.42 C335.00,407.35 329.97,410.85 325.47,409.04 M 332.22,404.42 C333.85,400.83 332.20,398.50 328.00,398.50 C323.80,398.50 322.15,400.83 323.78,404.42 C324.67,406.37 325.70,407.00 328.00,407.00 C330.30,407.00 331.33,406.37 332.22,404.42 M 156.00,402.18 C156.00,401.73 157.38,398.81 159.06,395.70 L 162.12,390.05 L 165.81,392.38 C169.71,394.83 170.97,398.13 168.95,400.56 C167.57,402.22 163.70,402.45 161.03,401.02 C159.67,400.29 159.05,400.42 158.63,401.52 C158.03,403.08 156.00,403.59 156.00,402.18 M 167.69,398.36 C168.08,397.35 167.60,396.18 166.45,395.34 C164.25,393.73 163.04,393.98 161.57,396.34 C160.76,397.64 160.86,398.29 162.00,399.01 C164.31,400.49 167.00,400.18 167.69,398.36 M 235.54,394.07 C235.23,393.56 235.42,392.86 235.98,392.51 C236.54,392.16 237.00,392.58 237.00,393.44 C237.00,395.20 236.40,395.46 235.54,394.07 M 239.00,394.00 C239.00,393.45 239.45,393.00 240.00,393.00 C240.55,393.00 241.00,393.45 241.00,394.00 C241.00,394.55 240.55,395.00 240.00,395.00 C239.45,395.00 239.00,394.55 239.00,394.00 M 243.00,394.00 C243.00,393.45 243.45,393.00 244.00,393.00 C244.55,393.00 245.00,393.45 245.00,394.00 C245.00,394.55 244.55,395.00 244.00,395.00 C243.45,395.00 243.00,394.55 243.00,394.00 M 247.00,394.00 C247.00,393.45 247.45,393.00 248.00,393.00 C248.55,393.00 249.00,393.45 249.00,394.00 C249.00,394.55 248.55,395.00 248.00,395.00 C247.45,395.00 247.00,394.55 247.00,394.00 M 251.00,394.00 C251.00,393.45 251.45,393.00 252.00,393.00 C252.55,393.00 253.00,393.45 253.00,394.00 C253.00,394.55 252.55,395.00 252.00,395.00 C251.45,395.00 251.00,394.55 251.00,394.00 M 255.00,394.00 C255.00,393.45 255.45,393.00 256.00,393.00 C256.55,393.00 257.00,393.45 257.00,394.00 C257.00,394.55 256.55,395.00 256.00,395.00 C255.45,395.00 255.00,394.55 255.00,394.00 M 259.00,394.00 C259.00,393.45 259.45,393.00 260.00,393.00 C260.55,393.00 261.00,393.45 261.00,394.00 C261.00,394.55 260.55,395.00 260.00,395.00 C259.45,395.00 259.00,394.55 259.00,394.00 M 263.58,394.13 C263.15,393.44 263.07,392.60 263.40,392.27 C264.29,391.37 265.27,392.69 264.79,394.14 C264.45,395.15 264.21,395.15 263.58,394.13 M 227.55,393.09 C227.23,392.56 227.39,391.87 227.91,391.55 C228.44,391.23 229.13,391.39 229.45,391.91 C229.77,392.44 229.61,393.13 229.09,393.45 C228.56,393.77 227.87,393.61 227.55,393.09 M 231.00,393.00 C231.00,392.45 231.45,392.00 232.00,392.00 C232.55,392.00 233.00,392.45 233.00,393.00 C233.00,393.55 232.55,394.00 232.00,394.00 C231.45,394.00 231.00,393.55 231.00,393.00 M 267.00,393.00 C267.00,392.45 267.45,392.00 268.00,392.00 C268.55,392.00 269.00,392.45 269.00,393.00 C269.00,393.55 268.55,394.00 268.00,394.00 C267.45,394.00 267.00,393.55 267.00,393.00 M 349.95,388.94 C344.82,382.81 345.58,381.01 352.08,383.93 C354.51,385.02 356.64,385.51 356.81,385.02 C356.99,384.52 356.67,382.45 356.10,380.40 C355.07,376.67 355.35,375.00 357.01,375.00 C358.41,375.00 365.93,385.31 365.29,386.34 C364.98,386.85 363.24,385.52 361.43,383.38 L 358.14,379.50 L 359.10,383.88 C359.64,386.29 359.82,388.51 359.52,388.81 C359.22,389.11 357.35,388.58 355.36,387.64 C353.38,386.69 351.56,386.10 351.34,386.33 C351.11,386.56 352.06,388.11 353.46,389.77 C354.86,391.43 356.00,393.06 356.00,393.39 C356.00,395.13 353.74,393.46 349.95,388.94 M 224.00,392.00 C224.00,391.45 224.48,391.00 225.06,391.00 C225.64,391.00 225.84,391.45 225.50,392.00 C225.16,392.55 224.68,393.00 224.44,393.00 C224.20,393.00 224.00,392.55 224.00,392.00 M 271.50,392.00 C271.84,391.45 272.32,391.00 272.56,391.00 C272.80,391.00 273.00,391.45 273.00,392.00 C273.00,392.55 272.52,393.00 271.94,393.00 C271.36,393.00 271.16,392.55 271.50,392.00 M 275.00,392.00 C275.00,391.45 275.45,391.00 276.00,391.00 C276.55,391.00 277.00,391.45 277.00,392.00 C277.00,392.55 276.55,393.00 276.00,393.00 C275.45,393.00 275.00,392.55 275.00,392.00 M 219.50,391.00 C219.84,390.45 220.54,390.00 221.06,390.00 C221.58,390.00 222.00,390.45 222.00,391.00 C222.00,391.55 221.30,392.00 220.44,392.00 C219.58,392.00 219.16,391.55 219.50,391.00 M 279.00,391.00 C279.00,390.45 279.45,390.00 280.00,390.00 C280.55,390.00 281.00,390.45 281.00,391.00 C281.00,391.55 280.55,392.00 280.00,392.00 C279.45,392.00 279.00,391.55 279.00,391.00 M 216.00,390.00 C216.00,389.45 216.45,389.00 217.00,389.00 C217.55,389.00 218.00,389.45 218.00,390.00 C218.00,390.55 217.55,391.00 217.00,391.00 C216.45,391.00 216.00,390.55 216.00,390.00 M 283.00,390.00 C283.00,389.45 283.45,389.00 284.00,389.00 C284.55,389.00 285.00,389.45 285.00,390.00 C285.00,390.55 284.55,391.00 284.00,391.00 C283.45,391.00 283.00,390.55 283.00,390.00 M 136.32,388.94 C134.17,388.13 132.00,385.17 132.00,383.07 C132.00,381.26 133.83,381.89 134.47,383.91 C135.14,386.01 137.63,387.34 139.14,386.41 C139.72,386.06 139.45,384.81 138.49,383.35 C136.27,379.96 136.90,376.58 139.83,376.17 C142.35,375.81 146.00,378.47 146.00,380.65 C146.00,382.58 145.08,382.32 143.07,379.84 C140.51,376.68 138.59,378.30 140.50,382.01 C141.33,383.60 142.00,385.58 142.00,386.42 C142.00,388.55 138.91,389.92 136.32,388.94 M 212.00,389.00 C212.00,388.45 212.45,388.00 213.00,388.00 C213.55,388.00 214.00,388.45 214.00,389.00 C214.00,389.55 213.55,390.00 213.00,390.00 C212.45,390.00 212.00,389.55 212.00,389.00 M 287.00,389.00 C287.00,388.45 287.45,388.00 288.00,388.00 C288.55,388.00 289.00,388.45 289.00,389.00 C289.00,389.55 288.55,390.00 288.00,390.00 C287.45,390.00 287.00,389.55 287.00,389.00 M 208.00,388.00 C208.00,387.45 208.45,387.00 209.00,387.00 C209.55,387.00 210.00,387.45 210.00,388.00 C210.00,388.55 209.55,389.00 209.00,389.00 C208.45,389.00 208.00,388.55 208.00,388.00 M 290.50,388.00 C290.16,387.45 290.33,387.00 290.88,387.00 C291.43,387.00 292.16,387.45 292.50,388.00 C292.84,388.55 292.67,389.00 292.12,389.00 C291.57,389.00 290.84,388.55 290.50,388.00 M 204.00,387.00 C204.00,386.45 204.45,386.00 205.00,386.00 C205.55,386.00 206.00,386.45 206.00,387.00 C206.00,387.55 205.55,388.00 205.00,388.00 C204.45,388.00 204.00,387.55 204.00,387.00 M 294.00,387.00 C294.00,386.45 294.45,386.00 295.00,386.00 C295.55,386.00 296.00,386.45 296.00,387.00 C296.00,387.55 295.55,388.00 295.00,388.00 C294.45,388.00 294.00,387.55 294.00,387.00 M 200.00,386.00 C200.00,385.45 200.70,385.00 201.56,385.00 C202.42,385.00 202.84,385.45 202.50,386.00 C202.16,386.55 201.46,387.00 200.94,387.00 C200.42,387.00 200.00,386.55 200.00,386.00 M 298.00,386.00 C298.00,385.45 298.45,385.00 299.00,385.00 C299.55,385.00 300.00,385.45 300.00,386.00 C300.00,386.55 299.55,387.00 299.00,387.00 C298.45,387.00 298.00,386.55 298.00,386.00 M 197.00,383.94 C197.00,383.36 197.45,383.16 198.00,383.50 C198.55,383.84 199.00,384.32 199.00,384.56 C199.00,384.80 198.55,385.00 198.00,385.00 C197.45,385.00 197.00,384.52 197.00,383.94 M 302.00,384.00 C302.00,383.45 302.45,383.00 303.00,383.00 C303.55,383.00 304.00,383.45 304.00,384.00 C304.00,384.55 303.55,385.00 303.00,385.00 C302.45,385.00 302.00,384.55 302.00,384.00 M 193.00,383.00 C193.00,382.45 193.45,382.00 194.00,382.00 C194.55,382.00 195.00,382.45 195.00,383.00 C195.00,383.55 194.55,384.00 194.00,384.00 C193.45,384.00 193.00,383.55 193.00,383.00 M 305.50,383.00 C305.16,382.45 305.36,382.00 305.94,382.00 C306.52,382.00 307.00,382.45 307.00,383.00 C307.00,383.55 306.80,384.00 306.56,384.00 C306.32,384.00 305.84,383.55 305.50,383.00 M 189.50,381.00 C189.84,380.45 190.32,380.00 190.56,380.00 C190.80,380.00 191.00,380.45 191.00,381.00 C191.00,381.55 190.52,382.00 189.94,382.00 C189.36,382.00 189.16,381.55 189.50,381.00 M 309.00,381.00 C309.00,380.45 309.45,380.00 310.00,380.00 C310.55,380.00 311.00,380.45 311.00,381.00 C311.00,381.55 310.55,382.00 310.00,382.00 C309.45,382.00 309.00,381.55 309.00,381.00 M 186.00,379.44 C186.00,378.58 186.45,378.16 187.00,378.50 C187.55,378.84 188.00,379.54 188.00,380.06 C188.00,380.58 187.55,381.00 187.00,381.00 C186.45,381.00 186.00,380.30 186.00,379.44 M 313.00,379.44 C313.00,378.58 313.46,378.16 314.02,378.51 C314.58,378.86 314.77,379.56 314.46,380.07 C313.60,381.46 313.00,381.20 313.00,379.44 M 182.00,378.00 C182.00,377.45 182.45,377.00 183.00,377.00 C183.55,377.00 184.00,377.45 184.00,378.00 C184.00,378.55 183.55,379.00 183.00,379.00 C182.45,379.00 182.00,378.55 182.00,378.00 M 316.00,378.06 C316.00,377.54 316.45,376.84 317.00,376.50 C317.55,376.16 318.00,376.58 318.00,377.44 C318.00,378.30 317.55,379.00 317.00,379.00 C316.45,379.00 316.00,378.58 316.00,378.06 M 179.00,376.00 C179.00,375.45 179.45,375.00 180.00,375.00 C180.55,375.00 181.00,375.45 181.00,376.00 C181.00,376.55 180.55,377.00 180.00,377.00 C179.45,377.00 179.00,376.55 179.00,376.00 M 319.50,376.00 C319.16,375.45 319.61,375.00 320.50,375.00 C321.39,375.00 321.84,375.45 321.50,376.00 C321.16,376.55 320.71,377.00 320.50,377.00 C320.29,377.00 319.84,376.55 319.50,376.00 M 175.00,374.00 C175.00,373.45 175.70,373.00 176.56,373.00 C177.42,373.00 177.84,373.45 177.50,374.00 C177.16,374.55 176.46,375.00 175.94,375.00 C175.42,375.00 175.00,374.55 175.00,374.00 M 323.00,374.00 C323.00,373.45 323.45,373.00 324.00,373.00 C324.55,373.00 325.00,373.45 325.00,374.00 C325.00,374.55 324.55,375.00 324.00,375.00 C323.45,375.00 323.00,374.55 323.00,374.00 M 172.00,372.00 C172.00,371.45 172.45,371.00 173.00,371.00 C173.55,371.00 174.00,371.45 174.00,372.00 C174.00,372.55 173.55,373.00 173.00,373.00 C172.45,373.00 172.00,372.55 172.00,372.00 M 326.55,372.09 C326.23,371.56 326.39,370.87 326.91,370.55 C327.44,370.23 328.13,370.39 328.45,370.91 C328.77,371.44 328.61,372.13 328.09,372.45 C327.56,372.77 326.87,372.61 326.55,372.09 M 168.55,370.09 C168.23,369.56 168.39,368.87 168.91,368.55 C169.44,368.23 170.13,368.39 170.45,368.91 C170.77,369.44 170.61,370.13 170.09,370.45 C169.56,370.77 168.87,370.61 168.55,370.09 M 330.00,369.44 C330.00,368.58 330.46,368.16 331.02,368.51 C331.58,368.86 331.77,369.56 331.46,370.07 C330.60,371.46 330.00,371.20 330.00,369.44 M 376.24,366.53 L 371.05,361.86 L 373.20,358.94 C375.79,355.43 378.22,354.51 380.96,355.98 C383.46,357.31 383.67,361.61 381.36,364.15 C380.04,365.61 379.97,366.25 380.96,367.45 C381.63,368.26 382.02,369.44 381.81,370.06 C381.60,370.69 379.10,369.09 376.24,366.53 M 379.99,362.51 C381.54,360.64 380.60,358.00 378.39,358.00 C376.00,358.00 373.88,361.16 375.21,362.75 C376.59,364.42 378.48,364.33 379.99,362.51 M 115.02,368.25 C115.04,367.29 115.46,364.71 115.97,362.53 C116.48,360.34 116.68,358.35 116.43,358.10 C116.18,357.85 114.63,358.94 112.98,360.52 C111.11,362.31 109.64,363.03 109.05,362.44 C108.46,361.85 110.01,359.90 113.16,357.25 C120.63,350.96 120.80,351.14 118.43,363.00 L 117.73,366.50 L 121.16,363.25 C124.70,359.90 126.00,359.29 126.00,360.96 C126.00,362.33 117.76,369.94 116.25,369.97 C115.56,369.99 115.01,369.21 115.02,368.25 M 165.55,368.09 C165.23,367.56 165.39,366.87 165.91,366.55 C166.44,366.23 167.13,366.39 167.45,366.91 C167.77,367.44 167.61,368.13 167.09,368.45 C166.56,368.77 165.87,368.61 165.55,368.09 M 333.00,367.00 C333.00,366.45 333.45,366.00 334.00,366.00 C334.55,366.00 335.00,366.45 335.00,367.00 C335.00,367.55 334.55,368.00 334.00,368.00 C333.45,368.00 333.00,367.55 333.00,367.00 M 162.00,365.00 C162.00,364.45 162.45,364.00 163.00,364.00 C163.55,364.00 164.00,364.45 164.00,365.00 C164.00,365.55 163.55,366.00 163.00,366.00 C162.45,366.00 162.00,365.55 162.00,365.00 M 336.50,365.00 C336.16,364.45 336.36,364.00 336.94,364.00 C337.52,364.00 338.00,364.45 338.00,365.00 C338.00,365.55 337.80,366.00 337.56,366.00 C337.32,366.00 336.84,365.55 336.50,365.00 M 159.50,363.00 C159.16,362.45 159.36,362.00 159.94,362.00 C160.52,362.00 161.00,362.45 161.00,363.00 C161.00,363.55 160.80,364.00 160.56,364.00 C160.32,364.00 159.84,363.55 159.50,363.00 M 339.55,363.09 C339.23,362.56 339.39,361.87 339.91,361.55 C340.44,361.23 341.13,361.39 341.45,361.91 C341.77,362.44 341.61,363.13 341.09,363.45 C340.56,363.77 339.87,363.61 339.55,363.09 M 156.00,360.00 C156.00,359.45 156.45,359.00 157.00,359.00 C157.55,359.00 158.00,359.45 158.00,360.00 C158.00,360.55 157.55,361.00 157.00,361.00 C156.45,361.00 156.00,360.55 156.00,360.00 M 342.50,360.00 C342.16,359.45 342.61,359.00 343.50,359.00 C344.39,359.00 344.84,359.45 344.50,360.00 C344.16,360.55 343.71,361.00 343.50,361.00 C343.29,361.00 342.84,360.55 342.50,360.00 M 153.00,357.00 C153.00,356.45 153.45,356.00 154.00,356.00 C154.55,356.00 155.00,356.45 155.00,357.00 C155.00,357.55 154.55,358.00 154.00,358.00 C153.45,358.00 153.00,357.55 153.00,357.00 M 345.51,356.98 C345.86,356.42 346.56,356.23 347.07,356.54 C348.46,357.40 348.20,358.00 346.44,358.00 C345.58,358.00 345.16,357.54 345.51,356.98 M 150.00,355.00 C150.00,354.45 150.45,354.00 151.00,354.00 C151.55,354.00 152.00,354.45 152.00,355.00 C152.00,355.55 151.55,356.00 151.00,356.00 C150.45,356.00 150.00,355.55 150.00,355.00 M 348.55,355.09 C348.23,354.56 348.39,353.87 348.91,353.55 C349.44,353.23 350.13,353.39 350.45,353.91 C350.77,354.44 350.61,355.13 350.09,355.45 C349.56,355.77 348.87,355.61 348.55,355.09 M 147.00,352.00 C147.00,351.45 147.45,351.00 148.00,351.00 C148.55,351.00 149.00,351.45 149.00,352.00 C149.00,352.55 148.55,353.00 148.00,353.00 C147.45,353.00 147.00,352.55 147.00,352.00 M 351.50,352.00 C351.16,351.45 351.36,351.00 351.94,351.00 C352.52,351.00 353.00,351.45 353.00,352.00 C353.00,352.55 352.80,353.00 352.56,353.00 C352.32,353.00 351.84,352.55 351.50,352.00 M 144.50,349.00 C144.84,348.45 145.32,348.00 145.56,348.00 C145.80,348.00 146.00,348.45 146.00,349.00 C146.00,349.55 145.52,350.00 144.94,350.00 C144.36,350.00 144.16,349.55 144.50,349.00 M 354.00,349.00 C354.00,348.45 354.45,348.00 355.00,348.00 C355.55,348.00 356.00,348.45 356.00,349.00 C356.00,349.55 355.55,350.00 355.00,350.00 C354.45,350.00 354.00,349.55 354.00,349.00 M 396.71,344.75 C388.17,333.18 388.32,333.00 403.74,335.66 C407.08,336.24 407.31,338.00 404.06,338.00 C401.46,338.00 398.82,342.43 399.59,345.50 C400.43,348.87 399.58,348.65 396.71,344.75 M 399.00,339.00 C399.96,337.20 399.76,337.00 397.03,337.00 C394.23,337.00 394.09,337.16 395.23,339.00 C395.92,340.10 396.81,341.00 397.21,341.00 C397.60,341.00 398.41,340.10 399.00,339.00 M 142.00,346.00 C142.00,345.45 142.45,345.00 143.00,345.00 C143.55,345.00 144.00,345.45 144.00,346.00 C144.00,346.55 143.55,347.00 143.00,347.00 C142.45,347.00 142.00,346.55 142.00,346.00 M 357.00,346.00 C357.00,345.45 357.45,345.00 358.00,345.00 C358.55,345.00 359.00,345.45 359.00,346.00 C359.00,346.55 358.55,347.00 358.00,347.00 C357.45,347.00 357.00,346.55 357.00,346.00 M 96.57,342.59 C97.29,339.69 94.44,334.85 92.23,335.23 C91.39,335.38 90.53,335.00 90.31,334.38 C89.84,333.02 103.84,331.44 105.11,332.71 C106.03,333.63 98.44,345.00 96.90,345.00 C96.38,345.00 96.23,343.92 96.57,342.59 M 101.42,336.25 C103.28,334.04 103.28,334.00 101.40,334.02 C100.36,334.02 98.85,334.44 98.06,334.94 C96.86,335.70 96.85,336.11 97.96,337.45 C98.69,338.33 99.34,338.92 99.40,338.77 C99.47,338.62 100.37,337.49 101.42,336.25 M 139.00,343.00 C139.00,342.45 139.45,342.00 140.00,342.00 C140.55,342.00 141.00,342.45 141.00,343.00 C141.00,343.55 140.55,344.00 140.00,344.00 C139.45,344.00 139.00,343.55 139.00,343.00 M 359.00,343.00 C359.00,342.45 359.45,342.00 360.00,342.00 C360.55,342.00 361.00,342.45 361.00,343.00 C361.00,343.55 360.55,344.00 360.00,344.00 C359.45,344.00 359.00,343.55 359.00,343.00 M 137.00,340.00 C137.00,339.45 137.45,339.00 138.00,339.00 C138.55,339.00 139.00,339.45 139.00,340.00 C139.00,340.55 138.55,341.00 138.00,341.00 C137.45,341.00 137.00,340.55 137.00,340.00 M 362.00,340.00 C362.00,339.45 362.45,339.00 363.00,339.00 C363.55,339.00 364.00,339.45 364.00,340.00 C364.00,340.55 363.55,341.00 363.00,341.00 C362.45,341.00 362.00,340.55 362.00,340.00 M 134.00,337.00 C134.00,336.45 134.45,336.00 135.00,336.00 C135.55,336.00 136.00,336.45 136.00,337.00 C136.00,337.55 135.55,338.00 135.00,338.00 C134.45,338.00 134.00,337.55 134.00,337.00 M 364.50,337.00 C364.16,336.45 364.36,336.00 364.94,336.00 C365.52,336.00 366.00,336.45 366.00,337.00 C366.00,337.55 365.80,338.00 365.56,338.00 C365.32,338.00 364.84,337.55 364.50,337.00 M 132.00,334.00 C132.00,333.45 132.48,333.00 133.06,333.00 C133.64,333.00 133.84,333.45 133.50,334.00 C133.16,334.55 132.68,335.00 132.44,335.00 C132.20,335.00 132.00,334.55 132.00,334.00 M 366.55,334.09 C366.23,333.56 366.39,332.87 366.91,332.55 C367.44,332.23 368.13,332.39 368.45,332.91 C368.77,333.44 368.61,334.13 368.09,334.45 C367.56,334.77 366.87,334.61 366.55,334.09 M 129.55,331.09 C129.23,330.56 129.39,329.87 129.91,329.55 C130.44,329.23 131.13,329.39 131.45,329.91 C131.77,330.44 131.61,331.13 131.09,331.45 C130.56,331.77 129.87,331.61 129.55,331.09 M 369.00,330.00 C369.00,329.45 369.45,329.00 370.00,329.00 C370.55,329.00 371.00,329.45 371.00,330.00 C371.00,330.55 370.55,331.00 370.00,331.00 C369.45,331.00 369.00,330.55 369.00,330.00 M 127.00,327.00 C127.00,326.45 127.45,326.00 128.00,326.00 C128.55,326.00 129.00,326.45 129.00,327.00 C129.00,327.55 128.55,328.00 128.00,328.00 C127.45,328.00 127.00,327.55 127.00,327.00 M 371.00,327.00 C371.00,326.45 371.45,326.00 372.00,326.00 C372.55,326.00 373.00,326.45 373.00,327.00 C373.00,327.55 372.55,328.00 372.00,328.00 C371.45,328.00 371.00,327.55 371.00,327.00 M 125.54,324.07 C125.23,323.56 125.42,322.86 125.98,322.51 C126.54,322.16 127.00,322.58 127.00,323.44 C127.00,325.20 126.40,325.46 125.54,324.07 M 373.54,324.07 C373.23,323.56 373.42,322.86 373.98,322.51 C374.54,322.16 375.00,322.58 375.00,323.44 C375.00,325.20 374.40,325.46 373.54,324.07 M 123.00,320.00 C123.00,319.45 123.42,319.00 123.94,319.00 C124.46,319.00 125.16,319.45 125.50,320.00 C125.84,320.55 125.42,321.00 124.56,321.00 C123.70,321.00 123.00,320.55 123.00,320.00 M 375.00,320.00 C375.00,319.45 375.45,319.00 376.00,319.00 C376.55,319.00 377.00,319.45 377.00,320.00 C377.00,320.55 376.55,321.00 376.00,321.00 C375.45,321.00 375.00,320.55 375.00,320.00 M 408.33,316.22 C404.67,314.75 402.34,313.26 402.61,312.56 C402.86,311.91 405.64,310.68 408.78,309.84 L 414.50,308.30 L 410.25,306.54 C406.42,304.96 404.57,303.00 406.91,303.00 C409.33,303.00 419.00,307.43 419.00,308.54 C419.00,309.23 416.75,310.34 414.00,311.00 C411.25,311.66 408.79,312.54 408.53,312.95 C408.27,313.36 409.85,314.29 412.03,315.01 C415.80,316.25 416.91,317.39 415.25,318.28 C414.84,318.51 411.72,317.57 408.33,316.22 M 121.50,317.00 C121.16,316.45 121.61,316.00 122.50,316.00 C123.39,316.00 123.84,316.45 123.50,317.00 C123.16,317.55 122.71,318.00 122.50,318.00 C122.29,318.00 121.84,317.55 121.50,317.00 M 377.67,317.33 C377.30,316.97 377.00,316.20 377.00,315.63 C377.00,315.01 377.47,315.07 378.18,315.78 C378.83,316.43 379.13,317.20 378.85,317.48 C378.57,317.77 378.03,317.70 377.67,317.33 M 81.00,314.62 C81.00,313.86 81.63,312.72 82.40,312.09 C83.16,311.45 83.56,310.05 83.28,308.97 C82.88,307.45 82.22,307.16 80.26,307.65 C75.29,308.90 78.50,305.72 84.31,303.64 C90.92,301.28 91.89,301.76 92.70,307.78 C93.16,311.21 92.91,311.98 91.03,312.99 C89.81,313.64 87.72,313.90 86.38,313.56 C84.71,313.14 83.77,313.43 83.37,314.48 C82.64,316.38 81.00,316.48 81.00,314.62 M 89.89,311.09 C91.99,309.76 90.48,305.00 87.95,305.00 C85.41,305.00 84.51,307.22 85.96,309.92 C87.18,312.21 87.82,312.40 89.89,311.09 M 120.00,312.94 C120.00,312.36 120.45,312.16 121.00,312.50 C121.55,312.84 122.00,313.32 122.00,313.56 C122.00,313.80 121.55,314.00 121.00,314.00 C120.45,314.00 120.00,313.52 120.00,312.94 M 379.00,313.00 C379.00,312.45 379.45,312.00 380.00,312.00 C380.55,312.00 381.00,312.45 381.00,313.00 C381.00,313.55 380.55,314.00 380.00,314.00 C379.45,314.00 379.00,313.55 379.00,313.00 M 172.03,310.91 C169.02,310.38 162.86,308.09 158.34,305.80 C149.29,301.23 147.73,301.40 146.48,307.07 C146.05,309.07 145.23,310.00 143.92,310.00 C142.08,310.00 142.00,309.03 142.00,288.00 L 142.00,266.00 L 144.50,266.00 C146.58,266.00 147.00,266.48 147.00,268.84 C147.00,270.40 147.87,275.08 148.93,279.24 C153.60,297.49 162.04,306.10 176.76,307.63 C192.96,309.31 204.00,299.58 204.00,283.62 C204.00,274.76 201.68,269.73 194.61,263.28 C188.97,258.14 187.62,257.19 169.77,245.66 C155.62,236.53 149.85,230.97 145.94,222.72 C143.44,217.44 143.00,215.28 143.00,208.43 C143.00,194.00 147.82,185.68 159.52,179.92 C164.83,177.30 167.50,176.66 174.91,176.24 C185.11,175.66 190.79,177.04 199.02,182.11 C205.45,186.06 208.20,185.71 209.43,180.75 C210.18,177.70 210.81,177.00 212.78,177.00 C214.59,177.00 215.06,177.41 214.61,178.58 C214.27,179.45 214.00,188.00 214.00,197.58 L 214.00,215.00 L 211.50,215.00 C209.41,215.00 209.00,214.53 209.00,212.11 C209.00,207.64 205.39,197.01 202.14,191.88 C196.78,183.43 189.33,179.62 178.34,179.70 C170.98,179.76 165.26,182.53 160.62,188.31 C158.02,191.55 157.50,193.13 157.17,198.97 C156.45,211.71 160.08,216.96 177.22,228.02 C200.49,243.04 204.94,246.26 210.44,252.03 C213.55,255.28 216.98,259.97 218.08,262.45 C222.49,272.42 221.20,287.84 215.23,296.43 C211.75,301.44 204.58,306.60 197.80,308.96 C191.20,311.26 179.25,312.16 172.03,310.91 M 118.00,310.00 C118.00,309.45 118.48,309.00 119.06,309.00 C119.64,309.00 119.84,309.45 119.50,310.00 C119.16,310.55 118.68,311.00 118.44,311.00 C118.20,311.00 118.00,310.55 118.00,310.00 M 380.55,310.09 C380.23,309.56 380.39,308.87 380.91,308.55 C381.44,308.23 382.13,308.39 382.45,308.91 C382.77,309.44 382.61,310.13 382.09,310.45 C381.56,310.77 380.87,310.61 380.55,310.09 M 254.00,306.86 C254.00,305.46 254.74,305.00 257.03,305.00 C262.22,305.00 266.61,302.55 267.86,298.96 C269.68,293.76 269.44,191.99 267.61,187.60 C266.13,184.06 262.17,182.00 256.85,182.00 C254.67,182.00 254.00,181.53 254.00,180.00 C254.00,178.06 254.67,178.00 277.50,178.00 C300.33,178.00 301.00,178.06 301.00,180.00 C301.00,181.53 300.33,182.00 298.15,182.00 C293.80,182.00 289.10,183.97 287.73,186.36 C286.87,187.85 286.40,196.18 286.17,213.89 L 285.85,239.28 L 290.12,238.60 C299.20,237.15 303.33,233.71 317.18,216.12 C330.92,198.66 334.09,193.60 334.22,188.84 C334.33,184.94 332.20,182.97 327.14,182.29 C323.96,181.87 323.00,181.30 323.00,179.87 C323.00,178.11 324.10,178.00 341.50,178.00 C358.62,178.00 360.00,178.13 360.00,179.79 C360.00,181.06 358.74,181.92 355.75,182.73 C347.27,185.01 343.05,189.04 325.41,211.68 C316.11,223.61 308.63,233.80 308.79,234.31 C309.41,236.29 351.48,294.70 354.84,298.24 C356.79,300.30 360.33,302.72 362.69,303.63 C365.53,304.71 367.00,305.88 367.00,307.04 C367.00,308.68 365.46,308.82 346.50,308.82 C326.99,308.82 326.00,308.73 326.00,306.91 C326.00,305.56 326.71,305.00 328.42,305.00 C332.36,305.00 334.00,303.93 334.00,301.38 C334.00,298.26 301.16,248.96 297.21,246.15 C295.61,245.01 292.39,243.77 290.07,243.40 L 285.86,242.72 L 286.18,270.61 C286.41,290.31 286.86,299.13 287.73,300.64 C289.10,303.03 293.80,305.00 298.15,305.00 C300.26,305.00 301.00,305.48 301.00,306.86 C301.00,308.62 299.74,308.72 277.50,308.72 C255.26,308.72 254.00,308.62 254.00,306.86 M 116.00,306.00 C116.00,305.45 116.45,305.00 117.00,305.00 C117.55,305.00 118.00,305.45 118.00,306.00 C118.00,306.55 117.55,307.00 117.00,307.00 C116.45,307.00 116.00,306.55 116.00,306.00 M 382.00,306.00 C382.00,305.45 382.45,305.00 383.00,305.00 C383.55,305.00 384.00,305.45 384.00,306.00 C384.00,306.55 383.55,307.00 383.00,307.00 C382.45,307.00 382.00,306.55 382.00,306.00 M 115.00,302.00 C115.00,301.45 115.45,301.00 116.00,301.00 C116.55,301.00 117.00,301.45 117.00,302.00 C117.00,302.55 116.55,303.00 116.00,303.00 C115.45,303.00 115.00,302.55 115.00,302.00 M 383.50,302.00 C383.84,301.45 384.57,301.00 385.12,301.00 C385.67,301.00 385.84,301.45 385.50,302.00 C385.16,302.55 384.43,303.00 383.88,303.00 C383.33,303.00 383.16,302.55 383.50,302.00 M 113.55,299.09 C113.23,298.56 113.39,297.87 113.91,297.55 C114.44,297.23 115.13,297.39 115.45,297.91 C115.77,298.44 115.61,299.13 115.09,299.45 C114.56,299.77 113.87,299.61 113.55,299.09 M 385.00,298.00 C385.00,297.45 385.45,297.00 386.00,297.00 C386.55,297.00 387.00,297.45 387.00,298.00 C387.00,298.55 386.55,299.00 386.00,299.00 C385.45,299.00 385.00,298.55 385.00,298.00 M 112.00,295.00 C112.00,294.45 112.45,294.00 113.00,294.00 C113.55,294.00 114.00,294.45 114.00,295.00 C114.00,295.55 113.55,296.00 113.00,296.00 C112.45,296.00 112.00,295.55 112.00,295.00 M 386.50,295.00 C386.16,294.45 386.36,294.00 386.94,294.00 C387.52,294.00 388.00,294.45 388.00,295.00 C388.00,295.55 387.80,296.00 387.56,296.00 C387.32,296.00 386.84,295.55 386.50,295.00 M 111.00,291.00 C111.00,290.45 111.45,290.00 112.00,290.00 C112.55,290.00 113.00,290.45 113.00,291.00 C113.00,291.55 112.55,292.00 112.00,292.00 C111.45,292.00 111.00,291.55 111.00,291.00 M 387.00,291.00 C387.00,290.45 387.45,290.00 388.00,290.00 C388.55,290.00 389.00,290.45 389.00,291.00 C389.00,291.55 388.55,292.00 388.00,292.00 C387.45,292.00 387.00,291.55 387.00,291.00 M 110.00,287.00 C110.00,286.45 110.45,286.00 111.00,286.00 C111.55,286.00 112.00,286.45 112.00,287.00 C112.00,287.55 111.55,288.00 111.00,288.00 C110.45,288.00 110.00,287.55 110.00,287.00 M 388.00,287.00 C388.00,286.45 388.70,286.00 389.56,286.00 C390.42,286.00 390.84,286.45 390.50,287.00 C390.16,287.55 389.46,288.00 388.94,288.00 C388.42,288.00 388.00,287.55 388.00,287.00 M 411.95,284.56 C412.60,283.77 414.50,282.83 416.17,282.46 L 419.20,281.80 L 416.08,278.58 C411.74,274.11 413.40,273.33 418.31,277.53 C420.54,279.44 423.18,281.00 424.18,281.00 C425.18,281.00 426.00,281.68 426.00,282.52 C426.00,283.59 425.34,283.87 423.75,283.47 C422.51,283.16 419.53,283.61 417.12,284.46 C411.66,286.38 410.41,286.41 411.95,284.56 M 83.48,282.93 C83.12,281.79 82.24,281.08 81.54,281.35 C80.83,281.62 78.17,282.15 75.63,282.53 C68.96,283.53 69.69,281.41 76.50,280.00 C81.34,278.99 82.00,278.57 82.00,276.43 C82.00,272.19 83.79,273.80 84.92,279.05 C86.23,285.16 86.22,285.00 85.07,285.00 C84.55,285.00 83.84,284.07 83.48,282.93 M 109.00,283.00 C109.00,282.45 109.45,282.00 110.00,282.00 C110.55,282.00 111.00,282.45 111.00,283.00 C111.00,283.55 110.55,284.00 110.00,284.00 C109.45,284.00 109.00,283.55 109.00,283.00 M 389.00,283.00 C389.00,282.45 389.45,282.00 390.00,282.00 C390.55,282.00 391.00,282.45 391.00,283.00 C391.00,283.55 390.55,284.00 390.00,284.00 C389.45,284.00 389.00,283.55 389.00,283.00 M 108.00,279.00 C108.00,278.45 108.45,278.00 109.00,278.00 C109.55,278.00 110.00,278.45 110.00,279.00 C110.00,279.55 109.55,280.00 109.00,280.00 C108.45,280.00 108.00,279.55 108.00,279.00 M 390.00,279.00 C390.00,278.45 390.45,278.00 391.00,278.00 C391.55,278.00 392.00,278.45 392.00,279.00 C392.00,279.55 391.55,280.00 391.00,280.00 C390.45,280.00 390.00,279.55 390.00,279.00 M 107.54,276.07 C107.23,275.56 107.42,274.86 107.98,274.51 C108.54,274.16 109.00,274.58 109.00,275.44 C109.00,277.20 108.40,277.46 107.54,276.07 M 391.00,275.00 C391.00,274.45 391.45,274.00 392.00,274.00 C392.55,274.00 393.00,274.45 393.00,275.00 C393.00,275.55 392.55,276.00 392.00,276.00 C391.45,276.00 391.00,275.55 391.00,275.00 M 107.00,272.00 C107.00,271.45 107.48,271.00 108.06,271.00 C108.64,271.00 108.84,271.45 108.50,272.00 C108.16,272.55 107.68,273.00 107.44,273.00 C107.20,273.00 107.00,272.55 107.00,272.00 M 391.51,270.98 C391.86,270.42 392.56,270.23 393.07,270.54 C394.46,271.40 394.20,272.00 392.44,272.00 C391.58,272.00 391.16,271.54 391.51,270.98 M 106.00,268.06 C106.00,267.54 106.45,266.84 107.00,266.50 C107.55,266.16 108.00,266.58 108.00,267.44 C108.00,268.30 107.55,269.00 107.00,269.00 C106.45,269.00 106.00,268.58 106.00,268.06 M 392.58,268.13 C392.15,267.44 392.07,266.60 392.40,266.27 C393.29,265.37 394.27,266.69 393.79,268.14 C393.45,269.15 393.21,269.15 392.58,268.13 M 106.00,264.00 C106.00,263.45 106.48,263.00 107.06,263.00 C107.64,263.00 107.84,263.45 107.50,264.00 C107.16,264.55 106.68,265.00 106.44,265.00 C106.20,265.00 106.00,264.55 106.00,264.00 M 392.55,264.09 C392.23,263.56 392.39,262.87 392.91,262.55 C393.44,262.23 394.13,262.39 394.45,262.91 C394.77,263.44 394.61,264.13 394.09,264.45 C393.56,264.77 392.87,264.61 392.55,264.09 M 106.00,260.00 C106.00,259.45 106.48,259.00 107.06,259.00 C107.64,259.00 107.84,259.45 107.50,260.00 C107.16,260.55 106.68,261.00 106.44,261.00 C106.20,261.00 106.00,260.55 106.00,260.00 M 393.00,259.44 C393.00,258.58 393.46,258.16 394.02,258.51 C394.58,258.86 394.77,259.56 394.46,260.07 C393.60,261.46 393.00,261.20 393.00,259.44 M 105.50,256.00 C105.16,255.45 105.36,255.00 105.94,255.00 C106.52,255.00 107.00,255.45 107.00,256.00 C107.00,256.55 106.80,257.00 106.56,257.00 C106.32,257.00 105.84,256.55 105.50,256.00 M 393.00,255.50 C393.00,254.68 393.45,254.00 394.00,254.00 C394.55,254.00 395.00,254.68 395.00,255.50 C395.00,256.32 394.55,257.00 394.00,257.00 C393.45,257.00 393.00,256.32 393.00,255.50 M 105.50,252.00 C105.16,251.45 105.36,251.00 105.94,251.00 C106.52,251.00 107.00,251.45 107.00,252.00 C107.00,252.55 106.80,253.00 106.56,253.00 C106.32,253.00 105.84,252.55 105.50,252.00 M 393.54,252.07 C393.23,251.56 393.42,250.86 393.98,250.51 C394.54,250.16 395.00,250.58 395.00,251.44 C395.00,253.20 394.40,253.46 393.54,252.07 M 105.50,248.00 C105.16,247.45 105.36,247.00 105.94,247.00 C106.52,247.00 107.00,247.45 107.00,248.00 C107.00,248.55 106.80,249.00 106.56,249.00 C106.32,249.00 105.84,248.55 105.50,248.00 M 393.58,248.13 C393.15,247.44 393.07,246.60 393.40,246.27 C394.29,245.37 395.27,246.69 394.79,248.14 C394.45,249.15 394.21,249.15 393.58,248.13 M 105.50,244.00 C105.16,243.45 105.36,243.00 105.94,243.00 C106.52,243.00 107.00,243.45 107.00,244.00 C107.00,244.55 106.80,245.00 106.56,245.00 C106.32,245.00 105.84,244.55 105.50,244.00 M 393.00,243.44 C393.00,242.58 393.45,242.16 394.00,242.50 C394.55,242.84 395.00,243.54 395.00,244.06 C395.00,244.58 394.55,245.00 394.00,245.00 C393.45,245.00 393.00,244.30 393.00,243.44 M 106.00,240.00 C106.00,239.45 106.48,239.00 107.06,239.00 C107.64,239.00 107.84,239.45 107.50,240.00 C107.16,240.55 106.68,241.00 106.44,241.00 C106.20,241.00 106.00,240.55 106.00,240.00 M 393.00,239.44 C393.00,238.58 393.46,238.16 394.02,238.51 C394.58,238.86 394.77,239.56 394.46,240.07 C393.60,241.46 393.00,241.20 393.00,239.44 M 106.00,236.00 C106.00,235.45 106.45,235.00 107.00,235.00 C107.55,235.00 108.00,235.45 108.00,236.00 C108.00,236.55 107.55,237.00 107.00,237.00 C106.45,237.00 106.00,236.55 106.00,236.00 M 392.54,236.07 C392.23,235.56 392.42,234.86 392.98,234.51 C393.54,234.16 394.00,234.58 394.00,235.44 C394.00,237.20 393.40,237.46 392.54,236.07 M 106.00,232.00 C106.00,231.45 106.45,231.00 107.00,231.00 C107.55,231.00 108.00,231.45 108.00,232.00 C108.00,232.55 107.55,233.00 107.00,233.00 C106.45,233.00 106.00,232.55 106.00,232.00 M 392.00,232.00 C392.00,231.45 392.45,231.00 393.00,231.00 C393.55,231.00 394.00,231.45 394.00,232.00 C394.00,232.55 393.55,233.00 393.00,233.00 C392.45,233.00 392.00,232.55 392.00,232.00 M 107.00,228.00 C107.00,227.45 107.45,227.00 108.00,227.00 C108.55,227.00 109.00,227.45 109.00,228.00 C109.00,228.55 108.55,229.00 108.00,229.00 C107.45,229.00 107.00,228.55 107.00,228.00 M 391.50,228.00 C391.16,227.45 391.36,227.00 391.94,227.00 C392.52,227.00 393.00,227.45 393.00,228.00 C393.00,228.55 392.80,229.00 392.56,229.00 C392.32,229.00 391.84,228.55 391.50,228.00 M 108.00,224.00 C108.00,223.45 108.45,223.00 109.00,223.00 C109.55,223.00 110.00,223.45 110.00,224.00 C110.00,224.55 109.55,225.00 109.00,225.00 C108.45,225.00 108.00,224.55 108.00,224.00 M 391.00,224.00 C391.00,223.45 391.45,223.00 392.00,223.00 C392.55,223.00 393.00,223.45 393.00,224.00 C393.00,224.55 392.55,225.00 392.00,225.00 C391.45,225.00 391.00,224.55 391.00,224.00 M 108.00,220.00 C108.00,219.45 108.45,219.00 109.00,219.00 C109.55,219.00 110.00,219.45 110.00,220.00 C110.00,220.55 109.55,221.00 109.00,221.00 C108.45,221.00 108.00,220.55 108.00,220.00 M 390.00,220.00 C390.00,219.45 390.45,219.00 391.00,219.00 C391.55,219.00 392.00,219.45 392.00,220.00 C392.00,220.55 391.55,221.00 391.00,221.00 C390.45,221.00 390.00,220.55 390.00,220.00 M 109.00,216.00 C109.00,215.45 109.45,215.00 110.00,215.00 C110.55,215.00 111.00,215.45 111.00,216.00 C111.00,216.55 110.55,217.00 110.00,217.00 C109.45,217.00 109.00,216.55 109.00,216.00 M 389.00,216.00 C389.00,215.45 389.45,215.00 390.00,215.00 C390.55,215.00 391.00,215.45 391.00,216.00 C391.00,216.55 390.55,217.00 390.00,217.00 C389.45,217.00 389.00,216.55 389.00,216.00 M 110.00,212.00 C110.00,211.45 110.45,211.00 111.00,211.00 C111.55,211.00 112.00,211.45 112.00,212.00 C112.00,212.55 111.55,213.00 111.00,213.00 C110.45,213.00 110.00,212.55 110.00,212.00 M 388.00,212.00 C388.00,211.45 388.45,211.00 389.00,211.00 C389.55,211.00 390.00,211.45 390.00,212.00 C390.00,212.55 389.55,213.00 389.00,213.00 C388.45,213.00 388.00,212.55 388.00,212.00 M 111.50,209.00 C111.16,208.45 111.36,208.00 111.94,208.00 C112.52,208.00 113.00,208.45 113.00,209.00 C113.00,209.55 112.80,210.00 112.56,210.00 C112.32,210.00 111.84,209.55 111.50,209.00 M 387.00,208.00 C387.00,207.45 387.45,207.00 388.00,207.00 C388.55,207.00 389.00,207.45 389.00,208.00 C389.00,208.55 388.55,209.00 388.00,209.00 C387.45,209.00 387.00,208.55 387.00,208.00 M 113.00,205.00 C113.00,204.45 113.48,204.00 114.06,204.00 C114.64,204.00 114.84,204.45 114.50,205.00 C114.16,205.55 113.68,206.00 113.44,206.00 C113.20,206.00 113.00,205.55 113.00,205.00 M 386.00,205.00 C386.00,204.45 386.48,204.00 387.06,204.00 C387.64,204.00 387.84,204.45 387.50,205.00 C387.16,205.55 386.68,206.00 386.44,206.00 C386.20,206.00 386.00,205.55 386.00,205.00 M 114.00,201.00 C114.00,200.45 114.45,200.00 115.00,200.00 C115.55,200.00 116.00,200.45 116.00,201.00 C116.00,201.55 115.55,202.00 115.00,202.00 C114.45,202.00 114.00,201.55 114.00,201.00 M 384.50,201.00 C384.16,200.45 384.36,200.00 384.94,200.00 C385.52,200.00 386.00,200.45 386.00,201.00 C386.00,201.55 385.80,202.00 385.56,202.00 C385.32,202.00 384.84,201.55 384.50,201.00 M 115.00,197.00 C115.00,196.45 115.45,196.00 116.00,196.00 C116.55,196.00 117.00,196.45 117.00,197.00 C117.00,197.55 116.55,198.00 116.00,198.00 C115.45,198.00 115.00,197.55 115.00,197.00 M 383.00,197.00 C383.00,196.45 383.45,196.00 384.00,196.00 C384.55,196.00 385.00,196.45 385.00,197.00 C385.00,197.55 384.55,198.00 384.00,198.00 C383.45,198.00 383.00,197.55 383.00,197.00 M 117.00,193.44 C117.00,192.58 117.46,192.16 118.02,192.51 C118.58,192.86 118.77,193.56 118.46,194.07 C117.60,195.46 117.00,195.20 117.00,193.44 M 381.55,194.09 C381.23,193.56 381.39,192.87 381.91,192.55 C382.44,192.23 383.13,192.39 383.45,192.91 C383.77,193.44 383.61,194.13 383.09,194.45 C382.56,194.77 381.87,194.61 381.55,194.09 M 118.00,190.00 C118.00,189.45 118.45,189.00 119.00,189.00 C119.55,189.00 120.00,189.45 120.00,190.00 C120.00,190.55 119.55,191.00 119.00,191.00 C118.45,191.00 118.00,190.55 118.00,190.00 M 380.00,190.00 C380.00,189.45 380.45,189.00 381.00,189.00 C381.55,189.00 382.00,189.45 382.00,190.00 C382.00,190.55 381.55,191.00 381.00,191.00 C380.45,191.00 380.00,190.55 380.00,190.00 M 120.00,186.00 C120.00,185.45 120.45,185.00 121.00,185.00 C121.55,185.00 122.00,185.45 122.00,186.00 C122.00,186.55 121.55,187.00 121.00,187.00 C120.45,187.00 120.00,186.55 120.00,186.00 M 378.00,186.00 C378.00,185.45 378.45,185.00 379.00,185.00 C379.55,185.00 380.00,185.45 380.00,186.00 C380.00,186.55 379.55,187.00 379.00,187.00 C378.45,187.00 378.00,186.55 378.00,186.00 M 122.00,183.00 C122.00,182.45 122.45,182.00 123.00,182.00 C123.55,182.00 124.00,182.45 124.00,183.00 C124.00,183.55 123.55,184.00 123.00,184.00 C122.45,184.00 122.00,183.55 122.00,183.00 M 376.50,183.00 C376.16,182.45 376.36,182.00 376.94,182.00 C377.52,182.00 378.00,182.45 378.00,183.00 C378.00,183.55 377.80,184.00 377.56,184.00 C377.32,184.00 376.84,183.55 376.50,183.00 M 124.00,178.94 C124.00,178.36 124.45,178.16 125.00,178.50 C125.55,178.84 126.00,179.32 126.00,179.56 C126.00,179.80 125.55,180.00 125.00,180.00 C124.45,180.00 124.00,179.52 124.00,178.94 M 374.51,178.98 C374.86,178.42 375.56,178.23 376.07,178.54 C377.46,179.40 377.20,180.00 375.44,180.00 C374.58,180.00 374.16,179.54 374.51,178.98 M 126.00,176.00 C126.00,175.45 126.45,175.00 127.00,175.00 C127.55,175.00 128.00,175.45 128.00,176.00 C128.00,176.55 127.55,177.00 127.00,177.00 C126.45,177.00 126.00,176.55 126.00,176.00 M 372.50,176.00 C372.16,175.45 372.61,175.00 373.50,175.00 C374.39,175.00 374.84,175.45 374.50,176.00 C374.16,176.55 373.71,177.00 373.50,177.00 C373.29,177.00 372.84,176.55 372.50,176.00 M 128.00,172.44 C128.00,171.58 128.46,171.16 129.02,171.51 C129.58,171.86 129.77,172.56 129.46,173.07 C128.60,174.46 128.00,174.20 128.00,172.44 M 370.50,172.00 C370.84,171.45 371.32,171.00 371.56,171.00 C371.80,171.00 372.00,171.45 372.00,172.00 C372.00,172.55 371.52,173.00 370.94,173.00 C370.36,173.00 370.16,172.55 370.50,172.00 M 130.00,169.00 C130.00,168.45 130.45,168.00 131.00,168.00 C131.55,168.00 132.00,168.45 132.00,169.00 C132.00,169.55 131.55,170.00 131.00,170.00 C130.45,170.00 130.00,169.55 130.00,169.00 M 368.00,169.00 C368.00,168.45 368.45,168.00 369.00,168.00 C369.55,168.00 370.00,168.45 370.00,169.00 C370.00,169.55 369.55,170.00 369.00,170.00 C368.45,170.00 368.00,169.55 368.00,169.00 M 132.50,166.00 C132.84,165.45 133.32,165.00 133.56,165.00 C133.80,165.00 134.00,165.45 134.00,166.00 C134.00,166.55 133.52,167.00 132.94,167.00 C132.36,167.00 132.16,166.55 132.50,166.00 M 366.00,166.00 C366.00,165.45 366.45,165.00 367.00,165.00 C367.55,165.00 368.00,165.45 368.00,166.00 C368.00,166.55 367.55,167.00 367.00,167.00 C366.45,167.00 366.00,166.55 366.00,166.00 M 135.00,163.00 C135.00,162.45 135.48,162.00 136.06,162.00 C136.64,162.00 136.84,162.45 136.50,163.00 C136.16,163.55 135.68,164.00 135.44,164.00 C135.20,164.00 135.00,163.55 135.00,163.00 M 363.55,163.09 C363.23,162.56 363.39,161.87 363.91,161.55 C364.44,161.23 365.13,161.39 365.45,161.91 C365.77,162.44 365.61,163.13 365.09,163.45 C364.56,163.77 363.87,163.61 363.55,163.09 M 137.50,160.00 C137.16,159.45 137.36,159.00 137.94,159.00 C138.52,159.00 139.00,159.45 139.00,160.00 C139.00,160.55 138.80,161.00 138.56,161.00 C138.32,161.00 137.84,160.55 137.50,160.00 M 140.00,157.00 C140.00,156.45 140.48,156.00 141.06,156.00 C141.64,156.00 141.84,156.45 141.50,157.00 C141.16,157.55 140.68,158.00 140.44,158.00 C140.20,158.00 140.00,157.55 140.00,157.00 M 358.55,157.09 C358.23,156.56 358.39,155.87 358.91,155.55 C359.44,155.23 360.13,155.39 360.45,155.91 C360.77,156.44 360.61,157.13 360.09,157.45 C359.56,157.77 358.87,157.61 358.55,157.09 M 142.55,154.09 C142.23,153.56 142.39,152.87 142.91,152.55 C143.44,152.23 144.13,152.39 144.45,152.91 C144.77,153.44 144.61,154.13 144.09,154.45 C143.56,154.77 142.87,154.61 142.55,154.09 M 356.00,153.44 C356.00,152.58 356.46,152.16 357.02,152.51 C357.58,152.86 357.77,153.56 357.46,154.07 C356.60,155.46 356.00,155.20 356.00,153.44 M 145.00,151.00 C145.00,150.45 145.45,150.00 146.00,150.00 C146.55,150.00 147.00,150.45 147.00,151.00 C147.00,151.55 146.55,152.00 146.00,152.00 C145.45,152.00 145.00,151.55 145.00,151.00 M 353.50,151.00 C353.16,150.45 353.36,150.00 353.94,150.00 C354.52,150.00 355.00,150.45 355.00,151.00 C355.00,151.55 354.80,152.00 354.56,152.00 C354.32,152.00 353.84,151.55 353.50,151.00 M 148.00,148.00 C148.00,147.45 148.45,147.00 149.00,147.00 C149.55,147.00 150.00,147.45 150.00,148.00 C150.00,148.55 149.55,149.00 149.00,149.00 C148.45,149.00 148.00,148.55 148.00,148.00 M 350.50,148.00 C350.16,147.45 350.36,147.00 350.94,147.00 C351.52,147.00 352.00,147.45 352.00,148.00 C352.00,148.55 351.80,149.00 351.56,149.00 C351.32,149.00 350.84,148.55 350.50,148.00 M 151.00,145.00 C151.00,144.45 151.45,144.00 152.00,144.00 C152.55,144.00 153.00,144.45 153.00,145.00 C153.00,145.55 152.55,146.00 152.00,146.00 C151.45,146.00 151.00,145.55 151.00,145.00 M 347.50,145.00 C347.16,144.45 347.36,144.00 347.94,144.00 C348.52,144.00 349.00,144.45 349.00,145.00 C349.00,145.55 348.80,146.00 348.56,146.00 C348.32,146.00 347.84,145.55 347.50,145.00 M 153.55,143.09 C153.23,142.56 153.39,141.87 153.91,141.55 C154.44,141.23 155.13,141.39 155.45,141.91 C155.77,142.44 155.61,143.13 155.09,143.45 C154.56,143.77 153.87,143.61 153.55,143.09 M 344.51,141.98 C344.86,141.42 345.56,141.23 346.07,141.54 C347.46,142.40 347.20,143.00 345.44,143.00 C344.58,143.00 344.16,142.54 344.51,141.98 M 157.00,140.00 C157.00,139.45 157.48,139.00 158.06,139.00 C158.64,139.00 158.84,139.45 158.50,140.00 C158.16,140.55 157.68,141.00 157.44,141.00 C157.20,141.00 157.00,140.55 157.00,140.00 M 341.55,140.09 C341.23,139.56 341.39,138.87 341.91,138.55 C342.44,138.23 343.13,138.39 343.45,138.91 C343.77,139.44 343.61,140.13 343.09,140.45 C342.56,140.77 341.87,140.61 341.55,140.09 M 160.00,136.94 C160.00,136.36 160.45,136.16 161.00,136.50 C161.55,136.84 162.00,137.32 162.00,137.56 C162.00,137.80 161.55,138.00 161.00,138.00 C160.45,138.00 160.00,137.52 160.00,136.94 M 338.50,137.00 C338.84,136.45 339.32,136.00 339.56,136.00 C339.80,136.00 340.00,136.45 340.00,137.00 C340.00,137.55 339.52,138.00 338.94,138.00 C338.36,138.00 338.16,137.55 338.50,137.00 M 163.00,135.00 C163.00,134.45 163.45,134.00 164.00,134.00 C164.55,134.00 165.00,134.45 165.00,135.00 C165.00,135.55 164.55,136.00 164.00,136.00 C163.45,136.00 163.00,135.55 163.00,135.00 M 335.50,135.00 C335.16,134.45 335.36,134.00 335.94,134.00 C336.52,134.00 337.00,134.45 337.00,135.00 C337.00,135.55 336.80,136.00 336.56,136.00 C336.32,136.00 335.84,135.55 335.50,135.00 M 166.50,132.00 C166.84,131.45 167.32,131.00 167.56,131.00 C167.80,131.00 168.00,131.45 168.00,132.00 C168.00,132.55 167.52,133.00 166.94,133.00 C166.36,133.00 166.16,132.55 166.50,132.00 M 332.00,131.94 C332.00,131.36 332.45,131.16 333.00,131.50 C333.55,131.84 334.00,132.32 334.00,132.56 C334.00,132.80 333.55,133.00 333.00,133.00 C332.45,133.00 332.00,132.52 332.00,131.94 M 169.51,129.98 C169.86,129.42 170.56,129.23 171.07,129.54 C172.46,130.40 172.20,131.00 170.44,131.00 C169.58,131.00 169.16,130.54 169.51,129.98 M 329.00,129.94 C329.00,129.36 329.45,129.16 330.00,129.50 C330.55,129.84 331.00,130.32 331.00,130.56 C331.00,130.80 330.55,131.00 330.00,131.00 C329.45,131.00 329.00,130.52 329.00,129.94 M 173.00,128.00 C173.00,127.45 173.45,127.00 174.00,127.00 C174.55,127.00 175.00,127.45 175.00,128.00 C175.00,128.55 174.55,129.00 174.00,129.00 C173.45,129.00 173.00,128.55 173.00,128.00 M 325.00,128.00 C325.00,127.45 325.45,127.00 326.00,127.00 C326.55,127.00 327.00,127.45 327.00,128.00 C327.00,128.55 326.55,129.00 326.00,129.00 C325.45,129.00 325.00,128.55 325.00,128.00 M 176.00,126.00 C176.00,125.45 176.45,125.00 177.00,125.00 C177.55,125.00 178.00,125.45 178.00,126.00 C178.00,126.55 177.55,127.00 177.00,127.00 C176.45,127.00 176.00,126.55 176.00,126.00 M 322.00,126.00 C322.00,125.45 322.45,125.00 323.00,125.00 C323.55,125.00 324.00,125.45 324.00,126.00 C324.00,126.55 323.55,127.00 323.00,127.00 C322.45,127.00 322.00,126.55 322.00,126.00 M 180.00,123.94 C180.00,123.36 180.45,123.16 181.00,123.50 C181.55,123.84 182.00,124.32 182.00,124.56 C182.00,124.80 181.55,125.00 181.00,125.00 C180.45,125.00 180.00,124.52 180.00,123.94 M 319.00,124.00 C319.00,123.45 319.48,123.00 320.06,123.00 C320.64,123.00 320.84,123.45 320.50,124.00 C320.16,124.55 319.68,125.00 319.44,125.00 C319.20,125.00 319.00,124.55 319.00,124.00 M 183.00,122.00 C183.00,121.45 183.45,121.00 184.00,121.00 C184.55,121.00 185.00,121.45 185.00,122.00 C185.00,122.55 184.55,123.00 184.00,123.00 C183.45,123.00 183.00,122.55 183.00,122.00 M 315.00,122.00 C315.00,121.45 315.45,121.00 316.00,121.00 C316.55,121.00 317.00,121.45 317.00,122.00 C317.00,122.55 316.55,123.00 316.00,123.00 C315.45,123.00 315.00,122.55 315.00,122.00 M 187.00,120.44 C187.00,119.58 187.46,119.16 188.02,119.51 C188.58,119.86 188.77,120.56 188.46,121.07 C187.60,122.46 187.00,122.20 187.00,120.44 M 311.51,119.98 C311.86,119.42 312.56,119.23 313.07,119.54 C314.46,120.40 314.20,121.00 312.44,121.00 C311.58,121.00 311.16,120.54 311.51,119.98 M 190.00,119.00 C190.00,118.45 190.45,118.00 191.00,118.00 C191.55,118.00 192.00,118.45 192.00,119.00 C192.00,119.55 191.55,120.00 191.00,120.00 C190.45,120.00 190.00,119.55 190.00,119.00 M 308.00,119.00 C308.00,118.45 308.45,118.00 309.00,118.00 C309.55,118.00 310.00,118.45 310.00,119.00 C310.00,119.55 309.55,120.00 309.00,120.00 C308.45,120.00 308.00,119.55 308.00,119.00 M 194.00,117.00 C194.00,116.45 194.45,116.00 195.00,116.00 C195.55,116.00 196.00,116.45 196.00,117.00 C196.00,117.55 195.55,118.00 195.00,118.00 C194.45,118.00 194.00,117.55 194.00,117.00 M 304.00,117.00 C304.00,116.45 304.45,116.00 305.00,116.00 C305.55,116.00 306.00,116.45 306.00,117.00 C306.00,117.55 305.55,118.00 305.00,118.00 C304.45,118.00 304.00,117.55 304.00,117.00 M 197.50,116.00 C197.16,115.45 197.61,115.00 198.50,115.00 C199.39,115.00 199.84,115.45 199.50,116.00 C199.16,116.55 198.71,117.00 198.50,117.00 C198.29,117.00 197.84,116.55 197.50,116.00 M 300.50,116.00 C300.16,115.45 300.61,115.00 301.50,115.00 C302.39,115.00 302.84,115.45 302.50,116.00 C302.16,116.55 301.71,117.00 301.50,117.00 C301.29,117.00 300.84,116.55 300.50,116.00 M 352.00,114.62 C352.00,111.88 347.68,108.52 345.33,109.43 C344.50,109.75 343.35,109.72 342.78,109.36 C341.52,108.58 352.74,102.03 355.37,102.01 C356.81,102.00 357.10,102.51 356.64,104.25 C356.31,105.49 355.51,108.86 354.86,111.75 C353.64,117.17 352.00,118.81 352.00,114.62 M 353.74,105.41 C353.43,105.10 352.15,105.38 350.91,106.05 C348.69,107.23 348.69,107.30 350.56,108.67 C352.27,109.92 352.59,109.85 353.40,108.03 C353.90,106.90 354.06,105.72 353.74,105.41 M 142.62,115.29 C141.36,114.03 142.08,113.23 145.00,112.65 C146.75,112.30 148.00,111.42 148.00,110.53 C148.00,109.35 146.94,109.07 143.25,109.26 C138.78,109.49 138.48,109.34 138.19,106.85 C137.88,104.17 140.88,101.00 143.72,101.00 C145.85,101.00 145.16,102.61 142.50,103.82 C138.46,105.66 139.50,107.13 144.61,106.80 C152.36,106.30 153.51,111.72 146.29,114.66 C144.61,115.35 142.96,115.63 142.62,115.29 M 201.50,114.00 C201.84,113.45 202.32,113.00 202.56,113.00 C202.80,113.00 203.00,113.45 203.00,114.00 C203.00,114.55 202.52,115.00 201.94,115.00 C201.36,115.00 201.16,114.55 201.50,114.00 M 297.00,114.00 C297.00,113.45 297.45,113.00 298.00,113.00 C298.55,113.00 299.00,113.45 299.00,114.00 C299.00,114.55 298.55,115.00 298.00,115.00 C297.45,115.00 297.00,114.55 297.00,114.00 M 205.00,113.00 C205.00,112.45 205.45,112.00 206.00,112.00 C206.55,112.00 207.00,112.45 207.00,113.00 C207.00,113.55 206.55,114.00 206.00,114.00 C205.45,114.00 205.00,113.55 205.00,113.00 M 293.00,113.00 C293.00,112.45 293.45,112.00 294.00,112.00 C294.55,112.00 295.00,112.45 295.00,113.00 C295.00,113.55 294.55,114.00 294.00,114.00 C293.45,114.00 293.00,113.55 293.00,113.00 M 209.00,112.00 C209.00,111.45 209.45,111.00 210.00,111.00 C210.55,111.00 211.00,111.45 211.00,112.00 C211.00,112.55 210.55,113.00 210.00,113.00 C209.45,113.00 209.00,112.55 209.00,112.00 M 289.00,112.00 C289.00,111.45 289.45,111.00 290.00,111.00 C290.55,111.00 291.00,111.45 291.00,112.00 C291.00,112.55 290.55,113.00 290.00,113.00 C289.45,113.00 289.00,112.55 289.00,112.00 M 213.00,111.00 C213.00,110.45 213.45,110.00 214.00,110.00 C214.55,110.00 215.00,110.45 215.00,111.00 C215.00,111.55 214.55,112.00 214.00,112.00 C213.45,112.00 213.00,111.55 213.00,111.00 M 285.50,111.00 C285.16,110.45 285.36,110.00 285.94,110.00 C286.52,110.00 287.00,110.45 287.00,111.00 C287.00,111.55 286.80,112.00 286.56,112.00 C286.32,112.00 285.84,111.55 285.50,111.00 M 217.00,110.00 C217.00,109.45 217.45,109.00 218.00,109.00 C218.55,109.00 219.00,109.45 219.00,110.00 C219.00,110.55 218.55,111.00 218.00,111.00 C217.45,111.00 217.00,110.55 217.00,110.00 M 282.00,110.00 C282.00,109.45 282.48,109.00 283.06,109.00 C283.64,109.00 283.84,109.45 283.50,110.00 C283.16,110.55 282.68,111.00 282.44,111.00 C282.20,111.00 282.00,110.55 282.00,110.00 M 221.00,108.94 C221.00,108.36 221.45,108.16 222.00,108.50 C222.55,108.84 223.00,109.32 223.00,109.56 C223.00,109.80 222.55,110.00 222.00,110.00 C221.45,110.00 221.00,109.52 221.00,108.94 M 278.00,109.00 C278.00,108.45 278.45,108.00 279.00,108.00 C279.55,108.00 280.00,108.45 280.00,109.00 C280.00,109.55 279.55,110.00 279.00,110.00 C278.45,110.00 278.00,109.55 278.00,109.00 M 224.50,108.00 C224.84,107.45 225.32,107.00 225.56,107.00 C225.80,107.00 226.00,107.45 226.00,108.00 C226.00,108.55 225.52,109.00 224.94,109.00 C224.36,109.00 224.16,108.55 224.50,108.00 M 228.50,108.00 C228.16,107.45 228.36,107.00 228.94,107.00 C229.52,107.00 230.00,107.45 230.00,108.00 C230.00,108.55 229.80,109.00 229.56,109.00 C229.32,109.00 228.84,108.55 228.50,108.00 M 270.00,108.00 C270.00,107.45 270.45,107.00 271.00,107.00 C271.55,107.00 272.00,107.45 272.00,108.00 C272.00,108.55 271.55,109.00 271.00,109.00 C270.45,109.00 270.00,108.55 270.00,108.00 M 274.00,107.94 C274.00,107.36 274.45,107.16 275.00,107.50 C275.55,107.84 276.00,108.32 276.00,108.56 C276.00,108.80 275.55,109.00 275.00,109.00 C274.45,109.00 274.00,108.52 274.00,107.94 M 232.50,107.00 C232.84,106.45 233.32,106.00 233.56,106.00 C233.80,106.00 234.00,106.45 234.00,107.00 C234.00,107.55 233.52,108.00 232.94,108.00 C232.36,108.00 232.16,107.55 232.50,107.00 M 236.00,107.00 C236.00,106.45 236.45,106.00 237.00,106.00 C237.55,106.00 238.00,106.45 238.00,107.00 C238.00,107.55 237.55,108.00 237.00,108.00 C236.45,108.00 236.00,107.55 236.00,107.00 M 240.50,107.00 C240.16,106.45 240.36,106.00 240.94,106.00 C241.52,106.00 242.00,106.45 242.00,107.00 C242.00,107.55 241.80,108.00 241.56,108.00 C241.32,108.00 240.84,107.55 240.50,107.00 M 258.00,107.00 C258.00,106.45 258.45,106.00 259.00,106.00 C259.55,106.00 260.00,106.45 260.00,107.00 C260.00,107.55 259.55,108.00 259.00,108.00 C258.45,108.00 258.00,107.55 258.00,107.00 M 262.00,107.00 C262.00,106.45 262.45,106.00 263.00,106.00 C263.55,106.00 264.00,106.45 264.00,107.00 C264.00,107.55 263.55,108.00 263.00,108.00 C262.45,108.00 262.00,107.55 262.00,107.00 M 266.00,107.00 C266.00,106.45 266.45,106.00 267.00,106.00 C267.55,106.00 268.00,106.45 268.00,107.00 C268.00,107.55 267.55,108.00 267.00,108.00 C266.45,108.00 266.00,107.55 266.00,107.00 M 248.75,106.34 C249.44,106.06 250.56,106.06 251.25,106.34 C251.94,106.62 251.38,106.84 250.00,106.84 C248.62,106.84 248.06,106.62 248.75,106.34 M 164.03,95.05 C162.35,91.74 161.44,88.84 161.97,88.52 C162.49,88.20 163.69,89.41 164.64,91.22 L 166.36,94.50 L 167.43,90.29 C168.02,87.97 169.09,85.50 169.80,84.79 C170.87,83.73 170.99,84.23 170.45,87.55 C169.82,91.55 169.87,91.64 173.94,93.47 C176.75,94.74 177.74,95.66 177.04,96.36 C176.35,97.05 174.92,96.85 172.55,95.72 C168.69,93.88 167.62,94.62 168.58,98.45 C169.75,103.13 167.11,101.15 164.03,95.05 M 323.63,96.25 C324.10,95.29 324.39,91.88 324.28,88.68 C324.14,84.52 324.43,82.97 325.29,83.26 C325.96,83.48 326.64,85.31 326.81,87.33 C327.17,91.52 327.22,91.56 330.50,89.41 C335.10,86.40 335.40,88.63 330.82,91.78 C328.30,93.51 325.98,95.62 325.65,96.47 C325.33,97.31 324.55,98.00 323.92,98.00 C323.19,98.00 323.08,97.39 323.63,96.25 M 302.29,82.50 C303.46,78.92 304.95,76.00 305.61,76.00 C306.46,76.00 306.19,77.93 304.71,82.50 C303.54,86.08 302.05,89.00 301.39,89.00 C300.54,89.00 300.81,87.07 302.29,82.50 M 212.07,78.91 C210.35,70.87 210.54,70.18 214.66,69.40 C219.28,68.54 221.59,69.94 221.21,73.39 C221.05,74.82 221.39,76.00 221.96,76.00 C223.71,76.00 223.11,80.87 221.25,81.82 C220.29,82.32 218.07,82.99 216.32,83.32 C213.20,83.91 213.13,83.84 212.07,78.91 M 219.42,80.39 C222.12,79.36 221.25,77.00 218.17,77.00 C214.84,77.00 213.94,77.67 214.68,79.60 C215.25,81.10 216.87,81.37 219.42,80.39 M 218.65,73.46 C219.48,71.30 218.52,70.65 215.58,71.39 C213.89,71.81 213.26,72.51 213.64,73.51 C214.39,75.47 217.90,75.43 218.65,73.46 M 281.32,82.10 C280.65,79.54 275.11,78.69 272.74,80.77 C269.30,83.80 269.88,81.06 273.95,75.08 C276.22,71.73 278.66,69.00 279.38,69.00 C280.13,69.00 281.18,71.21 281.86,74.25 C282.51,77.14 283.31,80.51 283.64,81.75 C284.01,83.17 283.79,84.00 283.02,84.00 C282.36,84.00 281.59,83.15 281.32,82.10 M 280.00,76.58 C280.00,75.80 279.72,74.43 279.38,73.54 C278.83,72.11 278.57,72.16 277.32,73.96 C276.53,75.08 276.16,76.45 276.50,77.00 C277.43,78.51 280.00,78.20 280.00,76.58 M 241.00,72.92 C241.00,67.70 241.33,65.94 242.25,66.24 C242.94,66.47 243.64,67.86 243.82,69.33 C244.09,71.64 244.59,72.00 247.57,72.00 C250.71,72.00 251.00,71.75 251.00,69.00 C251.00,67.35 251.45,66.00 252.00,66.00 C252.57,66.00 253.00,69.00 253.00,73.00 C253.00,77.00 252.57,80.00 252.00,80.00 C251.45,80.00 251.00,78.65 251.00,77.00 C251.00,74.24 250.72,74.00 247.50,74.00 C244.28,74.00 244.00,74.24 244.00,77.00 C244.00,79.00 243.50,80.00 242.50,80.00 C241.31,80.00 241.00,78.55 241.00,72.92 Z" fill="rgba(0,0,0,1)"/>
</g>
</svg>