<svg xmlns="http://www.w3.org/2000/svg" width="100" height="100" viewBox="0 0 100 100" fill="none">
  <circle cx="50" cy="50" r="49.5" fill="white" stroke="#003399"/>
  <path d="M66.9456 65.9399C66.3456 65.9399 66.2193 65.7505 66.2193 65.1821C66.2509 61.0453 66.2351 56.9085 66.2193 52.7875C66.2193 51.777 65.7772 51.3191 64.7667 51.3034C64.0404 51.3034 63.2983 51.3034 62.572 51.3034C61.2615 51.3034 60.851 51.7139 60.851 53.0402C60.851 56.8927 60.851 60.7453 60.851 64.5821C60.851 65.9241 60.851 65.8768 59.4774 65.9399C58.7984 65.9715 58.6879 65.7347 58.6879 65.1189C58.7037 58.3611 58.6879 51.6033 58.6879 44.8614C58.6879 43.2509 58.4353 42.9982 56.7932 42.9982C56.0669 42.9982 55.3248 42.9982 54.5985 42.9982C53.9511 42.9982 53.5406 43.3456 53.4301 43.993C53.3827 44.2772 53.3669 44.5614 53.3669 44.8456C53.3669 51.4139 53.3669 57.9822 53.3669 64.5347C53.3669 65.9241 53.3669 65.8768 51.9617 65.9399C51.267 65.9715 51.1722 65.7189 51.1722 65.1189C51.188 60.019 51.1722 54.9191 51.1722 49.8192C51.1722 48.7771 50.7617 48.3666 49.7196 48.3508C49.0091 48.3508 48.2986 48.3508 47.5881 48.3508C46.2302 48.3508 45.8671 48.6981 45.8671 50.056C45.8671 54.9507 45.8671 59.8295 45.8671 64.7242C45.8671 65.5347 45.4565 65.9399 44.6355 65.9399C43.9934 65.9399 43.6724 65.6136 43.6724 64.961C43.6724 62.3242 43.6724 59.6716 43.6724 57.019C43.6724 56.0243 43.2303 55.598 42.2513 55.598C41.3829 55.598 40.4987 55.598 39.6303 55.598C38.8725 55.598 38.4146 56.0559 38.3672 56.8138C38.3672 57.019 38.3672 57.2401 38.3672 57.4453C38.3672 60.0664 38.3672 62.6874 38.3672 65.3084C38.3672 65.8136 38.2251 65.9715 37.7356 65.9399C37.2146 65.8926 36.6935 65.8768 36.1725 65.9399C35.5251 66.0189 35.4146 65.7663 35.4146 65.1663C35.4304 56.9717 35.4146 48.7771 35.4146 40.5825C35.4146 38.1036 35.4146 35.6247 35.4146 33.1458C35.4146 32.2616 35.0988 31.5353 34.3094 31.0774C32.7936 30.1932 31.041 31.2984 31.041 33.13C31.041 38.9088 31.041 44.7035 31.041 50.4823C31.041 56.2612 31.041 62.0558 31.041 67.8346C31.041 69.2715 31.9094 70.2188 33.2673 70.2188C44.4303 70.2188 55.609 70.2188 66.772 70.2188C68.0035 70.2188 68.9509 69.303 68.9982 68.1188C69.0456 66.9662 68.0983 65.9399 66.8825 65.9399H66.9456ZM62.1299 59.2137C62.1299 57.1927 62.1457 55.1559 62.1299 53.1349C62.1299 52.5823 62.2878 52.456 62.8089 52.4875C63.5036 52.5349 64.4509 52.2665 64.8615 52.6139C65.3194 53.0244 65.0036 53.9875 65.0036 54.698C65.0036 58.1874 65.0036 61.6769 65.0351 65.1663C65.0351 65.8294 64.8457 65.9715 64.2457 65.9241C63.7246 65.8768 63.2036 65.8768 62.6984 65.9241C62.2563 65.9557 62.1457 65.7978 62.1615 65.3715C62.1773 63.3189 62.1615 61.2663 62.1615 59.2137H62.1299ZM54.6301 47.8771C54.6301 46.835 54.6459 45.7929 54.6301 44.7666C54.6301 44.3245 54.7564 44.1982 55.1827 44.214C55.7511 44.2456 56.3195 44.2614 56.8879 44.214C57.3932 44.1666 57.5037 44.3403 57.5037 44.8456C57.4879 48.2402 57.5037 51.6507 57.5037 55.0454C57.5037 58.4401 57.5037 61.8505 57.5037 65.2452C57.5037 65.7978 57.3774 66.0031 56.809 65.9399C56.3195 65.8926 55.8143 65.8926 55.3248 65.9399C54.7564 66.0031 54.6301 65.782 54.6301 65.2452C54.6459 59.4664 54.6301 53.6717 54.6301 47.8929V47.8771ZM47.1302 57.7296C47.1302 55.2191 47.1302 52.7244 47.1302 50.2139C47.1302 49.7086 47.2249 49.4876 47.7776 49.535C48.4723 49.5981 49.4196 49.3139 49.8302 49.6613C50.3038 50.0718 49.988 51.0349 49.988 51.7455C49.988 56.2296 49.9881 60.7137 50.0038 65.1978C50.0038 65.7189 49.9091 65.9715 49.3249 65.9084C48.8039 65.8452 48.2828 65.861 47.7618 65.9084C47.2723 65.9557 47.1302 65.782 47.1302 65.2926C47.1618 62.7663 47.1302 60.24 47.1302 57.7138V57.7296ZM39.6145 61.2663C39.6145 59.94 39.6303 58.6295 39.6145 57.3032C39.6145 56.8611 39.7409 56.719 40.1672 56.7506C40.783 56.7822 41.3987 56.7822 42.0145 56.7506C42.3777 56.7506 42.504 56.8454 42.504 57.2243C42.504 59.9558 42.504 62.7031 42.504 65.4347C42.504 65.8136 42.3777 65.9241 42.0145 65.9084C41.3987 65.8768 40.783 65.8768 40.1672 65.9084C39.7409 65.9399 39.5988 65.8136 39.5988 65.3557C39.6303 63.9821 39.5988 62.6242 39.5988 61.2505L39.6145 61.2663ZM66.2351 69.0188C55.4511 69.0188 44.6513 69.0188 33.8673 69.0188C32.6199 69.0188 32.3673 68.7662 32.3673 67.5504V33.5405C32.3673 33.3037 32.3673 33.0668 32.3673 32.83C32.4305 32.2774 32.7936 31.9616 33.3304 31.9932C33.8199 32.009 34.1673 32.309 34.1989 32.8458C34.1989 33.051 34.1989 33.2721 34.1989 33.4774C34.1989 44.293 34.1989 55.1085 34.1989 65.9241C34.1989 67.0294 34.2778 67.1083 35.3515 67.1083C45.646 67.1083 55.9406 67.1083 66.2351 67.1083C67.3246 67.1083 67.7509 67.3768 67.7667 68.0241C67.7825 68.7188 67.3246 69.003 66.2036 69.003L66.2351 69.0188Z" fill="#003399"/>
  <path d="M51.5828 38.1192C50.5249 37.835 50.2249 37.0929 50.7302 36.1298C51.188 35.2456 51.1407 35.0561 50.2723 34.1877C49.5775 33.493 49.2933 33.4298 48.4881 33.8561C47.4934 34.3772 46.7355 34.0772 46.4513 32.9877C46.2618 32.2298 45.8197 31.9614 45.0776 31.9614C43.7829 31.9614 43.5776 32.072 43.2777 32.9877C42.9303 34.0772 42.2356 34.3772 41.2408 33.8561C40.9882 33.7298 40.7514 33.5403 40.483 33.6035C39.3777 33.6351 38.5251 35.1666 39.0304 36.1456C39.5198 37.0929 39.2356 37.8192 38.2251 38.135C37.2146 38.435 37.1672 38.5297 37.1672 39.9508C37.1672 40.9139 37.3251 41.1034 38.2725 41.3876C39.1883 41.656 39.5198 42.4139 39.0777 43.2507C38.5883 44.1665 38.6198 44.3875 39.2672 45.0507C40.2461 46.0296 40.3724 46.0612 41.3672 45.5559C42.2198 45.1138 42.9777 45.4454 43.2777 46.377C43.3882 46.7243 43.3724 47.1822 43.7671 47.3559C44.4303 47.6401 45.1566 47.5296 45.8513 47.419C46.3723 47.3401 46.3723 46.8033 46.4986 46.4243C46.8302 45.398 47.5407 45.0822 48.4881 45.5717C49.3249 46.0138 49.5618 45.9822 50.2249 45.3191C51.1723 44.3875 51.2196 44.2138 50.7617 43.3296C50.2723 42.3665 50.588 41.6244 51.6459 41.2771C52.5459 40.9771 52.5933 40.835 52.6249 39.4613C52.6249 38.6876 52.3091 38.2929 51.5828 38.1034V38.1192ZM50.8723 40.235C49.5302 40.6455 48.8354 42.2876 49.4828 43.5507C49.6249 43.8191 49.7986 44.0402 49.4828 44.3559C49.167 44.6401 48.9775 44.4349 48.7407 44.3086C47.4934 43.6454 45.8513 44.3402 45.4408 45.698C45.3618 45.9664 45.3618 46.2349 44.9513 46.2664C44.4934 46.2822 44.4776 45.9822 44.3829 45.698C43.9408 44.3402 42.3303 43.677 41.0672 44.3402C40.7988 44.4823 40.5777 44.6401 40.2619 44.3402C39.9619 44.0402 40.1988 43.8349 40.3093 43.6138C40.9566 42.3507 40.2777 40.7244 38.9356 40.2981C38.6514 40.2034 38.3514 40.2034 38.3672 39.7455C38.3672 39.3192 38.6514 39.335 38.904 39.2402C40.2935 38.7981 40.9409 37.1876 40.2619 35.8614C40.1672 35.6877 39.883 35.4982 40.183 35.2614C40.3251 35.1508 40.3882 34.9298 40.6093 34.9614C40.704 35.0087 40.7987 35.0245 40.8777 35.0877C41.5566 35.6087 42.1882 35.4982 42.9619 35.1824C43.7513 34.8666 44.2408 34.4561 44.3829 33.6351C44.4303 33.3667 44.5408 33.2404 44.8566 33.2246C45.1566 33.2246 45.3145 33.3509 45.3302 33.6035C45.4566 34.993 46.6881 35.0719 47.6039 35.4824C48.0144 35.6719 48.4091 35.3245 48.7723 35.1193C49.0249 34.9772 49.2302 34.8824 49.5144 35.1666C49.7828 35.435 49.6249 35.6245 49.5144 35.8456C48.8197 37.2192 49.467 38.7508 50.9038 39.2245C51.1565 39.3034 51.4091 39.335 51.4091 39.7455C51.4091 40.1718 51.1407 40.1876 50.888 40.2665L50.8723 40.235Z" fill="#003399"/>
  <path d="M44.9039 36.6348C43.1986 36.6348 41.7934 38.0084 41.7776 39.7137C41.7776 41.3873 43.1828 42.8241 44.8565 42.8241C46.5617 42.8241 47.9512 41.4663 47.967 39.7452C47.967 38.0242 46.6091 36.6348 44.9039 36.6348ZM44.8565 41.5926C43.8618 41.5926 43.0249 40.74 43.0249 39.7452C43.0249 38.7189 43.8776 37.8663 44.9196 37.8821C45.9459 37.8821 46.7354 38.7031 46.7354 39.7294C46.7354 40.8031 45.9144 41.6084 44.8565 41.5926Z" fill="#003399"/>
</svg>